<mxfile host="app.diagrams.net" modified="2021-08-04T08:56:08.716Z" agent="5.0 (Windows NT 6.1; Win64; x64) AppleWebKit/537.36 (KHTML, like Gecko) Chrome/92.0.4515.107 Safari/537.36" etag="uhN9Qg2XojMZq8DQJ04a" version="14.8.5" type="github">
  <diagram id="wpdwvnDTvs7dEvWJpLjK" name="Page-1">
    <mxGraphModel dx="-1277" dy="1053" grid="1" gridSize="10" guides="1" tooltips="1" connect="1" arrows="1" fold="1" page="1" pageScale="1" pageWidth="827" pageHeight="1169" math="0" shadow="0">
      <root>
        <mxCell id="0" />
        <mxCell id="1" parent="0" />
        <mxCell id="PWt_-XY5z9876F4vLIQb-82" style="edgeStyle=orthogonalEdgeStyle;rounded=0;orthogonalLoop=1;jettySize=auto;html=1;exitX=0;exitY=0.5;exitDx=0;exitDy=0;entryX=1;entryY=0.5;entryDx=0;entryDy=0;fontSize=17;fontColor=#0000CC;startArrow=none;startFill=0;strokeColor=#000000;dashed=1;" edge="1" parent="1" source="PWt_-XY5z9876F4vLIQb-5" target="PWt_-XY5z9876F4vLIQb-26">
          <mxGeometry relative="1" as="geometry" />
        </mxCell>
        <mxCell id="PWt_-XY5z9876F4vLIQb-83" style="edgeStyle=orthogonalEdgeStyle;rounded=0;orthogonalLoop=1;jettySize=auto;html=1;exitX=0.25;exitY=0;exitDx=0;exitDy=0;entryX=1;entryY=0.75;entryDx=0;entryDy=0;fontSize=17;fontColor=#0000CC;startArrow=none;startFill=0;strokeColor=#000000;dashed=1;" edge="1" parent="1" source="PWt_-XY5z9876F4vLIQb-5" target="PWt_-XY5z9876F4vLIQb-62">
          <mxGeometry relative="1" as="geometry" />
        </mxCell>
        <mxCell id="PWt_-XY5z9876F4vLIQb-5" value="CI/CD" style="swimlane;whiteSpace=wrap;fillColor=#f5f5f5;strokeColor=#666666;fontColor=#333333;startSize=60;fontSize=30;" vertex="1" parent="1">
          <mxGeometry x="4360" y="470" width="409" height="370" as="geometry" />
        </mxCell>
        <mxCell id="PWt_-XY5z9876F4vLIQb-6" style="edgeStyle=orthogonalEdgeStyle;rounded=0;orthogonalLoop=1;jettySize=auto;html=1;exitX=1;exitY=0.5;exitDx=0;exitDy=0;entryX=0;entryY=0.5;entryDx=0;entryDy=0;startArrow=none;startFill=0;strokeWidth=1;" edge="1" parent="PWt_-XY5z9876F4vLIQb-5" source="PWt_-XY5z9876F4vLIQb-7" target="PWt_-XY5z9876F4vLIQb-8">
          <mxGeometry relative="1" as="geometry" />
        </mxCell>
        <mxCell id="PWt_-XY5z9876F4vLIQb-7" value="&lt;font style=&quot;font-size: 17px&quot;&gt;Source control&lt;/font&gt;" style="shape=image;html=1;verticalAlign=top;verticalLabelPosition=bottom;labelBackgroundColor=#ffffff;imageAspect=0;aspect=fixed;image=https://cdn2.iconfinder.com/data/icons/font-awesome/1792/git-square-128.png;fillColor=#666600;" vertex="1" parent="PWt_-XY5z9876F4vLIQb-5">
          <mxGeometry x="40.999999999999886" y="121" width="128" height="128" as="geometry" />
        </mxCell>
        <mxCell id="PWt_-XY5z9876F4vLIQb-8" value="&lt;font style=&quot;font-size: 17px&quot;&gt;CI/CD server&lt;/font&gt;" style="shape=image;html=1;verticalAlign=top;verticalLabelPosition=bottom;labelBackgroundColor=#ffffff;imageAspect=0;aspect=fixed;image=https://cdn4.iconfinder.com/data/icons/logos-brands-5/24/jenkins-128.png;fillColor=#666600;" vertex="1" parent="PWt_-XY5z9876F4vLIQb-5">
          <mxGeometry x="251" y="121" width="128" height="128" as="geometry" />
        </mxCell>
        <mxCell id="PWt_-XY5z9876F4vLIQb-81" style="edgeStyle=orthogonalEdgeStyle;rounded=0;orthogonalLoop=1;jettySize=auto;html=1;exitX=0.75;exitY=0;exitDx=0;exitDy=0;entryX=0;entryY=0.9;entryDx=0;entryDy=0;entryPerimeter=0;fontSize=17;fontColor=#0000CC;startArrow=classic;startFill=1;strokeColor=#000000;" edge="1" parent="1" source="PWt_-XY5z9876F4vLIQb-26" target="PWt_-XY5z9876F4vLIQb-56">
          <mxGeometry relative="1" as="geometry">
            <Array as="points">
              <mxPoint x="4173" y="440" />
              <mxPoint x="4320" y="440" />
              <mxPoint x="4320" y="257" />
            </Array>
          </mxGeometry>
        </mxCell>
        <mxCell id="PWt_-XY5z9876F4vLIQb-26" value="QTAP Report" style="swimlane;whiteSpace=wrap;fillColor=#dae8fc;strokeColor=#6c8ebf;startSize=60;fontSize=30;" vertex="1" parent="1">
          <mxGeometry x="3850" y="470" width="430" height="370" as="geometry" />
        </mxCell>
        <mxCell id="PWt_-XY5z9876F4vLIQb-69" value="" style="shape=image;verticalLabelPosition=bottom;labelBackgroundColor=#ffffff;verticalAlign=top;aspect=fixed;imageAspect=0;image=data:image/png,iVBORw0KGgoAAAANSUhEUgAAAXAAAAEhCAYAAABmy/ttAAAgAElEQVR4AexdB3hb5dWWt2R5OwmQ6SlrS7aTsPee2Yn3kLxnnL0oo2UXwigUCi2UsmmhdNIy/kIKDYWySpkhm+xhx0v7/Z/33IimPI0FmFAMN8/zPZKlSLr3fue+3/nOec97NEnWeqhDvQaqDag2oNrAyLMBjTppI2/S1DlT50y1AdUGaAMqgKs7EHUHptqAagMj1AZUAB+hE6d6YKoHptqAagMqgKsArnpfqg2oNjBCbUAF8BE6car3pXpfqg2oNqACuArgqvel2oBqAyPUBlQAH6ETp3pfqvel2oBqAyqAqwCuel+qDag2MEJtQAXwETpxqvelel+qDag2oAK4CuCq96XagGoDI9QGVAAfoROnel+q96XagGoDKoCrAK56X6oNqDYwQm1ABfAROnGq96V6X6oNqDagArgK4Kr3pdqAagMj1AZUAB+hE6d6X6r3pdqAagMqgKsArnpfqg2oNjBCbUAF8BE6car3pXpfqg2oNqACuArgqvel2oBqAyPUBlQAH6ETp3pfqvel2oBqAyqAqwCuel+qDag2MEJtQAXwETpxqvelel+qDag2oAK4CuCq96XagGoDI9QGVAAfoROnel+q96XagGoDKoCrAK56X6oNqDYwQm1ABfAROnGq96V6X6oNqDagArgK4Kr3pdqAagMj1AZUAB+hE6d6X6r3pdqAagMqgKsArnpfqg2oNjBCbUAF8CM4ccnWeqRYGpFsakJ8Xg1SHPVIdNYizlmJuMkuJDuWIDa/CamOFiTklyPVVotUmxt6cy1S7M3Dvql05nakOhuQaClBir1SvjM6twFJxR2Id7qQXnwp4vPakJRfj7H2ZoyxuKDPq4DOWItEazNSrU1IsbZBZ+6E3rYIWksndNYGpBW5kOIogc7kQqLZDb2lDsm2BqTYG5HqaJJHvpZoqZFz0VsakGxtQ5K9A3HGFugLFyDW0ibXhtfncENnaYEympBk5fVoPDjq5TdTCpuht7qQZKlFusONNHuNPKYXNSLBXDPs65dsbkN6URN0jgpoC6uhszXK8WQ625BiqkHy5KWItTQgpagBWnMJ0pzVSLbVgOert7UP+/dTbA1Itdcj2V4Hrc0FvbMe8bY6xJjroS9qR4K9HjGmRuis85Hs6EBsPo+hFpm2BqQb2zDKXAedqQEaYwP0UzqRZKtBhs0l1zvJtggZ1mZk2lqQYW1EYkEtUq11SOVvFVQizVGPZHPDkIM7gPTCFrGXUYXNSLbUIsVahRRHBfTWefJ9o+y1GGOvwhhLHdLymjHKvBAJ+W5kFDcgwUh76kC8vRWJU9oQW9QAja0O2qI2xFiakGRS7h/aodgi7yVzg7zOx0RbPRLMLdDaFiLG0ozEogbEW0uht1YjscA97Os/EnY4KoAfQQBPstRBb6pHorEOmYXtSDTXI95UDX1xAzTmMsTllCGFBltQJTcqb9YxUzqgLahBmm34AJ5iaYfOXIMxxzVBZ6uFJqcaoycvkoUkKmcaoiZegNyT6jCv5QasuuER3Hrfn3H/b17FHY+twZIbHsK5lT/AUfYypJoqEJdTgRR7K0Yd2wVN1mwkF9YKWIcBmwDOEQb0NGcz0hwNGD25FelWN5INFUjImosUYzmSTeWIy52DKKN7yJFirYHOxAWlCslWlwBZ+Pu5wCUXtiLe5JZzTHc2IsXmFvBJsrhk4RruDajnYmN1CSgkOKuQ5GxBoqkZ2vxapFtroRk3E2OOVa5xkrNOFo3M4jZEZVcgxdoybADRm2vknJMcjUh2NiHeVIsEY6WAZFTWJdCZZsqClZBfLwtkoqUWaU439MYaJObWI81Ui9TCDuiKOxFndSMuezoyjbOgmzQdupxyaHJqoMlX5kBT4EKMtQ4JziZozLXQ5JeBrw01YnNcSMh1ISG7CqkF9dDnu5BkbkGMoQmJhUugMbciyuqGZsJ0+b54I8+hXfldUxX0uW4k59dDm1ONhLwauU90BW4BX11+HTSGWrGPaFOdPMqxGGo/PSadYabcO6OmLEO8qRVx5lrEW8uR4nAhzcFF/9sfYlEB/AhOMj1pggkBeczUhYjPr4fO2ASCW5yhFKVtN6Jy8d2Iz58tN3+cSbkR9QUNGGUdvgFmWtuQaHIhxlAFna0ZidZW6I11iBl3IRxnNuGy1ffi5bc3os8PePyAPxBCMBiEzx9EAMDeAeCVt7dgxbW/gOVkN+InXoLY3FIkOZqROrVLvGB62vTEw94Y/9YauYNoRGxeNfSGShx78few/IbfYslVD2HldQ9g6VX3YuUND2D59UOPygWrcYn7Shx7yXwYTqnD+Mk1GEUv11SO2Jy5iDW6ZEFJKWxFVF6VeOeZRa3gzifNRm99eDdwsqVVFocEaynirZVItDchydKKNFs9zqi4EdULfoL4iRchyVwjnnmSowvxxkYBj0z78H6bx64zV0JndSHB1CA7EJ2hCsdOuxSX3vwUll17P5Zcew/aLn8QWVM7oc9rEACUhc7qFgcg1VwrxxxrbUSssQTHXrwAl9/wML53zUO49PpfYdV1j2Ll9Q9jxXUPYfm1D2Lx1fdj2XUPYuXqx7Dk+gex7LpfDDmW3PIE5l97P5Ze93Msv+5+LLnuUcxZcA/i6CwUuDHplHZ03PArLL35Iaz44X1Ycf0DWHHdY1h5/aPo+v7dWHH9T7D82rux6ob7seLa+7Hs6p+Lra287hdYdf0D8tthG+GxLOVv8f9d9wuxncZVd2PSlDqkmZqRWNAqdql3uKGzVSOtcPjzP1z7+To+rwL4MG/yISfJomxJZZtvbUZ8XgvSbF1IyC6D9dwl+GSvB+9uC2Lq9MXQmqqgc3RAa2pDhr0daca6YQNQUl4NRhd1QJNTi9QpCwXkErNnoazpRqx9Yze8XgAhAATv/kEg4Ad8HqDvAOAbANAHwAdPAFj71mbMdH0fyflzMGpyJzS5/w6dELAJ4hlFrbI40UvmdUlzzEf8pHlwL/6pLBL8CX8AGPQE5GcR8GKo0Tvg56GBh9kbANZtA5587kO0r/opppzdKItJVNY8+S16mgz76Ln1NjfIlnvIufkc855qaQO92iRnDeIt1dBZmuT7j5ncjEWr/4xt+4CK1h9ClzUTyY5O2con27ugN7pk1zLc30+0VkBvr5NFQW9uFa+5YfHP0OuDLLC8Nh9u9uK06d+HNqsGuoJ6WTy562L4JY3hEGsDoswuCaMtvPJeDPqAUAgIcN69HsDrQ6h/QB7h90OMgu8FgkPODeeN1tEHL0LwIBDsl7n63cvrcNRxtdBMmo2LS5Zge08QnEWfbx+Cnj5OvvLdnn4E0IuBwD6xMYQC8Ax4EfD5EQj44PXz/33GPnw0IA8Q5En48eyr62E/uQ66CSVILWhHmrMdKYWNSLBUQm+tFbsY7hx80z+vAvjnuJG/7CQybpfEmGNRneIhmueLocWNnYaVNz4lyDkIYPG1DyEme5bivRUtkO23Pn/4MVxtTrmEbpLs7dDbm6DNm436ZXdhwye8OQEEgxjs6UFw0AsEoTx6iQ5+YLAfnv5tCPl4g3kE6LfvAxZf9TDis2Ygo7BFvGyGDBhGIYDT6+bugo8cemsXosbORO38WxTACAaBkAeBwR74Pb3w+waGHPD0AJ4DCPYfkAUmxGMOAYODwM4dA/j+Hc/DeGoz4nNmS6yaAB5XUIdE41cD4EnGRiSaapBeVC9Ayh2M1lCHFHMZVtzxjBzLtr3AuaVXIHr8HAFxxvn1ZjdSzBXDBpAUZw3SJ7cg2TlfFsPoY6bBPf9W5Vr6aTl92LHbhxPPW4TY8WUHAaxZvM90Z7PkBrhriLc1ID53Guav+hFxT0DaP9gH8Dv4gt8D/+CAsroGQwj4gvAO+oacG86d1xMCfD6A39WzT2zquRc34mibCzE59Th79mJs6wUGEMSB/j0C1AGPFyGfFwFvH/oGeuH1DEBWFfoLXKk5+oMIekLwefs/PQY+93r65LWAfxChoBfPv/4xzCdUIDWnApnWTmVuHPVIddZDa6oe9vX/svf91/k5FcCPIICnWdslkZdc7EIsgcC5EImTamA/uQGvvr+TfqV4oq9/2A3Laa3QjJ2Jo49bjNiCWjDuOVxDoPfIBCm90qgJ0zCt4Wqs20EPBujb1Yv+nh1yU9Hh6vUEsKffh109Xuw+4MNgQHHO6Q35Bg8g6B34FMQvX/1r6Caej+iccgFuAjgHwycc4Xi41twFXU4Z3F03idcHfz8CvXsQ4A3PHw0GIgyuKj7F6wrw0SsLC3jTB/3wh4CnX/wIF1ZfCc3Y8xGTVyYhFZ2pDilfQQiKyVUCeLLdDb29ASm2dslpMPa67LanFM81CKx9ezemXLgAMZNmICa3AkcdO3/Yc8e51xrK5PrGm5skSRk9cToaFt6meNC9++Ab2I2tO3px7DmdiM0uhd7RDK2tTslDGOuQTM/b3gKdsxWJhrlYeOmdB687Pdlu+Hr2AL5+5Rrz+g4Mim2IKx2MPD9BLgZclAP9wGC3fPcf/+9dTHBUImZCCS6ZswC7lJcPes707Gly9KAH6RbInwgFlXntPQDv/n2A168cp/+gMxG2EzoWfM7/Hwpizft74TijBSl5VeBuSWt0y1wxEcvQ4XDvn5HweRXAjyCAJxvbxaC0jjJonW4BgLS8alx+0+PoDYYQHNwNv8+DPi+w8LIHETv2IklqxlpcSJwy/CRYPL2R4nYkmWqRf2IdfvfC23JvytbU45WbZE+3F/c/8TxmN10B0xlkMEyH6cwGuFb8DI/+/g3ZrhNs/fSW+nrkM3t7gY7lqwWoCVgMoZCNIKBjrBUQZxgl3rIAcVnzULdgtezIGZYJg/e6Dd34eMOeIce763uxfhsXFEgYRxzwUAh+Xz98BIyBPgGcl97chtNLL4XWWHow2eeWBWW4NyAZGilWhh8UZknSQeZMmmUuVv34N0DAh8HePrmmz6z9CLknlCHVXoE4kxtx1uGzUMY4m5HuaIXW2oLEwhZosi9Bw9LbFQ/c40UwMIhPdntx3IULEZNXihgmXO0upNqakWFpFzZKgqkJsQWNSMiZh84VP4GPHm5gEF7vfpnL9/71IdZ/tBlbt+zG+nXbsXHDXnz04S5s3LAf6zfuHXL8a8NufLB5Nz7c+gk+3rkT/9q2D7c//iImnuCCZsIsTJu1BC+v3YRPtvZh/bpd+Pj9fdi4rle+c8PW7Xj7kwG8vu4TbN2xXQnX+fbA792LEPx4b+MGfPTxLrEPHseGTfs+PRY+37h5P+763dswnN4BbX41Es2NsvNIdbgkiZtmalUBfLg3wHf984n5bcic3AKNeTYSi9zQGusxsbgJr767C14w7rhXwhV0Kta8shuG4xrE60qe2gKNdfghlLjiRsSSzpdfAdeCH4Gb7mBoAIO9u+R3t20D6ltvRHrOJUKL09vaEGtqR7ylC5qcZqTlTEdlyw/x1jtbFE/L04OQt18iLHv2+TB17mqJe8cbqpWQycEEZtgDjzV3QTNxNlqW36F4jZ5+AY2t2z2YV7UCk07tGHLkn1SP46ctwsWuy9C49Cbc+dBv8a/1WzBI7xv0GHfAu2+XAOhv125H7lld0GTPQUpxC7SW4dPIUoykJtYJA4Y0Rm1BkzAkUswzsexHv1TyBX4PBgcVb/IXv38VowpLQdZEfOGSYQNIOpPalkbE25qgLWyEZtJFYGK3n56vxLID2Lw7gCkXL0SMqQwxjhroCusFwJPzmoQeqDM2C/0z3VKH+ZfehwHZSPngD/XjH7uA8+qvwoQTKmA4qwWGM1thPnchJp3SBsPZi5B1WueQw37aAphPakH+iS6Yz2qUz088eSFi88neWQmysCznrITh9PkwntqFvJOXIO+UpZhwWgsmnl0H8+lLMd5WgmWX3SXHRXec8fnNOwOYW7MS409qxcRT2uUYsk+fj0NHzhldyDurFfGGUjCJnWCph95Ri2RbFZIMtcg0dwz7+o8E/FI98CPogR/jLEOqsRZaQwfIydYWzELDsh8K4IR8g5K08QweQAADkuSrX3ArdBNnCV+b3jPjyGEw/Kwx8fXPvvbZv3WFbUIf0+XPxprXdkqykvHKkHcAvR4/KlY+Bc2kORImIGOGVDxywMni4M2nNZQgYVI5pp5/BV76Zze8CMLr2wUw6TUIPPhyL8ad2ALNhEuQUVQvuwfGxpO45bc0y7FrxpejasmtEtqUWKffjy17+jH1/EXQZJVKiCDMXKHXzkGPXjz4ggrEFlQjpsANzbgSRE2cC8dZXbjp7ufA8Cv/eXxbEfT1Sij3xtsfQ/Kki4UpEl88/Bi01l4tAEogFUqjvR5aSzuS8stxxa1PiKfIWDHBlHFbRiFu//mTSDFejARzHaLJCS8mT7tO2D/pliaMsrYg09aEz5PjSLU2IMnmho4hHEczosbNRsPCnyoeeICLfz827RxA8UWLEU0v1NQsHG/G4BnyIVea3HHyxeNzy9G18l74GJ3wKzuXzZ/sg+WsdmgMjZI3SDNXgsl0rbkRyYYGmRvmNo7cqEPU+GrMabtB7CPU75HwyqZdPTjxkmUR7eOz9v5d/FsF8CMI4Ak5M5Bub0G6YzESDA2YcHwtnn3tIwn/gt6oL4TBvv0IhfokFvjE0//E+MIa6IzVYBglDN7/Daz/22ufNWC9oxUxhgqYz+jA+m1BBcDJBAgBL776jvCmudUlXzvBUImMwiahwBHACQJHH9cKbU4lkrMrcOac5Xhzw1YBcZIV3vj7LpxQdh0SCuaK1zNqcqN8Bz9H3nuqrTUigDOGTvDmcROw+ci/w8/TC+skpszEZIqzUxaVmAmXwHRSHZZd84gSV0cPgsF+khjw9gc74TyzHVpDAxKnDD8GGgnAAyEvfAxFMXR8YAC+AcUTv/TmJxCffYmAtyavFIm2RmQ42z4tRgkXzXx2vj7795EG8C3b9sN6dgeijc2y6GZYq6EzK2ybVOO/cxqckyMxmKuInlDzKYBjwAsyYTbvPiAAHsk+Pnu9vot/qwB+BAGcyS8yQNIcCyTJNKf5egZOJOMf6t1/MGHkgadvt4BqrweY23STFLkkFQ6fB85iEq2hAudWX4Vuxj6ZPPINSvLv6tsegmYc2SSNGMWQQwGLZRinZ/VfI8hiSDRVCxinMb5onI3SBVfjlQ178LNf/R2mqW5EZc9EQkEJMouZ4HPLwiPeu7lBkohcZIbywBk/500njJVDkp8EC2XxqhEett7WgtTiLqQVdSIurxxx2TMw4Tg31qxdjwA88PkOIOgPiRfXuPRuaMaWQ1s4fB52JABnrJYrh7B4yN4J+dHd0y/Xun3lHcL112TPQ2ZxhySSGUJLL2xDgrEKaYWRd1BHGsA/2dED+7nzEWNqkR1TJncM1lrweqebh5+DiQSoLGwjgM9t/+Fndmi9OGnaclm8h7KPSN//XXhfBfAjCOD6yW2INtQhLrcWY53VePTpN5Qk/IFu4eD29ypp+ACTg75B8Sgf/O0/BCzJ5SWQHWqECqhFvvHDn2GBQ7KxEjOarkc3U/7c6/sH0TMINC27FXF5ZVIyTe+bXrhSFVojIRQCOVks6eRXG5sQl0+gLsXJVZdh9OQaaMYy1FMroRMWj5Ctwe+QCjiWYLPsOQKAx+ZVfgrgPObw+YUBPNFYgcwi0hJbEZXrRrypGanFndDZ6xFlKEd1400YQAhe3wGE/AMYDAzg7kfWImZ8lVDnwtfhyz5GAvBA0ANS2hQKngfe/gPwDCpx/n37BnB+7Y1INZUpMgmOFmGEpBS1HQyJROYpf10AHmtuFQBn2fvXCeCUHIiZWIt5HTf+G8ADAWzZowB4JPv4svP6bfqcCuBHEMBj7U1y07KYpbx1Nfb3E0RJu1LCGQ88/hKefuY1eck/cEAYKTu6gzi/8nKhpDGUEAbxMLjx8fMaoGyDDeW4pP4a7GcGEz4ppjjgAZZe83PE55eL50yvVilFZ1m/UgTCGDgLc5jdT7V3SIw1udANzfgLEWWoRPrkRVL+T9BnyIcyAPTaGULhZ+mJRwLwsAfO/xc+T54bz1vO06KURPNG1xY0ItHaBq29DbHWZmjMdch21OC9TbvEC0dgAB7ffvz55Y04ytGpVE0Oc24jATjZPAEWpPi98HF3w38hoGc3d1Q+vL7OiwsqLkfUMefL4pY+pUu0U7gAUdog0jweaQDfur0btnM6/8MDJ+OGfHou/pyTIzv+O4Bv3duHk6ev+NQDP6x9DHN+I13/kfC+CuBH0AioK0EBq1GmEjz5h7cl9u2ht03aaw9w0qxLcVH5KvQJPcSHgLdbEpx3P/pXpObNkuRRGMRpxOHxeQ2LBS3xeWU4reR72CXefkCKYkjHe/A3L4kHTs4sPWfhOx8ModCLpgeeUFAj+i2jJnchc8oCEbKigNCYE5iArBKgZtKToM2wC4Gbg0D+eQA8HOPkeYXj3jy38HMmApNtTIg2HswltAu4aB0tiHe24GiLG7989hUEQn4EPQfAkpEXXtkI4ykrvhIxq8gAzoXYjyBC2LB1F9Zv7VbYFKx07N8rycYXXlmP02cthebo80S3hbzsOGPN59Jq+boA/NAYeBjAv44Y+FAeOAE8kn183vvg2/z/VAA/ggCe6KgTT3pa5Q+wY6dShOAd6BEa3tNPvynb/DRLGX7/wkeK9xbcB6+vDx9sGsDp01YpZdEml3hBYfDm4+c1yASLosqXdVwdXn93738kMd/buBP5Z61AVNZciX3Tiw6HQAjgBGbRcJnSAc34EqUwxszy7BbE5JSLSBUFuijWxdJ1DhZP8LP05qkBw2ONFAOnh8f/91kPnOdIpb0UZ7uwKVIMLqQU1AinnTFz7gKOKWrFvb95QWH1kBMe8uDlv2+B5bTliMqf87mv0+GuZ0QAJxXGG2AuGs+vfQeVTd/Dus1K1aqvfz98PbvEI//N8+/CfnYnYnJKkexoU3Y1ZJhEsL2vC8AZAydziDHwMID/Lz3wcAiFO7Sh7CPS9fsuvK8CeISbaDhGkFxYD132DDz45NvidYsWBHzoGwCq3JdDk9MAzcS5aFx6F7xEAeyD379fKtSuv+MvQwL4oYB3uGOMszUhZUobNOMuwGO/fVMBcL8Hvv4DUml52c/eEaU/et8MhYRj4KQC0oOmV00gH13UJhKeTGaSYzvG0QhSztIdZHwoVY/0kumJ83Ph7/s8AM5jP1wSU+vskCSwzuASadSjbXXIsNQis7BR2BKUQX38L28p1Xz+APx9+/D2u/thOXURogtmRQTIw1238OuRARzAoB++ILDmzY2YaLsAZe7LsX2npKqB4C4QyJl++Mmv38OYyS2Iya3B6OIuJBki89SPNIB/Non5dcfA/2sS85AYeDjEdjj7CM/Td/lRBfBhAHhiYRNijNUi+Ukt5CRzFTKcdeIl0iONMbtx0pxLQXorSN+jtkcQ+P0L28WbTLFXS/FBWlE1nn97r1DhREzI58eurftgPrUDSbmlUo3H34mzVSHRXgNtnhsZxoURAUpjd4n2N+U6L664BvsHIEJBIW8v4PfhQIDJzFtEnVBvbkeScxWi8kglbECKuRTJ1hKkWSsw2t4AcqH5PTwv6p8kOiJ7kKwg1IytQP2SW5UE6gB/9wDW9+yHYzqLhcpEIpWcZYZmWHxDznR4ZDi6JIHKsnguLpRXpfY3H/n3eOcsbNjrw2CwFz6PwuR54o/vYmyhW6h7w72xIwE4l1zqc/Dfy69vQe4JDFmVoGrpvaCCDAI98HZvV0ruA8DqO36DsY4yJJhd0JjJ8qlBur1BFsV0C/VblFBWWnEzEqzU5x4+D5y7QGqIkwe+YNV9IiZGHjhZO/u39+H4UxpAne4U8yKkm5qRaazGKGMjMoz8u37IQZ0fzhV5+jrqvTs7hP/OmgJq20e6/ocLoXw2Bq4C+OEZVSqADwPAqTLIGDfDBZQYzXAoXqiEFSislD8bN973F/HQRN3P0wdqBrWsekD0tSmcT31wnakES254DB7mwUQFLoiQN4iVN/4W6QUloDQqCzkSHCzocAufOK0gcqm2liJa+dUK/zh3Ju59fI2EG3wCpD709A9gbx/Qfum9iB43A3F5dUgr6hKPOMlKSU6FHhifX4EkkxtHT+lUQii5VWD1ZaQbNLmwHVGTqlE5/yaEuHJ5qMPixcb9B+C4mPK6ShydMfNw3J1eP5+L959bJUUv5NLH5lRJPD61qA3RBVXQ5JWjYdFq9JAZGeiRUuxAALjn4b8hbtJMab4Q6fgivR8RwCmsNcDYuwLghpPaoRk3B9knNWPhtQ8ixLJCRshZOLXvgMTEl13zEBJyZ4q2OHdRcflVck3Z8IOL46jiNkTnliK1uPGIA/imT/ah6GzmHOoRZ2lDnLEKenOpJLaZME60cSE8/Eh3KgsMFySKpRHMqZ6YOZkMJMr7Hh54+J4K4ENfn0jXj++rAB7ByIa6iCkMLzDeayaFrkmKV/TmFik6YfOEyec1Y9MeamxTu0fREVnz6mbRtY421CgJOmeLeJSGk9x4b30PNZpEd4QMh7Xv70f+cTXQZpch3TlfyoW1DCEwOWqMPPnJDgVkjzp2EaInzMYJMxbixdfXS1w20Muaao/Id5L5suiqnyPZME1K+ZlEJBMhqqBeob4Vt8iNHF9QKQlGam0oi9TQx0Ad8uisGlQvuFkJc/RTSzaAjbv64DxvCeJzq5XQjE2pIGTlIAWkwt1XMu1uWRTZ0Yg6JEcdtxJ6Rzs0uWUYdVInXvvHBjkXhA7A7+mRhbJuwV1IKqhCnHTvGfr4hppbvhcJwAncVFUMhQJ44bWNKDhlAaIn1Yoy4TH2Utz7y/+TXQ9BPDiwTwSYuhk+67oVLPLirmP0cQuUpgsWqju2Kk0y7KSPVh5xAH9/xyDs57VCY3QjrnA+EovZJMMtnW1iba2IdzQOOdh0IdFQD6o2cpdEMSkW53CRZaONSNdXBfDh2SevrwrgwwDw0aYGZJpc0vkJXbwAACAASURBVJ2FsV9tQQtSHIuQUdglJeq33Pm4wvv2HYCnv1s8sNYVd0vpuZagaGpBmqMTKZZ6RB99Lm7+2TMYYD1I0I+QrwcHgkDz0h9BO2EmUlmKb26W7TeZI6mfQ22NsqdsjUUwTna2IHriJZhR9wNs3K4IWXn37RAQZ+zmgBd48HevwHhaHTTjp0uDgpTJi5Fga0UswxvOOiRSLJ9dYsx1GOOMvAMQcf38OtQuuV08/2APO0dABJimnLtUGlzIgsf2Y5ZWGWy9Ju3XLNS3YEMDUhIZg29HbFYtNGMuRN5pTVh559MHpQH64R+UgAXe2zCAnMlssVYnXVsiAUik9yMCeIhCfuSGBg8C+CLoTV1IKmhBal45xhaX4/d/2wAvHXHfPoQGdiIUCGLHfmCW6/vQZM+Whg1aC0XHlGYQ8YZajD2+E7qC0iMO4B9tAwrP6YJmzAxoxlcgKqsUUeNnQDNpLjRZFdBkVQ45tOPd0E90QTehArpJ5UjMqUFMdi3iDK1IcS5VAXwY2BLJNsPvqwA+jIt8lKkZaYZqZDgP6kWwd6SpEzpDDQrOmo+tm/aIjCbpgfz3+r/2Y9JkN2ILKqGd2gKtOQzgjdJu7PiLFuG9LRTIBwKevQjAj7+9sRl5k+uRmEt+NbuOkOFRK1Kh4Uk83KNoW7CVGXsjOtqFy51uKsWcuu/jjfd2STye6oCe3r0So6ZG0p/Wfozzqq9FYn4ZYnKrkD65A1pHAzSmSiRNbkKys0HU3zLIPIlw7VgUohlbirntBws1Dub2tm47gMmnt4tGepzRJd4aHymjS8+Ng8+jrRWINVVKmEFzzEykZs/CWTMX456Hn0Ev5U49AfgOdEvxDNMMK2/4FfR5ZSAI6ouGr0YXCcAZRw4Mkp/px8tvbUHuyfOlz2OqbSFSqd8yaQ6c53cpux74ERigiJhHCrY+3tyPMyt+IG3tyMfPmNyFOPa3tDRJBWyq5ch74Js39aJz+Y9wfvkVuLjqOsyo/D5mlH8P02uuxAWuqzGj5rohx8Xl12Nm9Q24pOIKzKi+EqXtt8J53jJoxnFhaotsH4cp5FFj4J/fM1cBPAIIDQVSGYZWpFlcSHFWIc5cjYziJYiaWAN2rVl1yxPiIXr7CN5Kt5LlVz2O2LFzhRoXY1caB5OWR9W70Y4WaI65CLc/8gr6Wfbu70UwpPDCyxtXQzepVMIWbLLL2Ds9/qGOje9RgU7i88X0ZpuR4pwvIYu4CefjjHlLsObVjSLTiiBdyUEMHtgnYYjN+4DaRT9CpqkEcZOmSx9GJmzZ2SXB6hbNlGRD5BgndwqkEVYsvE2YGOgn7c6HTZu2oKb5ehFSYim347wuKShhUQmfh/82nNMG07ntOLvy+2hb9TP87JE1eP+jXfB6GJPyI9SrNKLg5frVc+8i+/hGqShkd56vQoogEoBze6UAuA8vvbUBWSc3IyqvAXprJ5ILXNBaWhGTPQfF5zbhg809Sh3AwUpN/vHXN3fg7DlLoDn6HGn+nF68QHZL0tTaVHXEPXCqb+3evRv7B33o9YTQ2z2IgZ5B9PR7sKOvD93dniHHnj5g/0AAe3t7sKu3G/v8wOoH/oRkywxJtkeyTzWEEvkejnQNVQD/HEB4uIuYWtApjA3qfcex4/fkRYgZV4op57bijY93KJXrAwcQgg+vvL0JtpPnQ5dFrZFOxJmrEMvGruYaJOZVItPRAc0xc3BW+TX417p9IrIfHNwuN/0Tf/oAE4vqkGypllJn0vMkrBDh2CkoxSRriqNOPNpES4fosrBfoCbrQljPmo8n/2+jom5HMf8AGyX4cKDXI9Kzt/3sz7Cd6oZm7IXImNKJ5OIuxLJRgNUl7JTDXZfw69RHiZpQhfKFt8v3BRgfIgMGAxLvX7e1Bxu298n4+JMD4Ni4o//Tv7fsCeKjrb3Y2ROCl5gt+xh2e+tFHznWQYCh/L+8uQEnzFwi/PT4ghZkTF6I6NySiAtc+DgP9xgRwCmF4h0QXe4X3ngf2ac0SCNeioixOz17ZFKGVpc/R6pr1+3kngqyY5CcSBB46g9/R/GZjdJViBok7H/JCliymo40C8W3f6coE9I+ETrYLIMt9UKD8FO1J8TnQwz4RYgN2I9QgDtG4Oe/WoP4Ced/rhyJCuAqgA/7Jj3czft5Xk+1LJYGAjH2EsQ72di2CfrsctQvvFnxOEnbGxhAAEHccMdjSBw3C+kFC5FsbpNkUVKRG5mFbqSxkpHdXmztiB5/MZ74wz+UHoXYC8+AH4Mh4KQZ30NGYQ1i80tEbjbZ2hnx3OkJkuVAkXt67GMmr0BcfocUyCROboAmrwpji6pw8x2/RqgvAPh6AWqFhzzwBbwievXUs+/j2ItXQXPMbGjtB0Gcx2Arjfj7KRY3oidWo7TrNgFwrhTB3p3webcr2hfs5BLkosF2Xn1KZ5dD/2YDTXbfYW9EXx8C3gMI+Afg81MBhW2/gKf/8iqKz6uEZsK5SJ+yEDrLAskVsDv755nDof5PRACn6z8wKGqIL771PnJPr4emoEpCTnpLGZJs85HAhrvGOuhyZ6O8Y7XEv2Xl8bMhBfs+Ag899QbGFTPkUobUwvnSDJrFUEcawAWjAzwFPwbYVYQVwZSp7/Ognzscj2/IEegPwN/bIwt/WJztvgdfRfSouUgzXRrx+qsArgJ4RCMZ6gYd9nvGEmiN5ZJ1p4Yy2Q+T7HPw3rr90lcQ/t3CUNiyDzCf3i7NAMZQ6J/NjfOakWmuQrqVHNoG6JzN0k17lLMEZ83pwl4p6PPLFp030p+efxtx48+TLTZjpV9Fy7CkwgahjlE0qqzrp/jnZiUv6GH/wsHNgG+/JOje+Wg3TrykE4l5cwSM0osXgt48Pfw0ext0BVyAFB0ULhRhbRQ2Q4ieWImqpXeICqNw3Ad3wDO4RQCciVrywvkY9HbLI0IE9T7lOVuvefsR6iN/nO3V/t0T85//3IB5S57EuBMWSvKNpf8iwGVy/busP8IOJdL8RwJwsgSVVnNe/O319Sg4tRWxlLK1M/5bLVWNbDaQVLQQccYmxGeXoPPS+wW34QuQbiQLE3cWd9z3DMbbaiVRS1uIKarBKKdSeZpqbMEoSwcSjr4ELYuVhPAA8yoR9MCTTPUgD5x64Al5Ff+hBy79RX29GNwfEm11stmZR2ArPa5LxHI+DjVkPiQDILgPEip/8vgrIh3BzlORrq8K4CqARzSSSEY0nPczbAQLVhK2CqdVmzMLzct+jG7eDcIR7hHv+Ypbf4lUM5sXNCAmrxFJplZk2DuRZuYENiscXHsHYs1KAivneDce/P0HorEh3mcwKM1rp7mvRVTOPGGI6E3Nwz53ndUlDQOoRpiQPVM0O37/l3dkK8zbOTjQLYwYbvvX7w5hZsN1SLWUIyq7SgkPmBukyIj8ZcbyWXqviFm5JKYbkztXYuC1K+4SAFc63zOE0oddPUrrQ+IYBznwHGyHSMe0pxfoYavFINDjAbbuAda8vhU3/+xplLX8AIYpM+W3yJxgtSj505IXsLCilPrmkQEk0twPF8CZf4gx1EDHhW7yAtGeGWefi6tvflTCVlQvZJytt1ehQC77wWPIIMc9ay70UxoRZ6DcLqV9u6DNq0fMURegddmdwlSS+NwwAXzb+r3oXHgXzpxzFc4svxTnVa7AuXNW4dy5V+DUuUtw7txLhxznz74C58xeiTNnLcbJMxbgvJqrYT1nKTRHzUWKheGjoQFKBfChr0+k68f31Rh4BCMb6iKSTpfhVORWdYYqHFM4D8/9/WMBQNLLCHybdvlhO61G2Aak4FGghx4qvV52jY/LrUZUvlu6omhyXIjOLoPmqAtxQcUPMTjApr/s/D0o33nnIy8gIWeaiDul2IbfMorFMvSc6c0n5JdDmzUdzrMacfsDz0CEE+lh+gPSOZxe4sfb+jGr8VrE5sxFkkNpsCAFN8Za4cETvDnCRTn0QhNyXXAtv0u8OwnTBPzYu3cvrr/tN2hfeT/mf+9BLLj8YXRd9pA859+ty+9D/cKf4Iyy7+HUeZfCenY7xk2tRYajXApN9JYKJJhKZcEgZTBc+EMtFh4PpQBkIRnG3HLehwvgmc42xOXXIN5cJ2GVRLsLmqPPQlZxOX784N/FPtiZXfF3g9h/AGhbcS/SzOXC9kkupFJgEyj3mmRvRez4i9C4WOlKz87uw/XAN+8IwXZqJzRjZkFjrEB07lzETaxCQn69dEKKy6nDUCM+rx2xOU2IzauVRSeKDCBzHRLMLcg4Vg2hDIUdX9V7KoAP4yaPz3NhVOFC6PIboM+ZjdL2a7FXen354e3bh95eP55b8xbOndWOU2YswCmzVwogsaDmpBnzcdqsRThl9nKcPPd7OHHuFThx1mU4fe4VmHJWu1C6tm7ei8CgX4pFGD/414adOHXWImkUrDMOnyaXWMCej0rX+jRnq4hQaY45H1nHu7DylqeFv+wlTgz2CgWOya4Nu/04vexK8Q7D+in04LkTIZASOOkJE0hTHC7ETKpC+YJwSzVlv71u/S6cdP5ixE6aDW1uCfSGchlJBRXg0OWVIi5rjjREoLgSKwTZWo19D9lvMtrYAK2zXVQPCeBhRcRwGIW/z+fDvUmGDeA2ikQ1CPVTYyxHYhH53o2Izp6HcVPb8eu/vIleZv7gwWDPJ8Ks2dMDzHDfgPhJcxBnYTPjBdAUNCJ5cjvisqejdv6NQkP09Sg5g6FaqkUKoazbfQCm0+sRRYrocc3SV5O7ROZi2NKPUghDjVhrF+LsHdAWNksDDZF6YLWws1Eoq5Guv+qBqx74sG/SSEY21PvUys50LoAux4XxhRX47Rp2fQ8qPQcZvw0Ce7bvw7p1O7B+0wGs29SHDdsGsH5bDz7Z04eNn+zEhm17sGFHD9Zt3Y+PtnRLkctHG3ZL1+3dO3rg9wbA/pk+b59Q/n5039NImDQNOnLCh7H4yGdN9cIWYPI13twgDBNW0pHGxnj+0qsfVioJ6Yn37wAC3SCDb82/9iLv5Hqloayd3rciJ0AQF0AtcMv3smpU1AgX3ireJuhs+oDNOwZw7PnLpSkD6ZdaamrY3RKvZVyefRz5GhtKkEWT6mgCF5jMqfOFgslO62zATI+bI7xoELgZxuFgef5wr89wAVyf75Kip/SiRimCimXLMvYdtbVCk+uG6bQavPTOTvSyryb64O/fSYkafLgpiHPmXA5y35OcbbJYsZhKM+kS1C2+DWyCLXGUYYZQNu/Zi+LzGkFNk9TJTSIQNtregVRLGxIs1bIAcxE+3Ii3u8BBRhU1epgsZ96DlNhUU+QFVAVwFcCHfZMO6yZ3KM1gk3KqcEnVlej2A97gfgQ8+6XIBIMHAPJ+ecNRbZDy0YNkHniFeqakfljdQqZFv7AslFQSNUMGRNxKikX8XqnkRCiIdz7cBcvpTdK0dljHTp64XfEQmWhjp5g4ClaxfZq9TUqk47Ono+OK+yWR5Rtgp5kBaToxEATufPBpJJrLEZc/F+yHKe3XpCtP06fSs9THYCm9a/HtSlz9ACsxg9i8ZwBTL1mFGGOliDYRvAnYAtoOVnzWCaATDChTkGSqBUNUyWZqzjQKKGY4msXLzyxqlZAJF45DwZw7gOFen2EDuLFGNHJIFU111kvpfExBrcgBkNGTaJgD6xnNePvjXqFIMnkcYpefELD2tZ04ftoyaI45T6pvk4pJM70IzcvvxiAzi19BCGXL9gOYemYntNkMfbUgpaAZY8wLkZrfIQwYsoiGGmzBx0VTb3QJYEsHqLxGsD7iKMuCiNdfBXAVwCMayXBv4qE+n+isFu7xxOI23PerfyjZe88OCHCTGefrRzDAVlt98PX1IeTxKO23gj7xqBXlwUGEvP3Cj/YPdAuIh0KkypF54YHX65Xya/gZy/DLR1bc+CvEm8uGfe4EvDT2vrS5FU66sxHplJI1NSHFoNAMRxfW4Hs3/lJAZYBZRZ90n8CuXbtwpvtWRGVPF+EitldjbJ+eb7pDYaeIGuH4KlQvYNyWYlY+UBjm4z09cFy0SASxwnrPvM7h5+S58+9UJ4tiXJ/qi+sPAiI1aCglEA6dELw5CCaMfzOU801IYtIjZc9RXheCHK8LG1SwyTErT0VlL68CF1Veh43c4DAaPsiq2CAG+4L49bNvo+jsBgkzschHM24m3IvvkrkQPv0wPfBN2/tx/LlLoM1vRqpzocg1pBk6kSKSEC4l/HNQ611CQZ95Tt0ajgx7u9QxMDFPXRTK/6bZIu+AVABXAXzYIDYUQEd6T+csF2bBcRdfid0DdC4HEQruBCvcyMPykquscEmkBGVQdGWVghQJfZIWx0wn/zhIkQsGg/InX2ZBBd+gGBY8foS6u+X/vfLxADKOH37XdQJlgrkGWlst9IUuUTpk+IQyomPMzYhxdEjs+SjrPDzy5KvKcZL3LE2Ye3HTk+ugNc4TL3z0FApOKeEMdgJiQ+VEWztisurQsOTH8HMB8gwKx/zDPXvgnLEIcdk10Bc0IJVCTmZKmjbL8zRrqzxPtDchzuRGWnG7Anr5NeJ1h5OWEiY5yDphzJuAzkWJz78JSUy9rVIKeqhUyZACBcgIePRcGbag4p/e0Az9pDJUta3G3oEgguiDb2CvLNa0gZ899lccZa+BZkKliH9Vzb9TCUf5Dww7ifnRtl0oOq8dFF5LcLSAIS8BZVIPHbNEMpiywYcbVN+kJC5DZ8n2OqHBJhVWIcE+D/rieRHvTRXAVQCPaCSRQHio9xnfZkNf8T4OymomOeple8++htGOBmlY/LPH/iKJKM/eXuHEEY8v/f7DmLfwJ8MaZZ0PYEbjHbj7sVeUEARDMr4+uYG7vn8XNNnTROwpvqANSbYFSHI0I9FSJTFpcrMZx053VgvI0rtNsy+CNk/xlvQFkQtx0ljVWNwEzaRpMJ3eKbFZVmrCR/AAPt64HSeetxjRY+ukaIWxcBYl0RNOLlJCGJpxZahaEk5isqmyH1v29OPYCxZ/2vPwf6X3zGsSnn8+Dw++xsVtuCGU8Hcf7pEhrGQLe082ISarBG2XPQoKNook5YEt8DC5CeDO+59BStZ0aI6ehdqlD6GfCzp3QhE8cKo7Mp9AHjj1wLtW3gsfq0dZNBUEDu2J+d868hzuuL+q11UAVwH80xvwqzKq//ie8JaRN7rNLV4GJUCpf8xtsCanFCfPvhrvbSbxm+BE2h/w/EvvIcc5D4mGkiEHQXSoQb2R+KwZQu37aNN+5camfCmAF9/YiMziCgHrmBx6QF1SEMSyeW1BlWxhRdrTWY84UymOOWkRNEeXC4gzxj26OHKMOKWgEUnOOiRYa0Tc6pZ7npWdBBtCUPbWEwiiuv1HSJhUL9x0hlEI4Fw84pgIJU/1GwzgTI7yGMNAzoWEg69RUvdIAzjj+XQOUtlmzeTC2MJKXHPbr0Bdc+ZJ+v17peKUG7erbvkjNJlnwLX4p+inax5UAfw/7tXhJvRH6OdVGuEQE8eGCxRkYhw2bCwSwzQ3iteUml+Fm3/+nMS++3p7EAgckM7z7gV3I27cBeJd0cP6soM3N7fburxpuOeRv0jsJcjf8XixtyeA2R2rkVQwV/oZUi+bFZ1kPLABQ4ajFbF8ragJWmetiG0l2dsxevJSJBTUIUGKRCJ4AOYGaSKhK2oRNslFJVdi0BNEINAHr9cv3eAZH2enHioessPQaDZEZvjEroDjNx3Aw163wnRR4rYEb75+pAE8+SBbhmymFHszNOMvwfiiebjnkeeFN+/17VGkcoPA/h6gsuV6zKu/THZg3gNUNuzHUDRC1QOPYN9D3Pvh+/2b/qgC+BCTmGgtQ1qRSwSk5EY31SOzsFMKaRLya3Hs6Yuw7pM94hEHfIxde/D83zfjaFsbku21oDjRcAaLN9jVJsFYiTPmLsfWbWS0sKTcLwyVp9Z8hFHmGRjjbEaCgXxj6n4z/luLdFIDHV2IMtcgwV6KuILZEqPWFTQio6hTdL0jGSe90QRnHaKlpdl8OE5uA5kL3G0M+LwIoBe3/eJZMKkoVZ3WclFA1JsapREEv/+bDOA8vjBYE8AZNtGRmkhtGkfTEQdwct6li5OlSXYwY6Z2QjP+IuScUIOH/sxG1x707/kEYMPmAPDuBzvwyK+fg1fK8KlBogJ4JBv+tr+vAvgQAK53ViCFehQ2t1DjdAX1GF3UAX1+FRLzK3DjD3+HEPzweNnSi6KxISy97kloxroRbamVpBATQ192kIanMdRLd5lk4zw8+uu/S4iGycBgf6/0tJxe/T3oJs6SHQFV8NjSSopojPWibBeVOwMTTipH+bI7MdpZDl1eOY45fgHYLSeScRPE4h1uxJJuaOmA+bjGTwG83+sRAP/RA8+NaADXGmuRUFAjoM3rEQ6nfC0ATv60qQajJivNHFKcnfL7pAuaz1+KF19+S5nv3m6QhUQngWxUL1W8ApGTmKoHrnrgEW/ySCAwkt/XO6rB8meGTdLsHcKYyLQ1IT5rFqznLsK2LZT/8WFwcLckGdf+czsKTuyQzjwxLGoh+A9jsOFtnKUZcfb50GSVYl799di7h0lEvySxGAv/5e9eReL4ixQtEmsTmFxlEjGV8eusmaicfwv+uPZ9UJV81Y2PI378hYjOLkFKcUvEuWWn+ThbLVKO7YRm9GyccsEiDAwGRH1vcJAeuAeXr34CutwaCaGwD+IoxpGtLdLDk3P/TffA6XGzvyeBnMcb9sS/jhh4MouXKBtLBkgBQ1/1sjviToB6KMdf2IkPN1KtkWylAen+Q1opX/D07lc98CGcr5GMO1/k2FUPfAgj0NnZrFXR3qYELAsVUgoqkWKYiVU/elpi0gP9vfAF90hccsWVv0bcMSVSPchSZKXQgayMLzcyTOVSeRjrWAhNnhujTHPxy6deUm5oskH8g9izHziv9Cqh0LEPJAGcnGjyuO974BX00Vk7yFR8f0OPdF9hmbrW9m8GxuEMhuers9VKlZ5m7DSsuuZh2WmQCeNjLByAu+tOaLMaJARADWwmMSmfGm9R8gbfZACn580wkXDfST0kl5xa67aGryWJyYIldlhKKHCBYSfRb7e2CF88w9kGzaQKXFJ7A9at36uwToIe+Hwe+DxeYfOoIZRvv4d9uHsz/LoK4EMCeD2SHW3Qm9uhM7Qgg+XrhlKMKy7FXz8WNX8BcU9gNz7ZtxsFLPfOb0fGZBdi6bke5DZ/2cfR5lJROUwoWgqdcyHiJ0xDU+d18HpCCHo9gFfps3nXI29JG6sEezO0VkVWVZ/rxk3XPoAgw+b95BX3SgHII79/DxOOb5XO7mEjONxjhqlNKghjjSUYP9mFF9ZuFXYEuwWRdLNl216cdvEKxIyrFxphuFenaJIUf/OTmNzVZBa3YdKpyzB6Sod44fTGw0B+pJOYLKtnhyMmMNnIOd3cgmRDA2KzK0EhrFjHpdAcPQ3zl9wkDCc2smCne0rBUiNHBXAVwFUAHwLARxXUIpMcWksNdIUdovOcmDMdi65cDU+IZfK8kULC1b309icRnT1d9LqZTGT45XDA+HlfP8qyCIkUcbKWIGVqIzTZVRhlqcYzr61HP8vv/YPijW/Z6sWpF69AVFYtEh1LoDM0IdNQhbEnuPG7tZskyQoWhwyQlgas/sWzSHOWSj9PaSZR1IZYS4PE2tlRnE2WR9sbEWtdhJh8FxKyz8HVtz0AL4GDWq8kK3uBW36zATpTCWLz5kg5PZOnLKBhroDMGxY6RU2ag4YlNys6sZQ49AIbt+zC8RculGYTDFWEr0cYOMNUvvDrX/aReinsPkTNdu6CUqxtSLHNB8vZdUU1mFt3Ax79wyvYtr8PL/ztn+hY8lNMKuxEdG4TYp1dYEHS6MlsR1eOOFOlhDpI/cswl+HS2/+EAfQhwMIbePHimx8j+0QKb9WAzapTqCA4hG19nvdizPXInNyCuHEXYdEVD4gkOsMpQcrQ+rqlSndHN3DCtFXQ5FRA62yVVnLxudU4xtqBVEOznH+c1Q2toQIdl/0U3dTUwV544cPW3YDz1Bok5c1UrpOZjKlW6HOrMVrK41kif/gh+jVFDdAYyxBX6ILGWo54pwtJhfWipRLpHKWTVW4pKtuvUTSFqSrR58OO3Qdw8rSlR9w+Ih3fSHhfBfAhbrL0gloBUIYbEmxt0lR4otOFF/62QSmnHISID72zcR+mXtwuVZmphV0SD9ZaIycJIxlIhomMl1owmcqO8Oxgr8spR8dld4Np0yDICR9kkSauuv1JofFpjC4RTKJOiWbcBSjrug0fbtwnSnfw9oGxaxaH3PjzP2Pi5AZEjZ0pcqDJzgUiWxpjaBCaIcMw8Xl1SMqdgyVX3Y890kU4CP9Bka7ebi/OabgdMbkzkWRVKg7JP2d1JBUOGQ6IsbslBu5aeoeEW9AXFADfvKcfUy5eLrFnAjhDFrwWXzWAcxFhD9EkW40SGrG2Q2tokNZ05zWtxl6plgX6PexX6QdbbC695hGkmEtFoIlhDS5KBHDy4ekpJ1LLJHcWlt/ye2l+QI+YAlTsL5p/SqPUCFBsi3IEkeY30vtCxbS5kWGvwQRnOa6+5UnRQQl6KZ6usIE2bhuA7ZQWaA0uxFtbpHKV+jCpBfVIMriVJtSOBiTkVWH+qgfEVqgqyYX8tY3A1GlLRZaBnYQ0+S7EO9tEEpbl/7GmmiGHNqsKSXk10OdVKolsg0uch6hJpNkui3j+8YUN0EyoQPWi2xT7oDTjQAC0j2OnrTzi9hHp+o+E91UAHwLAM9mjML8WbJLLXoWJOVWobLpDZElYDhfwKDrdN9/7O2izLxCPjY2N44310FuH74GzEws70KcWK4UxY6YsQ8KkamRPrsBL725DX6gf/lA/AoEAPtjci6yTaqEpKIf+uC5E2w7GoEedjhXXPSRc9QBzn4yfEvxDwC+fXY+Z9auRYapE1MQyEZ5iPJbCVEnWchx/znw8+QFh+wAAIABJREFU8tTr2N+jNBH2sISerBsAN93zqAB3vGEeMotZxl4lmh8sc6e+uJ7dYIoXQ5PdhMqld8pnJFEQAjZ0e+C4aNlhb9AwoA/3BtLmVwsAU+slwdKIVHuXgFrBSc146sX1koSlXg3BcGD/djm3D7bshe2sOqTaqpHOBdNYDa21QmQG2FyBpeaphhIlB8IkwEEphL+/uQum09oQbyLg/7sgaDjnwPJ0Xgvq1WjGT8eEyVW45+E1EgoLkU7q34vduwdx/DkLoMuuhdZM+dcG0ZChCFW6vUmKsKJNNYiZUIbOZb9QJHXYCq0P6B8EfvP0Wjz8h1fxiz++ifv/+DYefe5dPPLH1/DAky/gkaffGnL86ul38MTT/8Rvn3kbv/nTP/HAk2+g/fLHkc5dlSnyDkQ/eQk0492oWPJjcSrCjU9pH1NnXXbE7WM4c/NN+awK4EMAeBJviIJG0eKIyyvDMfZSPPPi+oOaIH3w+gewvduLM2Z1IdVIShj53wuF0pfujCynGckIGBclmKYUUSSfTY27kFrQjoTxM9B11SMKdjAWyo6/AaBz1b2IypqLBFsHooytSHZ0iE4Fwz6r71OKQ+h69e7cDgSUkvxPdnvx2z+/i1XXPoGSxpsxrfYqdF39czzw3FvY2+0F1RClse3gHvg9PejzAz///T9gPKMeCQVlYPWlFDuZ+fhvOVkmMhOM7dBMcKN8wS1gm1yWf4f8A1i/Zz8KL1goN2jY6+a1CD8naPF5pOsT6f1M0QV3gxK1MWxD51gAKkdOPqMZ+/qoFUbVSJaUUhCSVbR+9A4CFS23IGlSrQA4KZl6Ry3iTdVgwQ0LpNIKSrHi1qcV8GYzaD/wyuubYTi5ATGGCgHRQ0NDkY7zcO/rTZXS4Dje3IS0qYsRlVOC3BPc+PWz78jcs2Xfjm29OPvilUicVAOdsVlslcfKilzOR5ylAvGsScivwuJL71ds10v1S57zfqCfFb5sakyqi9ToA6E+IESeOZUzDz/YN9VHWYVQr9gIvfpfPPFXaCedpzT9GOrestYjNr8FmqOrMK/jRvSzqbKfKpwebO7uxfEzFQ88bBO8RuHnX5V9HO66j6TXVQAfwshSnPOlySypZTrDdJTNvwa9bJAjRtsj9/1dD/0JSdkXCT9ca+pAAoHT1iQqdMM1BNIBKXrESlCWW8fntSCDmieGahSc2okNW/Yr4O3zAb0+rN/oRd6xLmjzKzGqaL4I83PnwMYLrNj84T3PCU7JfTq4H77+zUCwhyek3NDKOgC2DPZQ2dy/D0APfH07lKbCAJ549j2YzuqCJrtUvpffzcpPPn5WXOooaysSxlagbvEtYD/2QB9/qw87ug/gxGmLhH8dvimPxA3KOH6y1SV6IGxXR8U9Arj1hFp8tImBJI/SBLI7CFmZ/AHs7w3JQhZ7TAUSC5pF2TC5kH1LSSdVlBrZvGPlbX8SDW+fZ490dF/75kcwnOZGdAHDLS2gjMGw599YKb8fZ2lDnG0BdI4OaI46H5PPa8dzr26T49+63YMTz16CtFzmHVqF1aJ3uKG11ggbiSJlKVObwcWgY/mPMejplabS/f17ERykuFgQfq8P/f39GBjok4bRrLRlX9JgwDf08AcQ8g4g1N8N9Cv6Kvc+tAZRo8/FqML2iOc/hg0rJlSjqvMGsY/QQC8C/fuxt38QJ89YcsTtY7jz8034vArgQwC41tyMWEM9orLm4ZipVXhq7Yeg6oknFIDf78ceL3Bu2UokZM2FjqJXjk6JQRJwqV093AkWjrCTMekaZBbPRyJpjFal92O8oRRX3Hi3hELIEeaNxODIwqsfQmLuRUgzzpWFREI/1mahGWZaytG28h5s3RnAwAD9JTYV3o8AO9H39wAeStgy0ziAQS8rTHvg8XRLvJRO6o8fegm5xzdJvFVnblfoigf7TzJ0EpZ05XMuPmMsLkSNng33kjvk2MTro4jSPo+IWfG8CODhpCWfh6/ZV+HBJpncSgiExVTWJqQ5FoBNFo62leH6u/+IwaAXASpH0vv0Dcqc/umlf2Hi1Ar5HJPB9MBJpUwpbEaKrV2pBTBX4cq7XmTXUBGcojP70tubUXBmCzS5JfJbbFUXPpcv+5huVdQVk+wd0OQ3I6VwoYRU4nNm4NS5l+PtdZ9gvw846aLLoc2qAamHLBpLLqwXkTN2tdc764QRxUW2/dJ7ZR4YBOMiLY2NpW3eIYqYdMJ5QoyxMTw0xKAF8V8oFPjURu5+/CXETTwHelN5xPPPNFYL7bas/cb/sI/d/cBxF/4bwI+YfQxx73/ZOfu6P6cC+BCTyJuWTYd5MxZevAqPvbARz72xHWte240XX9qHH97zPCYU1YLyp3EFjUgsPFh+zaRZQU1EA4402RTOor4JVduYGJTYstWFeHMV4kzlOH7OCvz+5Y3485q3seaNj/GHV7fhynv/hjFFLqQYy5FeqIBjorUZaUVd0IydiwxrJY69eBF+8Yd3sHHXAJP+0qJL2T0HFHoaoyYH72M2H/7rP7sxu+U26PLnSeVgTG6VdMhhnJvXhuESHh8FmWTXYGEcvUaaMSQWtOLCph/hD2s3Ys3aHXjp79tx729fh+2CKz8tnjlSNygTqYwjM4nJXZTe3CrqkvF5JbBcuADPvroe3T6ge2BAcOq1d7bjnNIrEJNTghhpHNEm58XrTVtg0wPO9VF2FyoW3oNn39yJNW98gr++vh0/fvgVGM5aggSLsugTPCPNb6T30yk7a6qVhDALyZIsrRg9ZYEkZjXHXIKqhTfhvj9sgO2cyxCXU6Wcq9Ml3neyswUZ1LIx10BDnrm1EyVtP8fTL2/E/732MZ6jDb/yEf76yjq8tPYDvPraerz08odY+8p6rFnzEV5euwkvrf1oyPF/az/A839/H8++8gGefWM9fvvKRiy++Qmk2NkOb1bE89cVVAo992zXTfjjK5vw8qu78ddXtuHBP72DwkuuPuL2Een6j4T3VQAfAsDZJorMAxFnYpjAMBPxR5+DxDEzMWZ8E0YbZiIltwJ6Y5t439HmSpAaleakFsnwb+DUya2IyqtCOimMRjYscCOtsA4xphIkOGqgMbQiJqcUaQWzEDv+PNFM0eTWIc7QjlTTQiRby6C3VEn4Jc7QjNFTl0scNzpnDqKzp8F+difmX/kQ7n7wL3j6mdfx1psb8eYbm/CXFz/Ar3/3Bm64+deYUXkVjqYedVY54k3N0uKLYZ0kS5lQBXltmOglgEsFqF3RiGZIJYqNDApXQEPpgYJpSDjqAujGngO9cSaiTQrvmjfJkQJwnaVFZBASzUrPTurApDsXQkclSdM8jDWXo2X5Hbjt3scxf+Vq2I5vRuy4WqQUXQ6NdRGSTO1SVMP2YlJwY2hApmM+tJNmYZRlNmLHzkLi2IuRfMz5SMubB82EcqQWLRKgz7BGVnuMBBB6UzVI8xxFGzTWS7MEOhSxxjroi9oRnXUOkk3lohM+anInonLmIGNqg3jhidZWjLYoOt0JdmrfLIc+pwnp2TMRlXEa0tiI2DAXmqwZ0GRNl/Z4momzEZ9fJQVEUVk10GTPHnKkHD0L+rGzED9uNuImMQnORHYzorMakOGMzEKJtbigcyyDhtx743Roj75Q7EObPw2xlvkqgA+BTWHbUQH8c1yk8MX6tj3G5VchOodt0bhItEhBS+6ZqzDuxEUK82FSiWh2M9TBcyfQ/jewHanXheXzMbkV0EycB82kEkmqhs/zq2LCjNRrox73yCgSUgH8OwzgjDNzUA+EIyzsRECPzauUv/n6obFp3tjhz4z0m1zCKpY6yTGE4/EEbpXlMDLAa6Tb31dx/CqAf4cBPMwACXvVBHAOAlgGi0HI6SaT45BCG34mPL4KA/xffgf51eHz4znyefhafCVJ1O+wbf0v5/W79NsqgH+HbzKCVhicafThvw99DN8Mh4I23w8DXfj9kfhIkOZ5HXru4fMIvx7+W31UvfJvog2oAP4dBnCCMIGKYRKCWRi4+ZyiTnwMg9yhgBb+f99Eg/4ixxQ+b57boYPfwXP8It+l/l8V4P8XNqAC+HcYwA8FrTBAE9QZWmBS87+BN/9fGNj/Fwb7Vf4mz/XQxSh8DQ597av8PfW7VJD/qm1ABfDvOICHDYrgRY807JWGX//s47cJwD8b4//suap/q4D7TbcBFcC/4wAe9jrpjYZHGMwPNd7w/+Nr9FD5fw99fyQ+P3QxCp9fOHTCXcZIPCf1mL9bi44K4N9hAFdv9u/Wza7O97dvvlUAVwFc9TRVG1BtYITagArgI3TiVG/q2+dNqXOqzukXtQEVwFUAV70v1QZUGxihNqAC+AiduC+6Uqv/X/XuVBv49tmACuAqgKvel2oDqg2MUBtQAXyETpzqTX37vCl1TtU5/aI2oAK4CuCq96XagGoDI9QGVAAfoRP3RVdq9f+r3p1qA98+G1ABXAVw1ftSbUC1gRFqAyqAj9CJU72pb583pc6pOqdf1AZUAFcBXPW+VBtQbWCE2oAK4CN04r7oSq3+f9W7U23g22cDKoCrAK56X6oNqDYwQm1ABfAROnGqN/Xt86bUOVXn9IvagArgKoCr3pdqA6oNjFAbUAF8hE7cF12p/xf/P6OwCSm2OiSy56bJhWRLI1JtzUixtiDZ0gy91aUMadNWD72lAXpLk4wkSyvinJVIKKyFrtCFRIcbWpsLWksttJZ/NyP+X5yX+puqp/xNsQEVwFUAP3Lel8WFZKsbqeyz6WgS8CaIJxrroDW4kGSuQLKlEqm2WqTZXTJSbW6kWPleDXSmBmUU1CPR2IBkUxNSLS1Is7Yjw9J+5I5btQn12o4QG1ABfIRM1Ddlxf9Cx2GpQ7K1HilswWZrkOfhvwnomdYOAeJ0cxvSTK1INf7nGG2fL++nmZqRYW5CpqUZo6xNSDe7kVJQo4KMarvfeRtQAVy9CY7YTaAz1kJvdn8K4vTGkywu6M18naNVRqKpBRx6cwsYOkmxtSPV3gG90YUkkxvJZhfomac6apDqqEKyrQJ6a+kRO+4vtEip9qPOw//QBlQA/x9e/G87UKRYmyTunSSeOEMp9Uh3NiC9sE5GgsMFrdMtMW5dUQ04EpwViLOXIdZegkRzIxJtjdDbm5DoaEC8rQ7xdhcSCt3QFatx2G+7/ajnF9nGVQBXAfyIeVBKwrJJPHDF865BorkSWmMpEgpKkEQv29YOnaUFWnMjEsx1kqBkolJnpdfdLiPZ2gatuQXxpmbEmFsRb+uAtrDriB23ChyRgUO9Rt+Ma6QCuArgRwwItYY6JJkbJIlJ71tvqUKiuVxCIOmFNRhlaMDognqMMdXhKDOHC2PMlRhtKscoYxmOtszFKNNsZJpKkGmuQKbdjTRbPejR/z97bwFlZ3l1j98k4z4TIdBSIDLuk2A/vrZAjVI0noy7x5AiDRpXIK5oS6EUKQ4hMhZ3GUsCEYhMRq6+du/+r33eGcr3rT9MVoeU0NWsPOvOzLVXnuc85+yzzz6+UbkX7bj/a5wuDeP03/vQ/X34rwH/rwG/aIYwNKEMHExcEvOOSC1A3O2P4q6Ja1E690OsefVj/O2DrajafQSNX1px1gV0eIAOAG1uD07bgcbTDtQcPIU3NxzC4lerMHXmq7ijYDaG3zH1oh33fw1H94bjv9fo0rhG/xEGPDAuHxxdkyqYjIeEQoQnTkJAdDFC4suFe0z6GtkQpLUxodY7Lg++/DmlDGHJZQiNL0ZYdCH6RZVgQHQpEn+ei9vGPYKSPy7D9Gdex0uvb8T66gOo3VGPzbW7UVW7G9V1e7C5Zhc+27QNm6p3YuuOg/jwk2osWf4Cps18FRMKZiH5F8UYmJCO8NhcBCeUwi+uAl5xkxAQWwD/GPO4Q5IKEBifg6CEXIQk5SIgPl0MX0RSCQKHZiIoMgchcUVyLuGp98M/bsrX59t13t/3I3nXAYn0dDMQEp8pIyg+S47RJyYLveLHwTcpD0HJ5fCNJtxxP8ITp8B3cD7CE5mYzMawOx9D0SNrseLPH2HfwaPwODRAcwNOFXDjfw8PgG8OuOHxGDAMDR63CkAHoAFuBTBc2HS0GUvfWY/0B59F7G+nmpzz+BIEpJSjT1whApLy4R9fCN+YYgTFVSI0cSKCYovhH22eC+dAWBIZMvmCzzNKINTz9ehmc/eOr0BIYhECo8YhOCEbfsll8EmdCJ/YQoTEZMMnYdJ3jv7xkxA0tAj9UybBZ3AGLru2XCAmflZEcj4imDuILYRvVD5844rgH5Mr3zX4xkLcdOcDmD5jOf7y6sfYtPkAqmsOo6a2Hlu2NuGjj3fghRfflXl7zbWj0C9lHHoNSUfEddPgFT0F3jEFCB2W0+38CUjLQUBqAQKTi+Q6cr7K+onPR2BMlvD1macITChFUGKZHCOP0y+pFL6JJfAeMgKXX5uLxN9Owj0Fs/Dw7FfxzKr38fHGQ9hU2yjrh2vo28acJa/jyQWv4t6cxxH/iyL0jZsA/6gM9Bs2UWC3PikF8EkphH9qscxDn7hshCYXoG8q73cOvIZOQFhSAfqnlSAsLhtBUZkIjM6WvExIYlm35/99r6eL8Xn/EQb8Wy9MZA76J5UjKJrc42JEpEyGT3QBLIMzEDqsDOHxkxESVYSAwRMQET0GSbcWIu/BhXjxH1XYcfQsWh2AUwdUA3C4AJcLgGHaEc2hQqMtoj1xm4+qCng85rBaNbg9gKID7U7g8xYDn24/jiefexM3j3oAAxLuEo9UYIW4bNCABySwWCUf/sklMgJi8xCWUiQGJiKlSBKA9GR5vl5R3S/Ab70u3RimrvcFxOVIoQ03ldDEfNlgaLj9Ewtk0wtNq4B3DItqihGeVIGI+AIEDxmN6F8Uo3jaS3hv/QHUH7PCbgAKAJpgPjrdgOIBeDn5+7cNZ+d7+L4u8y0m3AOobsDg5+rm55xoteL1D7eg8P5nkXxzBfpHpssi5mbdN2UiglkYNDRXDG7fYUXwSxgv15XGmhuNX1SmDBr0vqklphHv5jp5M7ogRTImUxwCn4RiWAZnIjwpB5cnjTWhH8I/3zL6xRYiPKYAva8ahwHDK+EbRe57rtxz/9hsBCeVwycmD+HJRQiNm4CEWyrwxMJ3sGN/G1QPYHdoX+93LsUNh1OH4YbMO/6uu4E2J/DGR7sxunge/K4agX6JLKTKhX/0yG4NWHBaPnzjc+AXX4iQ5AowF+ETmQfOy/7DysRQByWXwlc2xGxcMTwf/ePHIvXXEzH56b/hk21HcPC4TSIpp0e2XrS122H+c0PV8J2jw2GXLduuA5wLp6zAO5sbMOWpdUi8OUuuM3Mp/jHpYqi5uQTGFMAvukCOs991E2EZPAG9B4+TjToiyVxLnBOE9rrm+Y/58UdtwL/pdXfdhC5vnJPMP2oC+iYXSxFIWNIk8cCYKIu4rgy+CekI/ckduOWuRzB/5afY1dCGdk4ouKHCDpenBW5VgUdT4VEUGHYr3DYr4LQDDjtgs8LQ3NAUXR7dugcuhyLDQyPvAQylDR6tQ7xFepCGYUDVDFl4LW12PPvX7RgzcQl+diONyBgEJWQjbHg5/JPLYInMk8UbkFBgVh/GZ8M/NkM8c1LpAuPGX/QJSENGvjavqV9cAfwTuLGUiXflm1AmhjsiuRxhcbmIiB6HX497FItf/gR7jp6BjauUOxi9aGhQ3C7ocJsGHDCf5473zdG1I3Y+0lh3Da3LaLv/6aRD1wFDAzxOwHDIdxkeYN+hNqxauwG/Gj8bVyTnwH/waPTr9LR9Y7MRkJwDv+Qc8brpffdLKxUj6R+dJYabRly88G4MuG9SKULJZ6cRj+MGOwmXX1+JGSs34MONh7Gxpv47R/qUlxAcNR6XX1sJ35hCeMcwGpwIr+h8hKdNgnd8AfoNL8Y1N+Zh2vy/4dRZDyQQ4c7HHcyjwuNW4DZcMHQndM0BTbXL4M9i9Qw3bG0t4nxs2nIKfxg/EyFDx6D/sLxu50+vIeMRnFwsxxIQXwbfmBLwkcwg39hc+MRlITgpC6HxoxF5Uw4mTVuBrbtPweUEFDugOxymd+PWAEMFDCfU9jOAZgOc56GrxncOt9rK7R6qsw2aywrF5TDXFx0Al4HaPXY8MvMNpN5cjoghIxE0eBxCovMQlmhGW31oAxKKEJJajqCkEngPzZSK4PBE3q/uz7/LplzKj/+RBpzGmyMwrQi+5B4nlqHPNZxo+QiLG49+iSOQ8/ByNB87iTMtHVBUt3jRblWDZnfCcDpN10BvBzgMuxhhCd01BVA73XHDEONOA09XnI+ctOb7VXMCdxoot90Bw2YHXHy/BigqHDpgVYGmLzWseq0Ovxr7CIKG3A2/ISNx2fAShCVXICixQhaNX3wxAhML0XdYCfoPp4G5+Dzo0Jh8kwYYXwKv6EJ4x5XAP6kC3vFFCEgsRuDQ0RiYmIHb0p/G2je24VR7p5ftVuGBItGI6W11Qh9iUeiB0bzTu3J+53AbNE6ES+h/01BzKIDbBWh2wN1BK2HCMAbgNgAacH6bw+PG0fPAsr9swh+yHsfPhmfCf+hI+MdmCSXREpkluLzPUEJVJsWRRptGnN64wCndGHDvxHwEJeQhPK4QfkMK4B9VJMnW9zc3QqfNUlzfOaav+Az94sfCNzIdliG5CBn+ALzjygWS8BmaiZC4EUifugSHjndeS4aCqhPu9rOAaoNbsUNzdMjgz9Cc8KgO+Tsf9ZYO8zp52mC4OiSKuTtrFi5LLUKfC4jgCA8FJxQLndM/mmyicgTFF0lURpgvPOZ23DLmAaz9ex1auYfSy3bo8NgdANeJi1CZDuO8FbDxnpm3UaJYpw63wmP99mE4ee95Qxlu8b0MO7h+3IBLl2nAm221AR9uaMa44oUS7fgMGomI5EKBfhg99I7JB6OjsGGTZMMljEKn41I2zBd6bD9qA/7/d5JdHjgfvYeVwyelGPS6whMykHhzGZ5a8Bq+OK1B4YLnDq9bTSOgqIBdA6wGbYt4L26P82vPRtcU6DTw9Lhdbjo/0J02GC67DE5E6IoM/szn6CUYdBINDzRFlcXc9RrDZQMMG+Di95tuZYcd+KSqEYWTF+LK2D8gIjofAUOIfVcgNHkqfGLK4BXJhGAe+hKv7cbA9PR5ejO+Q7LhF1sCv8RyBA+bKDBPn8EjEZGYgd+MmYolr3yGo+cMEw4hlMQTFhPaiS0RX3J74NYNuN1u6LoOw6PDA7dAKS5CKd8Y34RT6Gh2DYFezNsihogm3YAGp6YKnN4FXQmmIJbCDL/5vqavbFj65/W4ecyjCIocA58h2bj8+ofE6+7Cu2m46XkTrrhQA078n3ouzJ0wz9I/bbJACFXbmuF2WOHRnd85Zq9dj6Chd8B7yHhceeuTsFydI3RK4rU/Tc3BkjVvwUmjx0vI6M/RBq2NHiwdCs410xN3izEj1scbYIYq/BufVztaZaNjHMSN5bKkLPSKKoBXyn3dzh8abyahmTcgFh8ez80qHZenZCD2VyXYULUL59o06IQKXVxQNLY6DDujTidA7INrpRNDM1weKA4PFJcZyHKT+a5BOEhVPLBbXebGwEXL3IlLMTcJVytgbzUjZAP4qtWDdzbVY0LlPIQM/bXATswnBCUVCNzTJ7YA3iwOY8SY8F8D3u0E6KkBudD3f9No8z2CSyYWwSsmUyCHAanj8OjCN3D8rFsibu7mHqvVBF+/thD0Fgh26/DYVLitTjFGqq5BUXWomkeGonok6meUr9htEFdL16A5HdBdToFdCL3Q+3LDgOFRoRkuqIYDqmGD7rZC1VvhUlsADvsZeDrOQO9og0eh0QPsdg+OHjmHEenTMSQ1BwHXjIF/VAGCEyeLISeeS+z+Qq/Pv/q6CHra0fkSwfjE5sM7cgLC4sZi+G3luP/pF3D0q3Y4aC86UwM0yvLPRE46DQ0TkOalbgfwhRv49HMFf959CisP2/7XWFVvxzfHy/vO4tVDrXj10Hm8su8MXtx9Eq8fPIf1p3XsVIBzmrnX8hbqUKBoLYDbaiY5HQ54PHZ44BLnjYZ891EbnnjmPSTdej98fzpKsG9638Rzuaj5M+EUYuKEVrq7boyI6KmHxHEzLUFwcimCo0egascRidI0TcF3jQfmvobLkschNLkQfSILEZxUiYj4LMTflI0NW4+bc+FcC60j4LDB4yI/R4Oq2OFUHKBBpCPxvzxb3gLmZhwGdKdhfj88+MoBXH/nVEmM+yZPgSVxUvfnl1CKkMQShCUUoX98NvpGj0DC/2Rh5tI3hC2kdrTJedJh0RxWiLfiNkBnx83Es+aS5LPGaMBwwe7sgEt1wmUo0GGYz/M13zL4Os1QobsVGITgNAcUpR260gZDZWTMNXQWhuOcQCycdtzTvjhjx/sbd+DaX5Wgf/S9CIwag9DUYokcCalEpJWI1k539/fH8PyP2gOnoeZFpgEXyIRZ+4RChCWXIDylFD9LGC0Z7D1N58UZUAh1eHTYvqIXYzreutMtC8HN3V1nDE6Xme61IgtA/q7Rg/SA2DaHrruhqrp41eLxuU0Pmx561/AYbmhOmwyDi013Clap6Q6omhWKTkydIa4LIEbo0aE67FCcLhiaDpXQixv4+z9qMbpoOvomp8Ny9WiEpJQhIrUCAVEXH8Pzj8yUkDN8WCWIh/ZLy8Ko4ln4y5ubBR6hd2T+M60GF5mqK3JJ6BHT3HxpAFtOufC3vS14flc7Vu13YkWDgTXHgbUN5ljXCHxzPN8EcCxuNLDiCLDqGLD8iAdLDqtYctiFVc0GXjgOvLLPhr/sPYONJ9txUkAZcwHLAdCwEeoi7AJ6/OZzTEy//t4eZJfNxWXXVqDPoHFiuGnACaeI4Y7LFW+8uwXsH5UnSUFCc4HEWBPz4Rs9Auu3HpMvY9T1XWPG6k3wG3w3QpPI4qiE75BMpP26AhuqDwvQ7+H8MHTTw9RomphId4EGkbg35yRxZEaU35FyAAAgAElEQVSFHPyZf5N9lKiD0yksnlOtDsxZ9R78rrpH8GH/+HJ4fYO19W3n2ScqD+Ep5fC+ehQCr74D2RXzsX3fSfG4yQxixlSgQX6PosBls4oj43HrglfTaHO4FBvcHkXWALdyVe2AorRCU3ku3z4YwRiqHbpik2HmObgVu2AYdskxuRVGsC6BYrh+PLxOOqDYVJw65caj01/GlcnjYbnqXkm40xEhfh+ScPHXz7dd1+/z7/8RBvxrzDsuX1gGNN5908rxwbt7BbHgxFfVNhhKCwxHm+BpepsOTbdBN+zQDSd0XRWjqSj0uJkh95h0CYalErq54GECUzFxRkIgTicnow6XS5VBtIBwCf/GR4n/mVvjoJ12eqDadahOt3iljDjJFnC6TA9f090wPAx23eJ5wPWluFNf2t14eMlbGHBDHnpHjhU2SDAV+y42hJJg0jO9YrIRmlaAkul/w8GTujBvhO5Am8JzpodIzBsKDOjiBZ23OrG8vgNrj2pY1eTB0kMGltV7sKzZjSVHnFh2zIE1jerXY22Thv87lh4Dnms28GyDisVNOpYfc2PlMQ+WH9GwuMGJRcfc4GtWNQDr9ih455CCBitg7bzk4pmSrkG6ikeF26Oa3rgbaDhyGlnT3hMjTo+b0AkZPl20Qnrj3V3f0Ohi9E8qBTc6KfNPKURwajo+2nqc08TMdzDn8S3joYXvo28CN8lyeEUW4pqbpuKTLadNA+w8C2g6NLsiQR7ZNjbFACNCGjZo7eKVqpoddAo8TL97FCiqDS7FCv4dCrdQHfVfnMVlUbfhMjo3FA2LyUe/5Kxuzy8orRK9rhmPq24ox1NL1uNMu8mw0p1MdrTA2uGUY+XG4XI4IZPaUAWTJ8RDRFF8IUa2mgc6qVwaMXJChw5omvadAzatcw3yhupw20koMNAFGTGyc9hVuISaysVE+FMx16vqgZtIkwG89PYhxP7mAXhTfye1Av7x+SDDqrv7+2N4/pI24AxPiUd2JZq4uLiwOLjYiMf5RY9BUEohLENJC3wEAyMLMGLMFJw+9bkkFnWXYiYoJf+hw6FqYiQZ2jKjL7kwGlhu7Mwq2omxceJwsp0FXF8BrnMmXk1D72KWn9aYwB/T7U6ZjJyQMvg7n9dVeBzt4mV77GSv8HUMhRUTx1N02DQbFEMHYRmHzQPVYeboBMfkzON3aAZcrfTEgJotDbjpDxUIiBkLv5QS+CfmgSwVUfiLLhC1vsDBOfjptVPhPziz2wlK+pcwLmLyEBRDKKBIaFic4KQz+qWmIzAuHWm/vh8rX/gMDgFkmUTszBQyjFVsZsJKB847gE1fKlhxxI4ZzS6saXZjdZOB1U1ap6F2YW1D52h0YnWDOVY2OrGqyYWVTfSuFaw80jU0rDyiYVUzh4LVzQrWHFHxfOd4rtEphnxFk25+V72GNQc1vNIEvHXyn9RDYuUGrNCMNoG1GB3QptqgYtnLH2DYrx5E8KAcSXKTVeEdMwEhaRTW6hLeygOFuSgNQDlcYugRyZWSwCQlLziWqovl8GfhUvxYrN/SKOwaQmnfNR5asQGXpeUi4Op7EX19OnbUfwnFY8DhIDTHBHeHbIrOjnMAcWXOISZK6Px2kMHjkmQ4E+Lm4NyzAep5QDkt+RWPDtyd/jRCozMRnFwIv+R80ZahaBixYdJXWdlKGqPUJCQVwTs+D34pRQiKHouEW4vx9sfbzUBL52d3QFWcEqwyemS06KATQtiGcJrmMZP4XA+MgmxueJhXchCi7Jw3QqAhsN8Bt3oeuuscPForcc2v/6Y5z5r4OL1wQjROB1SuZd0j65lJYkaphGpUxQbVeR4eyWdZQefKo3IHdcPe3iabTP2B47h71BSER44QYkCvhAfEhpClxrUSHlcs+R7q94j2TmJxt+vnUjDwl7QBp/GmZ0QjQ4PNQW+Jj1xcYUkZnQUYExGRPAm+P7sXTyx4SxLXHS0MrUxYhPQ+esX8x13fYSe7RJGJJowRAtq6LpPE4GKggXIT8zZ5xpyYTKifanVj26Ev8XFdI96vOoT1tYdlfFpzCJ9UH8SGLQ3Ydfg0TrS4YetkRNAOa0RkyCDgrKNbotKgt4mnRK+wKzkqoS9fb3dCs9vFqxGc3XBDtbkEtjh8QpdKxICYUUIvJHf4suGT4T0oE/2SJ6J/aiUsl48QLLe7CRbIJgkxWeYGEF8sfOnwpDIpUw9NLUVYSiZuSX8ML7xVJ0GIeNu8EMJ1p1cr+4pwSva2uPBWwzmsPdSGlc0GVp4A1h11Y+0R04CvbNCwotEcKxvd4pUTHlneDCw7Yo7FRzzgeK7ZLePZJg/+OQyBVJY0G+LFE1J54QtgdTOwssHAqkbTiK9rcn/tyb9+4DT22wBi73L3ac08uiRTSWqgfbF7gFff34ObR05DWEyO8IPJx/dPyBI4hfMvPLlEEsfkGNOIdw0yUHpiwKcufBdhUffgquQJqD3QhjY66zQ8Hh2GbJaE1Ygt06Fwmk6FQbqqWWNAFiWnrkoSVCc5itGdJMx1wkfA0tXv4qrkTFF05KYcmMx6gwIpbGORCz1RQjjeUSx4KkT/4ZVSDMONO/6WIryzudlMGjuc0GznTQ/DY0heSNaOblIBub4cDmLe5jVW7cSqz0jUC48ZIfDcbC4FDs2DDtUAUz4kmnBpMo/Pn9utHtg7GS0qvWkuPv4nrGizQbV3CFwiSVwNcJBXznXl0eGytcu64TzV7YyCudN1frgOfHnajYyyReiXzEI5s6GIX3QO+qZUwGtQNgZeex98h+ZIgR3zG92tn0vh+UvagNPzpvEWL5GZ45RiMUz0zLmwvGPGgRVVgUMKcUViNl54qwrnHS4QiqDHShiDhpM7N/ExMkMEc9Zc5mRUW+B2nYPuahWczk7j7gHaDOCLNgUvvn8YDy54C7dOeAxX35iF8IRRCI4didDEdPRLy0F4/Dj0TZyAfknpktwLihoJDv7t8mE5uDPzMdz/9Et487ODOHZOFxyeEYBCji5dfiZonFZ46DXBCeJ5Lmsr3PTAFFUMjUzMNibndDNcBXC8DZj0xCoExmSgbwpDfxqSUngNMRcjDQuLb7qbYKHDC2EZMhZhaWVSNMIGCmGJpfCNzEJYYj5+O/5pvFt1SBYwTaAUQLJYSYAdm0AVjQ7gneNOLDl8HouanVhBbPsosGK/jmWHbVhRT89aFyybhvrZZmBBAzCnHnhqn44n9qh4bJcLD2234f66NkyubkHlpjOo2Hgak6r4eyvu32LFw9udeHyfhpmHgLmNwAIa/8PA6ibz+9YQK+fG0eTCiiYHljdasewLDxZtP4MPm504z/1GgHCabgVukMdvnovdreG9zfswouA59KNwFptNJGZ+7Sgw4mORCD1VGm9y3yW520MDPmvlZ7g86vdY9efNEgCycIXH5rK2ibeqWeloGPAwamPREqUGFKBFA/76SQ0mTluF9LI5uG3sg/j9mIeQN2kRFj//MXY1tguRqv6Ugmt/Vy6Fan1TpwgnOji1CCwSInPGb/BY9B9mion5x1ciLHUKfAZPgO9Vd+A34x/DjoNfyr1nikYqpgwduq1DkpTMddBQOs+3mhsMJ4ebWLQVHe3nZMvU0AGH3gar7sQ5p4LdR07jlfe3YOrMdfhDzqO4N2s27pwwHXelz5Cf+cjfs8qX4oGn3sBf/74Z+w6eliI6cW6kcpdrW4Xb2Q7DSkvNXJYKZzu9dxPSc3bQOYMZyRDSI1uMuwMJAhpQ9vAqhEXeAW7UlmvGIWLYZAQmlMNrcB4uu+4++EUxid09hNbd+vp3PH9JG/AuqKQrlOUjBylffK7vdVPhPWg8Yv5fCd5Zvx8OuiRwwmZlkYDHxLJVXcJYMdyCHXZCHAJ1mAkQwcgBNHzpxOq3tuCOoicRGP0bhCUTqskGvVTeDLIMAhJLJVQOSCzv/LnELHBJKEFgUpmUlbO0nD/7RU+Qgon+yRPQP+5u/HLEZCx5+RMc+sKG84zwnB5zcapkGJyHZj8NMEx1a9Cttm9MQGKONui2dih2ejMmrbbiyTcRFjkGA0iVHJoDljT7xhWg3w2V8Iqd0K0BD0jOkmIMVtMJzzyuGH5DM9AvMQe35zyLmh3HTM8VGjRStgSAMCF9mpoNpw281mzD4kPtWNCk4pnPgSVHTY943WEFq4/o4o0vbfZgUSMw46AHj+zSMLnOifJqO4o22WQUbrSiYJMV+Rs7kLOxXUb2hjYU1SgorHahsMaBoio7iqqsKKm2ySitseJPdXbM2u/GM03AkiZgeaMhUMs6wi2NNjx7FFj9ObB0Vwde3nkeB9pMfNxJy01OOlEwh1kswpnz6ZbPcWf2AvRPLBTRLFafsiTbNzJD5ptU8DHPwjA7pqDHEMrT8/+O+x9dKpW6VidZM04o9nOyWbutxHKt4lqTW221A8fOejB9xTu4+udjEZz0e/RLyUBo3HiExmWgf1IuBiTn4LKkDFx9Qy7if12BjAeXw/uaewTeCUiYKKXujLo4p1mRGRaTJYnTkORJCB32R6EwDkjIwq333IcjJznLSLXV4DzPjYRG3ICjrc00zkyiujo539Y26K1fCs2RuQanpkv17RfngD+/s0M2maE3ZCJ48L0IjmF5O1vnFSKcpIOobBn8OSQ6B36DJoh0BIuj+seOERYJ4aXxxU/h5b9twtGT7bKXMC3FTc1DDipdeIM0XZMJRliHZANVY7JXEV48C/HEiHuAljYPHnlysTDUBt40Cb2HZiEkdZIoXtIhZJTPDlH/DgPc0++4pA14F3RCz5uG23vIBHkkU0CeiyxB1E0lqNl3XHgGvIFiqKFA19sk7Pd4PKbnrZrcWb2jHe1n6dGakDTv/e6D5zDxTyvxk5Sx8Bl0D4IT86QCjV6X4Mvk+SaybJoUsxIZQVJwQZnTEvhEF3WGoMXyO+VROQKSK9E7Mhd+0Xnol1KCkKgs+F05EkNvKMeowpWoqaqXCI+GxNpxXrwvFqo42lsk2eN02mG3tQmTQihkXNBuDY52hrI6TncAZQ+tRmjkveIxh6aWS4k7vWqWQXc3OXxi0xGSVgyv6FzR7+B1jogdj7tyZuLT7S3wcNW6ef24WkiKVKT85rgOfNLYglVHzmFFY6tg2WsIZdS7sfSgE8vq7Vj7uYLFR4EFjR48tdeFB7baUFHdgcJN7cjbZEfuZgfyq10yCmoU5NcoKKhVkb9F+3pkbVaRVeWSkbPZhdwqZ+frXSiocaG4zoaKbQ5M3W7DtJ12zD+kCqTyQrMHaw+58CLhmcM6VnJjaTawaMdpfPC5HWfNKw1NY1aOlbQCsIiN+rDmIEYULkJ4JHU/WMbOOWA6Dpx3jHboiRNW6SmE8uabW3H8pE3gCMlyexxwWVuE3cHJ61FaBBbg0b3x0X6BNLyvuRvB1ENPzJUcCKUMqL1CD5Jz0WtIlpS2h6UUIihxgpTnR6T9Ed5RlaZeSXSGzBUWH/VPpiZQgdQWcA6zuOWqlDGo23lCAr6Os8dNyMTQhVZLai2proZOdgkL3ghRwExKEqrQPLC7gMYTdhQ9MBdXJ5djQHShXEt2VWI9Q0jSFAQkTUXvqApxNuhwsNiGhWF0JDj4M9kiXpQOji0WVlnf1ByERN2Na64fi4lPrcWG/efAQk+nyxAsnIlc3k9zWIXpwjnb3nLGZCKRCcZcFBOnTpdUdBY/+QoCou4RbXo6P37xpSK1IdTQmO5zSN2tr3/H85e0AaeXzd2Q3Nwu73vA8HLxhgivDBw8DjsPW2FTiQ8zuaPJjsxEo260yoIk7Qo07C4raLxpuEkQYXHY/uNA+aPPY2DcKAQNGoEINuCNLoRvdBlCkh8ULywoJgcBUVmSqApPLEbf5FL0ZVVXbIF4YfTGiBtz8GfRWIgtlGSXeLVJZjUlu88ExZj6K6GxExE0pBRXxt2LezIfx4ebmySEtrs8aGtjdaEiCRwzWajB1sYEj+ll0AsXI37+rHiQJALck/0EQmLGog9Ln1NLYBk8ThZ5dxOInphk45NKxNizApTl8B9WNci1g5tc2044qpOm16Q58NFJBxbXnMfSY+1YdcSGdfUOvHjAhZfr3XjpGLDsqIaZh9vx4A4Hpmy1o7yGhrtVPOvczXbk0XBvMVBQq8vIr9GQU6Miu1pBZpVLRsZmJ7JrdBlZ1Yo8l13tFCNOQ55X40TWFgdy62woqO1AWXUrHqizYvouF5454MHSw8CfDyt48QgEV3/2BLDsJLBk73n8/aAVJ4SbTtaMyZQwjbhTIIO3NzTg1hEz4BM5Dn5RGWLEacw5H02nwuwy1FMDzmnJzdvtZvbaAXsHHQs3nO3mxkJPtl0FJj62HAHX/B7BcVkiKtVraB4Ckyrgz6KjJBq+SoSm3ifG0T+uDP5xxSY1MTkXYakU8JqCwJiJ6JdaKedEXR3/yFwEJ5q0W8oBBEdnYMiNeajdcwZ2GzduYtldSVGXiS1rTKy7odja4SZWT3inM8djcwCHmq0of2gFwgb9DgOTxiEicSJC48pNRcq4EsmtUNuFzTk4qKkjQlmJBSDTqQ+rYAWnLzJfM+xReMVPQe+YcrOQLLkYgfFZCIgbi+D4sbg38z5JGJMDZdU1uIibsLpXaZMKaoW1Hm432s6QNqyZ2DnXEZOvLjvOOIFfjZqM8NgRInDmFZknsgEClcVeAEvnIrPAulu/fP6SN+BMWHJHJGxCD4iLyGvweFxxwyS89fcqcFPlIpBss8owygRp6b2SciUJS3KZVBdcHTYx3s2nPXj2pU2d5ejUp86WjYK4JpOhYUlT0GcQ1QGpDGji7fxe0sUIMVBHoT81QuiZCd5sVuR1iT/Je1KL5fX04vummmqHVHPjJGGyiOX9koyNSseA+AnImvgcdh1sMyuHyZRxdUgyUyIFq1M8Bp4nz89p7TANus004se+MjDs95MFE2dShgsyoBP2+a5JwN6SXMjEdHmNU34/FS+9s1WMGjxMgpkJS+aCuUhOkZfe0IJl+6xYdxJYfNAhLJMXjppsk2UNBhbVe/D0fk2Md0GNQzxless0uLnVDmRVOZC52Y6MTTbkbrSBBl2MepVDXiOvq3Uht9aFnBoXaLRzNjuQU2VHziYbcjZ1IHezFXmbrcittiG/1oGiOhNmyd/YhuKN7ZiyTcOf9gPL6p1YWq9g5RfA8qPAc/Uq1h0FXv0cWLunQzB8m7k/CSzg1my8xBL+v/HxTiTf/RR8o8YL5NAFp1Afhk4F52NPDbjUIrCSV22HoVqFYaEREvAANts5fNEB3HTnFAQNuRf90sol0gtMrJQEHMvcAxKzBcdlebuUuceVITDGZBKJEUrKBTXZva8uQmBkiSQymTfhJkQVwT7x+egVmYHLrytB0KDbse61Wlaoy9zyOFpEB8hOLjonIXQpIDIdCTc8Dqck360OA1YdeOrZt3FlagYuSy5EUGQeAqNM6QdyrtmcQzYLrqcEapWwaXWmOA/8OwuZOLhu+DuvK9cSG3gQ2ghJngjvqHzRBmINBCnCpA4PTM5Gv9gRGF8xF7uaWsxkq6rD3srqU5MPrrYTkiRZykzqMh9G2qtE6x7gyAkbrvttMUJix6PvtZPMKCWKLKP/JjG7DeG/y7jwuS62CROWXd4PPW8a74p5VaZGCelJBGTpoJJupLVDdWly/1itxgmn21ulko03snprM+7Kngb/wb+Db1o++iRkCbUqdFiJFAHRiJNO1zehVDwEaqlQppIJDyoDhqdSEyJPcFF6EXye/FIfYvOJBV97Fvy9f3wuwqkqFzMB/jHjEZgwAUGpWfBPy4B38nj4JE2GDzusJ1ciLHIsEm7IwtqX3pfkq5siWE4Dbkr3dSbTnQ63MFq4wEmPhHoCWsdpmbgb9joQkZgNr8FMsJZL1NDd9Q0fmouByZXwuiZDwuc5z9cJZZ1FIgBDeZJzyOvWcEbR8e6+FqzarmLtcWB+M/ByI7D6MLCkwcDCo27MbHLjwd0ulG92oHi9Exk1mowur1qMcQ2Ns4KCOgXF1Q4ZBdV2cORV2WTQMOdUWb826Pmdz+VX2VBQbRUsvJhYeJULhRvtAskU1qryuZnVDkyocSFrq44/7j6H2fUucGMhvfDFQ2680GAIG2ZJs4J/1J3GWRKDCMAxgqM3bK57WKFg2tq9GHh9mXitNDz0xsX4kRdPKYMeJjGpaMniFMNol+Ic5gVZaqBpBjpsp3HdHY/hijRu9KUISJgM71ga7zKQPRISSwnbdIQkMh/USWWMLZTIMCw2D6F0fBKyEBZbhJ+mPYT+8RMRSElZMjDIgU6sgFdKKfxTCuAfeS8mP/EiznU6Qy46BkaLyZ6iDAS53YZLOOYKWSDUOnHpUjuxdU89fj+eqp53CxzTezDpdw8iJO4hkaIVuQF6+lSzjM5FSHSBNKgmRMUKT/7NPzIb7H3KilZSMrt+jojLEZw+Io4FU0WiOcMCNo7QuFJ4DS7EgLSJCI8ai9jrJ+CZZW9C9hsGEFYNHitpvh5o5JOzCt/BAiMTcqFV9xCedAMbtp9C9C8rYbmKuYVywefF9lwCHnZ3a/iS9sD70puMy0Bgcj78UybCJ3oSQoZkIn/qLHRQZMqumAJRNNLkaLtZTMLCGFWYReRiM3Ry2XWRhV3+l1oMurEQgYn58Io3YYPuLtDFfN4rJkOwdvGeYksRODQb/ZIyUTjteRxkrojuIelgxjl40AGVinNcUG4nXPpZKQySjculw+X0YMHS19E38m5hSPjFmzxXeosRXKjROQLzkGUSHEcqHGGiP0oSi9K20xasEaouIQV63KIt4mgXKOWoDvz1iAPLGlSsIMOkUcG6JgdWH2oV/vYzR4A/HQDKthqCZRMiobedW9OG/Bp6y+2SoKQBLqpTBUIZ/1k7fvOODTf8+SsMXVqPfnN3ImDmNnjN3I7es7fDMnsnQmZXI2x+DX6yfBeSXj+KX318FiM30gO3o7RaEY+cSc7yKgWlGxwoXG8VY55d60R6nQOZW93I36LKsS3+HFhFpkqjjtVNHqw4bGDZ0XasbbSinslM4ZjSVaM3YFaREvOfOm0xrkgsQZ/B5QhInYQ+0ekIS8xGWGTPPXCX/Tx0t2FKwEolsA69QwURjHsr5n4PDlCp5G1M+dRshCTmICQ1F74JmfBJzoZvzFT4XDMavx8/FadbHAKHuBUPXC4HVLB6+EwnVEItN49IRTBSkCjXABa/dxyDbpkMn8gx8tmS/GP0F002E4WvLq5eDyV2+Z2UIAiIL5e5PK50CQ4f6RQ4400VgrobqhQambRDslbkhrs9MBjN6sBfXluPiJh7QUdONp2EjIt+/N/H9bmkDXg4GxyQBRBH/WtT1/m6PzyI4+c00RaRagyDpfB2Ce+YcWaRjanDoApuR8IBWVgPzXwBAxNHYEBqLryjMyUj/31cwJ58hn8SPXtTvzg0vhL92SNyyHgMSBqL/zfifrSe88DlNKRQgXKa9BbsrYpEsRLrexShU5EmxdD/ZBtw6/hHBRKicmAX5MQFTANOvisLUVgCTqzeP7ZCPO87855E3f5jAp1w8fIfy+QZTX9h1/HB0TasOdSBZQ06VjQRLtHw8hFNCmuWH4NAJqWb25H9WYckIgu3qMja0IasTe1iQIt3eJBbp+OeT9pw41+OYdBz29F3xnr0WlANy9zNsMzajN6zauA9eysCZu9A0KxdCJy5E74z98Fn9l54z9sDr7k70Wf2FgTP2Yarlx9G6isnMWqjXTx8Yukl1arpkVe7xHufsLEV9MYzN7ahtKYDj+6yY+5+FcsbyU03mTIrm61Y2+zAG00OfEmvjeQUUuVcJhbO0OdA0zncmTNP9M6940rR7/op8I3OQP+0oh574Ka6oiFVvMx3KG3EvoEZi9/EwOHfhwGhk0INbLMAjrAam4ZIo44kwoWVuHJYJjbv/hxtVjoKVHo1uZUOVlvSSRIpWBJiGKGYXjdzSIuXv40r/6cclqvulCig37AiyVNRflgolrEXvxCmH+FLSiBEFwjUIjrug+/CbaMfwKebG03hSiHzmMcuNRgkztMvchoSXTLkcpw7Kzz63CmL4TVklETRQUkXX2uoJ7aj672XtAEPSc0X7CsoYQqCYkvxk7QsvL3xoBgaKd/uqtVlRRa9bqalhdyrwNVuliS3WcnUeA79k0bCN2o0LNeMMb3eTh2VrgvxQzyGphVINMCOK/6RxQhPqJQQOGDwOARGjkLarQXYdqhFaFMsavDQNVMBx2lWGNHMngd0SgQ4pHiULcjuKZmLgIQxCEz7Z/ch4qEBMeTRl37NoqBRJxUu9pZJeHNDg8Aw4oqw5NzNcn7gCwDvNrVg1e6vsKpRFS73ymbg+WZg3UEX6Hk/tsuBys2tKNrcgbwqx9eYNvHvoh3A2E0KfvX2GSS+0IiBz+2C/+xa9JlZhz5ztiH06ToEzdiKwFnb4DN3B/os3AnLM7theXYXLM/tgd/sRnjPOoResw/CMmcfLDN3wTKdhnwPAhYcQsT8WsQ/34TbPmxHVrWBwhpdaIeEZkpq7CD0QsycEUBFjQ2P7HBhQb3pibNClHTD5QftWH3Qhr8fagODHpdoibBKUDM9TgB/eX87hv5PCXyGFsA/fpJ0tPGLz+y5AXeatQm8f7pGOQc3DjSdR9zNxcIk6emcJMOEg5/DjlOstCR9jwJVVBoMGXwvZi5/V0R+Zdd2aTCsrAxiURvVMlU4W1ukUMbD36HjxFkrXnp7B36aNB7eQ0cjOCET/YcXS56AdEvZLOKKhC/f0+Pv7v3M4RByYeUkWSshrB6NTUfA1Xch9dZKbKxrFCeEk5lFSG4714sDHW2ErOicq6K1wu5OVHJsPqnjZ8OzBGPvE3Vxo4fuzu1Cn7+kDbglZhwCUybBa1ApIqJzMfmJVWJoaLw9NhbsOKCILKsHYFjEcEnXTL0TjxNtdqDy0WWSwWdlXfiNU0RWklWG/w4tke5ugm/cBJOySM3lqOeksN4AACAASURBVBIx4iGxZeiXyFGCiLRCXHVtFjbvPCFeA8/Pc95GsWsY7QY02xlTdEsH3vpgL1JvKURg5D3oOzwPvWKZqTdbYNGAc2GZNLgcKYhiXoFwzX2zXhfohAabIT29TpVVqDBhk1UH2sBS99VfAORzrz4CrDsCLNntwh93GyjZ1IacT88Jhl28TRd4hInKvDoVv3+3HSkvHsWABdvhNaMalum1sMzaAcvCg+i15AgsCw7AMt8cvebuR5/Z+9Bn5j54zTCH95yd8Jq9A33m7IDXgt3wXrhHHgVimV4Hy1NV8rn9F+1A8otHcfdHVpDRUlztQt76NhRVtwumnl/tFOimcquCR3cqWHDIEDiFXPWXjgPP7HdgTb0THxx34EtujLwYrBmgMfcYYuDum74OlyWXwGdIOUKGTUXv+PTvwYCz2sQmVD2bvU325MyJsxFAvZsLUAvsbn4JNk7ZibhCYaOY+PlEhMSWIDgqH7+8vQhn7UAbK5NZ3CR69STEmHr11B4hvmPYKLvsEMdp5V8/xcDkdPgOzZM6CfY5lVqJKLMrEedZFxOru+Pr6fMDEssFP6dEAGGP3rGmXADnPSuTE2/Jw476dpw+Rw9cg9r+lTBrRBqazBXFlIuG0gbdel7W2OIXqgRWCkqa/F8Ipac3yDutQBoIkEOaeFMJTpwjRGI39R6cmmDC7HQjnjcNOFUD7S7Bu8j/ZsXVZQmml+CfUg5LTCH8UyqlM0foJVBpFRCXaTJdxCMqRWD0P4fv0AJYoljGXYib/lCJU6eZRddhazkpC14Stgawfc9JlE5ZiqsTMxAyOB2XXzsJZKIQmmHVIMNZcpeZfGO4yWQcsVCyK/7n3snYe8RcmILLeFxQ3YYkMnd+0SKGbWWzR5QDlx5x47kGHctJyzsMzNquIH+zQ4pt6HlnbegQ1kjedg/GbHThljdO4coFexA2cyv6PF0Dy9wdsCzabxrt2QdgmXkAltn7YJl7wBzzDqH3vMPwmn0IXjMPihG3zKtDr/lb0GvuVlhm1sEyYwssM7ei15xd6DNvD3wXN8jPlier4D+9Ctcs2YNfvnYS49c7UbrFg/yqDmRvtCJjk0NoiDTkZVUdeGSnDQupeEgVxGPmxrSCXPG951B7VjOjEUZy1KNWO0R3vP54K24d+TgoYEXNE9/UnicxWT9OnRxW4xKu+nBLPcJi7xKGhW9M93Kv3a2vkPhscVTYhYpUQxpwwiaBQzJwRVIx3vtwK5zsT0qFQAdlazuxYRICSO9iLlvU/agyqeHt9dsx9CZTm4hcbjJxOIhDE75ghMdIr8th6O74evx8TIH5nXE5wolnQpYKir6xpQhNvh9+UaOQelsZjp+nRDMLtzohR02RPJmLGvWUe7axeMou0hqtNiD511NEhbHHx3eRcwA8vkvaA/dOKpEy74io0Vjz8kbTM2LXEYZzpAMRk9MUiC6xoaOLMkTvcdnzb8P/mntwxbXFYsy8Ytn4tEJuMCfZpdCRo4tdQzlcYpVCB0tgmy7S+iqlIS51pkOHjsbvRk/GsdPnhTHR7rSKlsS8lRuk/2Pw4FHo/dMxCE+aCN9IasdMlCRlV8m3nK+0FDONN0PfsOQcLH/lfdNY0eOUrjfskQMc9wB/3f2l6JSs/RxSTbms0QUaOVY9/mm7ikmbTE42C3Dya12SvMyq03D3egdSXjqG/nO3InTWTvjN3GEmJeftgmXBPvSedwA+cw4gcM5hhM89gNDZ+wTv5ut8CaXM2Qafedtl+M2qA0fAzK0ImLED/rP3wXfuIfSaewiWWftgmUFDvg++iw7Aa/Y29H5yEyLm1OHav5zAmE1A0RZdjitzs1OKgSSxusnExB/aowsWvnCPU1g1S5rcoCjWy4fa8JVZ5CdSrIxFqO5HZ3zZC5/iiqRMUejzTijuuQfOKmGHTWRYOWfvLXoaQfETzE5McZU99gDD2Ig6gYU++dJNiQ2HSYdk9e7dOfMlx++g1w0nXKwA9bhFQ4QblzRloK6K3QmXouGL8yoGXTdaGFXsgUpJWhYzEfPmIwfnGWUYCM9JodNFNmB0VPpRCiA2W+4FI2ty4IO5DqLLRHUwLH4C7sz6kwgbUjLFIbUgbrM6m2qGcv6aGc16nKIr8/Lbe+F71V09vv7/jg3gkjbgliuz8ZMbyjDsV5nCj1YoBEGiqkcXAXcyMpwMQUVS0AWXzS6iUx9tPYHBN2SClYmWQelS/MCfGUqSk01vgcU5/44L/F3fQQzaxCnzTJ5sYp5wZqkGyCRK37RJoCdOXm3/hAkYO2kOTihA9aEW/GbUfdK5XApNrq2AD6VCr5sieCAXDzvZm91UKATWWYSSTH2HDPjHjMXvipfhVIvV1FthokqzCyOCKhbvHVNAeIGc6dWNwKp6B9ZQIfCYB0/tU6WUPWujSxKW9HCFy12r4M4PWhGz6jACZ2yF5amtCJi1Dz5z94i33GveTklEBs7ajvAntiL8kRoE3vc6vEtfhGXCYlj+MAOWW/4Ey40PwjLsPlhSJsHy25mw3LEQ3iNXICDnVYRN/hB9n9yG4Nm74TN7N7ye3ok+M3fDa/5eeC3k5rATfWZtRfD8Xbj8uUO46/12ZFapKKzTQO+bmDiH8Me3qJi9R8OSw5pUj750Clh0wIUXj7jx/jEbzojYFVUMdbObEMWQzjowMn8aQmLT4Rc3sccGnPOXEA3p9nsbWhARNwIRwyuEo81Kye+aOxfyHDv7EDZjEwOveA7+PgFDbszC6x83SJKPcFFb2ymw+xSjVqddFeMmyn7MK7kU2dRHljyNn95YDj82AY/lRmAWshEu6UqM04BzPpOC9++g4YVfWwbv6GzpBzBg2CShFwolNrEU/J0wlFTODrkbz7zwiYiNkiaqdVhNJUc2byHyqrjgdLaKLhITneftwP/cMbHH1/9C7lFPX3NJG/AB1z8Oy09+h9c+rEEHs5GMM20mJUjV20VLW7hPHiecbfSbgMOfd+DnIx+C7+AR8EmolGIA9pbk5GIvPLYio/EOS/jhkxQsuhBdjdgcaVgclJyNoORc+MRnwDc+G6EMR6NL0D/1j9LT8/LrC5F8x/24PCUHIYMyBM/3TS6GJS4LvtcVw0L9k9Q8BESPx4CEHOniQzoXcUmheCXnwS96HPoNy8PMVw9Ku2EhmVMd0cMuKRC9kNV727HyCPA8dbYPG3ixwYXnm51YsL8d9205L/zsrK2QpGVhrVMKa+54+wRil2xH0JMbxXh7z2+Az6z98J67D73m7UavudvgO2srAqdtgFfR67Dcu1KEs8i5l0a0MbnoH5uHy2NzMTAqEwMixyPwqvEIjaJyXjm8EipgufZ+WO6YjT6lLyPw0XcROvsAfGfuQe9Zu2GZuweWeXtgmb0Lltm74Tt3P6Ke2Ynb32mRjYb88cKqNhTUOZFd60J6nY6HqluxtF7Hn4nv77dizRfAs/ucWLP3DPYr1HwhG8Ut6BK9UnZmWvu3j2QzDYyZ0mMD7qRYrKaCfUYem/uKJK5Z4EUxrcvIwOqhBys1CCxAI3afVASfxByEJY/BTfdUShGT9IJ2Ud/dKo2n6Wk7iX97yNBoA7sTU9nwb59uxYDUMVJyH5r8oLCZgqJGS9EQRdQI1dEZ6fLGWashldM9PP7uzp/nQ0aNNDiJLEBoVBEuT5ko2ioBPIbE+wU2ovrg4OvGY/9R9lFlezrCsFQGI8YP2F2GUJBJCIBmFULAuterenz9uzv+7+P5H9SAC+cyNltCHVZsMVNOL5k4nXCVY3Nw7R/y0UYPm9U6lDJlMpy8fMNqNmFQnOJ5U0aT2v2ZkxYjMGaCdE7/Pi7Qj/kzmNhhIktEg2LL4RtLY56HOzIfxpkWm5mhF01p6k67cQwQYaoVTR6sOWxKulKQ6mU2VjgETN1qIK9al+rHgqozyKg6h7Ltbtz5Vhsum7cXljm7YVlEbHsvAqfvgWXRYVieOYA+C7bCf9q78M1ZAu+bH5QkV78h3YsFdXVc+raGHaGZzyN42oewPFMHy8Lt8J57ACGzG9BnbgMszzQI2+XyxXtw16d2FBNO2dghlaGZdS6MqVEk4Tplp4Z5FMIiv73ehXWNCp5v0rFsv0OUTE0+DitczkOFDV+c13F75mwEs5w9rlAKUajsFxxfIV3lwxLG4bNtjWZz4W70wKGYRWftBhBzS5kYDJa+E1dmwU1P5x7lHSj7MDC1QiqA2cwgKGYE3vpgK9xtLdLkhItJWppR25XNS5xsZ0O2kwYdZ9FhANfdPsnUQ792MnrH5IJQBXHunh7fxX4/+8j2GpyHsLQKeA2+B7kPLxVYX7r22CkH8N167YNuzEREao60YmNFaFBkDgYmFkmhEfMgF/v4L+Tzf1ADLrrL8bmCURMHpgGnqh5DMoZm/eMz8dwrn0jvcrZgEnUqFldZnTL5PG6ls7xX5Lzx/mcHEXNTPgJjsuATf2lc4Au5CRfrNTTgrNpjZVtAdLEIHoUn5WD6kr+D8uSUWhYgVFcEC686r2JpvVUqF5ngW9roxuojbil+mbVXQ1mNCgpMEUsuqmpB5TYd93zUiiGr6+FLGuC8A/Caf1A8YCYavZ87CK8nquBV+hr8Rj6LwF88Av9kNsmlEl33POEuA/5tLfN80h5EwF2LEDj5TfjNqhGGCjcPy4w9gpN7z9sF/xm1SFzXgDEfd6C4VkVhrYL0jR3I3qaJrkp5nSlT+1yzKUfLLkGrGxSsOqxi30mrueAFRCBDxyltU2evWI++lHZILOqsHmSCmA0d2D9yHNZvbRB2UHcGAs52qIobn+08iSuGZ8OHeuRJJWLAmYDs6bzwGpSJ0PhCeA9Kl7XFz0/7w304cYaeJ0vKHZ2DyoLsdmNSCGm82X2KFbgrXvkHLosfJ8nw4JSJUnXMRiCESnp6fBf7/dQ4D0udDL+4AvRNy8dPU8dgb3OrXHNqI3V3fybPehXU3WcE4xtH2DUH/RIKZNOm8NXFPv4L+fwf1IDT6ybWS8YED5YaHkyCCJc0vgBxNxXhCxZcuhW4XOcBZsyli45i9sTTWs1Gp6qODhdwV8bDCBs6UkLQkJSpl8QFvpCbcLFe01X+TxxQ4JrEIsTeUonth88LJYx9K0RJnzgogFcOnMTqY6oU7Kxr6MS/mzyYd9ApaoI03BSZ4mNJdQdKN+piHMkWsczfJR6w/8z9gntbFu1E+GOfwj/vRfj+8ikExVSg76AihA8uEAPuyz6QF2gEaMC7Bt9Dw07j2e9nDJsrEHjLU/DJex69HvsYvRbuhPeCA/B+ei/6MAJ4vBohM2pw/YvNYDKTlaDZm1pRUEcs3IGCTe24r64Dc6laeIwFPhpWHlLwfLMHr+8+BeYEhFmoURWSODGwu8mBpFtKJW8hUFwMJVpLEZJaKR15Pqmtl6RwdwaCHjjrSh6a9YqUxtPAUpmP8EMwtVYu8Pp82+t43wcOnwivayZIxx2fIaPx4Ny/m5GXk8p8bPFHQ96pIaSqZicbEXuy4bTVwC13TUTg1WMQnjgJIqGclC+iacTWv+17L5W/c85wQyQLR7RkfnYnyh9eJs6LR7d3a8C3N7oQFnMPwtJKhPvPUn82/RA4liJ1Pbw/38f7f1ADLlQ3qql1XghqjHBQepUqgIWTn5EGCx1seiCAXac2CFXQWDavsTGqHe0OHW9+shcRQ+8Q7ZHAGJaK/9eAU6uDxk6a5rKYIz4d2fctkWtK281/7ONJBsT+NjeW7z6BdadMXe3Vh3SsI7TQADy+24mi6jZkVNmQWWuWwhduduDnL3+J/vN3wDJ7qwmdzNoNr5k7ETJ3J3xmVCFk5EL4/fJP4r2EXpODgYPz0D+KTaiL0SfhX6t06zLkfLw6Mh99I2n0imG56UFYxi9F2JMbEbqYhT9kvTTCMmsPvJ6qxeXztuMXrx0XqmPJFidyN5wztVY2t6N0U6sUJC2llnmzB8sPK6BA16r9rdhlNzXE3WzCQbU7iiXpQMlDz0reIjQhR0Si2AwjNG0iQuLGQAw4i8u6CdGpg8LShV/efR8CotNFic83PkealbBvZde6+FcfuZYkoU0J3NhsXJ6Sga2HrbJp0AMVKJJaQqTfsq0PIzFnh8jFkjf9/Ju7cFnMOPSNLkEEaYNxxQhJLUSAJEd7nmT9V8/rQt9H6iw1WOiBc85dnlKBn8SOwhenFZGj6O7+sG5u2O/KEJyYY0ZXiaUIisySxCg36ws9jov5uh/UgLMizKTPseCE4vm56JfK1l4FMqE//Wy/6AtL/0pKblIy0uoUkXlKxsJtk+7XLP6+PXMaQmPHycUNTaiA39B/zUBczIv97/5sXlNvCgilVsqiG5gyDq+8u10MNhNyzAozqKHe3HtNVqxqaMfK4yyX19FlwBceduO+7U5kb+5Aeo0dudt1UN519EftCF+wB/7Tt8OXVZIsyJmzE74LdyL8iY3wyV4n30uP0ofKiAm5oEY1iy4CEoouSMpAPKj/4+Xwb12YOJN0gSm58Lu2CL6pJfAffh8ixqw0E6lLd8Iytx5eCxokoek3vQ4/XbQdd3xwDuU7DOR9dk6wfCZhiza34b4tdsxtMLFwdhBa18xmFB787aiL9a7mP6Gw2iV6+fvHtQhNyZF8S3iSKYfARh7siflpXRPcLle3Btxwu3D8jC5VjYQk/JIKpcEGjW547IVHKN86r+JypCaAka3/0DGibEhtNDY7IeuIPpGEFzppdfxFg93RLmwUtkj75ejpCB6cgYjYSfCPLJWoJyghW2A5gTn/z7351uP4gV7HXMJl11eIdIYUMcVVInzoeCx7ab2AYt0ZcJcTeHDGS/AafC8Ck0pMRygmRxAC/n4pnO8PasBZzivqf51VguwvGJGcLzStQT+fBKfNA00xpSzttlaZZGxuaspBuqghC7cBbDlwFgOSxoiRYtccwgVUYbsULvAPeQxMXvYZmgsWMXlFj8ew28tw9CunGCDDMEDVQcIDJwA8v9+K1ccMsFHwyiZVilzYu/KpvQrKt7CpgkPYGwXbDYzaQBGqY+g1d4ewQPxm7EMvlrnP346QuTUILXheqID03Ii/eydko09aDnoNy4F3ipnzCKc3083C/jYD3mXE/VMLYUnLRa9rc4Xf3HdQHoJS7odX7jpYFlah98wD6DP3ILwXHILX7F3wm16DpOcbZQMqEf66KUVLJUR2+Jm2V8dzR4DVpE82OIUHv2Z/m1wfRinSDd6jmTIDp1uRcNej8I8eLQ4Hy9S/xsC3NEv3l24NhOHEZ1uPIGTQKGkYws723nHpYiBCo3uew2FHKUa5ISkliEhIx5TH10gTBOF7O9uhM0PJRAi72ahkoqhwqYrARDt3N4n+uNynmAqhs/YfVoqA2AkSJTPK7e7+/eDPRxdJpbNfYpZAU/5RFegXX4pf3HM/zrH1bTcRkmpVsaHuqKg1Uo+Jjgfpk5S9Jbf+Bz+/H7yQJ9ZsTSVqaTFUy8sDiw+CY8Yh/Y+vmqXMTKhoLricVoFLKFhlsOM72ya12YVFWPbwCoQlZcISmYXgYWYWfwCTd90YiP/058NYWBFTDJ/kcnjHjkHRI4uFaEC+r/CpDIdUXdacBlYeULHkKFufOUwD3uTGc40aHtxmR2G1gtwqDXlspFCn4LfvncWABdvgPWe3FNIQpqB6YODMOgSXvQqfm/+EPkz4xJQjOIZFH7nwSc6FV2Km2cItLlfYET29/qFpk4X/7h2TgfDodPQbkiU8Za9fPYmgkj/Dd/pueM3ah15z9qH3/H2wTN8iZf2/e6cF+TWGeOB5jCqIhVfbcd92RbzwLgO+ohFYu9+KLWc0USxW3CxN1MWA0+5lPP4aAmNHC2OEjBRGGxFJE7B+y1FJCnZnIJyGghWvrEfokAwEJVaiT3wufNmAmBIIkT0P0alzzwYJlDnun5yBz2qOQbHRcmmyGUmpPKsvO7vZqJpdlBFdKvD4k8vgl5AjtRQhCRXCOumbwt6g6Sa3OubS50lHxE4xu3ilZZoc+KT7EBRVKq3aNu77slsDzt3ubBtMHZzYfIHqmHshLEO56J7O3+/j/T+oBx4UWyzFJqKWF5n5tffdNykLz715FB6K+you6QDChaMqNhg69QvMAgNiAWzaHX8TO8tkwj+tApbIHISzzDlq9CVxgb+Pm/SvfkYIm7MmT4RvSgUCkzPw7Msfm8lLg343IxunsDL/us+KFfXAoiYdSz/XxYCvqdcwv96FSTWtyN3kQn6VG7kbTWP3/944AcujHyDg6d2wkD64aA96PbMH/f60Ab6/mwNLFFuOFYq+S0CkSbsKJx5LbfToDEnQUbP6Qs+LHvc3vXHi+oLtR03EgJgKXBFdgMvizD6GXnH58E6ZggG3zIX/09sQMGev4OCWeftFhyVgRi2Gv/Q5xn+mIr/WJoqJmZttUugzsc6B6Qd0kcxd0+jCWmqeH3bi9T2fS5LX4VGlzRyjF26BT76yUzrDkNnD46EB75ucLgacO2W3BhwaHl/wV/SV/pqTxIAHDTcbKIdG9dxAUiucBpzQTN+4MZTGFqdI6ThnRhMsk9dcFM8W3rfd0SbzgyUXv7g1G/4p+bIRSztBbi6RIyGtzdiFKuGBC75/F3qfv+/XBVxTAXbw8kkYLeJuPjFliEi6HwPiM7Hwpc+6vT9QnQIx3jz+KYFQGGHJ3Es0N8Xv+3j/lc/7gQ14OqhzEh4/UarFmNhiL8mBMSNx/HT3WWLqGPzjs2YMSCoy+wAyaRFjJkXZMOFfuSD/Se8RYf+kUvSOykRI7L3YXn8OGvFPVhdyqWoaKGNEyhy9zVca2eygHStOGFhx2IOHdigorbOKrjcx8JItwD0fKQictQWW+TsQ8GQ9LPMOwbJ4J3zmbYJP+hL0TipFaHz+JdEUNmzsywiftQ2WRftgoc7KrP2wzGWF6GaM/dSFvCo3CjbZUVbdjoLNrUIxZDefZceANfUK1h0E1lAzpd4mfTRlz2OyT9PhMIDag82IiL5DvH4WjbHNWURUJjbWHgUbcnRnwImB35Y5X+a+5cq7cEWyWXQVQqnX6J6LKdFbphQDseBfjpoE1ujolI11qtL4hNrf1A6CU1q4Ay5DKp4/rP0cA5NYSm7KO/xYH5ls5aCErvQITciF19DxGHBdOa4ft6Db+wPNkCrNh2cuRz9CR9TRZ6ct6ZHa8wjp+7A1P6gBp4dAcaCw+Iqvy33ZXDThF0VoaTe7yX/XItA0DTOffUc8Oml/lkD83Ew2+Kf+OJqSfh838ds+g5WczDOwgUXybZPxRQuNN/91GnBDQ7MKaTu2vAl4sVHHqmYrVtGA1wNT6xzCPsmv6xCN7YJaN25+/Qx8Z9bCsmAn/KY3wELe94Jt8HrkH+hz5yxplMGWc6FJP3yI6fvbBQh+5GP0XkSIZx/60IDP2Qm/ObX4+etfIqfaLYJcxVX/NOBULHy2GVjboGLtYWANMfF6OxoIgsulU8y+lQC+dGgYflulNC/wjq+QprjhkRn4rLpZ+jJ+19zlc1Rc//nIpxA+fDLoxf8kpUIKZpjwDY/6HsSsCHfEFUvVce4DC8W7ppFmqaGqtknTEzcbSVBbleJdThVnztjwtw+24p6ch3F7xlM/6nFn9tO4I4vn8IQ88vffjZ+G36c/jlFFcy/AgGtSKbv0pX+gf1w6iBgEsbmMGPCL37Di29b1N//+gxpwCioFRRdJ49PAxELp0cdinnuyZ0o5a3cLgJ1j7kqfhoAhGaYWcFwOAqMYXhfDJ+n7EMT/cePowbG5Ui0YnlqEMROXgAwExv6i4AgDhqHhs/MuLGKnHelWo2L10f+Pve+Arqs8s71W790GQgpgW73bmBAmmSQzyUAYSgB3q/fmgg2YEJq75N57w4YEJ5AQIEAotlVtuRd12bLBxl3l9nvPuXe/tb8jMZl5b1m8J4ykl7DWj6x+dco+3/99uxhlmLm2EVKZZu+/gdwao1Dupuy3IXJdHdxoC7vsONwWNgj322NBFXRZ2+D6wGy5yMUCILH/hzy65JnwzN4JvyWHoFtwBENKT4lKlN7j311zCmnlCnIqNBYKPcMZ80Zhz5IGYFuLHZubgE1ngQ2NBuy/bNH400x5gkNmB+yITyhi2EMR3KILBMDDolKxv6ZNci57u34Z+XdnUqYYrBHAQyKzITL0xEwER30DFXh8GkhvZPr88u0famZw9BKyKrDausgiFBqpnX1IBnk4FKh2h1AbqTInR30wL6tFezbxLRcJD1xklzCIp7fzwz+ecXKfHWrB0JhJol/wosAqLhMSUj4AZmz9C+BJ2QK49MD2S8iBazS9qgvx7Nw3xOCntwNMB9mIMSmikPJPzhNfYrZQyEKhn8jfP6n+Ef8t1LTuavjZsj9oPVCnAxwEk0Rocjrw+vlrWNZiE5/v9c0mbDnHoGKKd4D8qi5k7GtHXrVZXP2e/MSEsIXVcFlA4c5JCVrwWnwCgS9+Apf/LJXqOyw6FwGRGZK12N/HXBeZBddHFyJk7l7o5tdiCK1rS0/CY8kpuC06iPEfm5FTZZX2SWZFp3iYMwxi/nFGxjmwscmB9eeANc1G/KHpioC25tro0IaaAGbN3yUVLt0u2SMdFpOOfQfatBZFLywH7ofYjx1CxWBiFoJo/cvqLjFTBEp9PX5BSdnwYNJ6bAbeq2iUEGIYTDJgtakmdDDAgfsxuxkORsk5tLR2o96gRRKSWjiIl2R3ckhrsUoIsyR4Sd9fkY/1hi9slSmKDeeuqxgaPRF+UTkaBz6B+Z69s6j6ev6+zvf3K4AHkuYUmQsCOPnBdEsjp3bDrgphl/R2gM99aUbYyMelyqSpjW9sGoYmFEsVyBzNr3MA/n//GhFLxadg5Wv7ZFdDgYZYEAiAA+tbLmB5qx07W4HVLUZsPGfG5gYVLx+HqBUFwCuMEpTwy3evw3vePrguOgQZCi45Df+yIwh5+k9w/clvxA3udrroRWXAcwCketPAy/WBWQiZ9Y4AayJ90gAAIABJREFUtsuSOgxZcApe7NsvOoSH/nxVy/As75QWUUaNFcztfLHWiK2tDmxsVLCuDVjVasP2kxfFAIoXJn1j6M5jg4I1r+3F0HgOMNkbzUVoZAo+qWyBxUba6829NvRmG+5IzIVX/DShQYZwqJ+YC++EVGFL9PXapOiGKUIhUSmoO0ffcQPQ1SWSeTJqjKwwnQ5QZ2E1dQJ2embTaMgqjp8Oqx6DeVGY5LSZZTmYemQ2yOLH+Lnezg9tJmx2E+hVc2dimlBiiTF8MNKaoq/n55v4/n4FcN+EDAFb9q3ZW6IDH2mE737SAqe19wN84PhFhEVpSdLkGvvFpwqA+0Zofd9v4gAN5p9BBRqtCkLiUyQ2TWXZ7SQDxd6j38DqlkugF/bvm4BVZ4xY32bC5tPALOZYHtScBvP2m8TEavTrbaKwdKXKsewUdEtPIWDRQQRk74TbvdMQGJmOO2JzRZlIl8T+PnahsdlwTSxCQNYueJXWitjIY/5J+MhrP4z7X2tFRpVNgpfTKvWgyRWtcWfXdGoeMA02Mbla3api28lLIngS+gkcsIh/nxXv7m3CbfGZAt5eMVkIjZ6CT2rOQHWYegWI2iOn4T98CtxipsI7Ok0S22l/4Mm0+ai+91g5+/CJKsDQmBS0U+3GMBQD7ZdVmFSTtNCsVrNkyGo5suw5WL4COrK9BvPiubJZrLKcTBayK+KuqNCoy2bv9fzQHJwATolTzI+LQHUsqZlMIaJLaH9f3/z9/QrgPvHpQiPkdJdgzveDoifjwLFrgLX3G+DtD0/h9nimUhfDMyETvnEpIuAhde3vaWcD4UD3x2tgRcibODR+Mmrr27UeqIMmpjYxaWITdEPLNWxqduKPdcCqsyYB8C11QMEhVZLd6aNdUGFFVrkdw9cdg3tpDYaUHReBjG75SfEZcR+/EkMScxESm4awGAZRk7rW/1vM0NgcuETmwWPseniXHRK3RL8FJ+C74DB0Sw8iavURpFZYhA+eVsGAZCsyKoyYWXVDItdea1RlNrC2VcVr9e0agHOO4KBLOJ1IzTh4+irCYlJAXx/6uA+LS8NnB9sE4nur8PZWHAapnt6JMzVfleg8GZB5xafAP6rvx4+yfHK4yaCgkaf45jNpR3HApFgARaPoUhhHoLOYCHZ2KNT3i2JThWIbvIuAbTaaYDVbxNOd7/cs/r29nR+YjdJu5LPvp0+8orl6xqVKu0uKzn/0HjgVUvTq5nSXWxP6YYdETUZdiwmw9w7gG3btxdDoNHiw/8iA4LgUBNKTIqZYk/0OgAPcH8Dd8ztp5M+JeVDMONSfZyQbG556kL7GARxLiy1n20Hjqj+fBNacs2DDObOwL6i4HF+h2a+WVNqRuV/BsLIquC8+IEDotqRREnb855dD99hC6BIosU5FUHSKADiNj3peR3+9Zeit64g8DHlspQbgC2sRsugkfF+tgW5JBe4qqxRzrtwDFqRWGjG5yiKinhnlN0RGT1olWSjcofyuyShccKESOtg71nj0DW1mqXA9o9NF9UgA/6iyGUZL7y2UygOnEBxFCf0sUffRoVEYDslpEuLd1+NGsQnTmULCJ8hgEpYOQN8JcgUNDPJlnqxYUrA6dQgZhUM+KzmSKjdr6qBe2oSWDyNGDKkSmcadPRTla1kdMO5O7AWcwOOZKxAqQegpIHsuaIC4nfZrBU7miV/cOATFTBUed+CoPFHUcZPPUXFvT8hXVrwHcp29EqfCLTEN3vETJAQhJKZETOb7egMM9u/3ZqhDIrd+k3CdhicMLJZQNgK5KiyEnc0mMO9yZ5MdG5od2HTOjg1n7Cjca0XaQUXSazL3dyC12oHA0lpRNTI0wWXJIXjOOY6AJdXw/OFMhMRlywyDohSmg1N12d/Hj5S+0PgsePzwOXgtPSo2sy7LDsOPQ9gVJ+BWWon0fQ5QVp9eaUJ2uRmplSbkH9JjQ323G+MZE2gpsOkszayERygDdifskmZkMTvF1IrMJ4m/S8xBZfkxsF3V2/X7fvU5DGPIRkwR/JLyQQvZ4Kg8mQu5R/f9+HlHZUrgwW1xedB3g7LZfkULQrFZZFDJwAYmVjhtBklulw8amXxFnxTDP/YyX5F2ElsoD6a9DP/YSWIjQIveoOiBwVAbEAAeGF0iAO6bkIWAkRNl2u80Gnq9AeaufE/6rl6JJfAclQnfxCnCgPAPz4dXRN/9lPsbgPr6+3sAnG0p6jcI4FpI2P8O4OSAE8A3ttkEwIv22b4CcKbZpNU4pd/tVnYKQ5ackIQdj3kn4FdWCbcxM0W84x6XgVD6TyTmwiO+73aoff37KaohKLqNeQakDuoWngAB3Jc0yOUn4F5WhawKoLDaBvbACeB0XMw72ClCJomTuwmA05KAOYvcPfYAOEU4VRXHvxaAb/9zLQKjpkgIr28i05nSwUGm7Ei/gSG8eMYkZIMAbmJVxIcKOkmuANsD3JHRSpZGVsJCccoXaJ+iSeEgpxH29fWzcrfYAeaJP1G0GsH08ZFkL9I8/wng0jP0j58oAxtWC7Ldj5gsQwOYeldiLlr7PvxHTJLAVq/kbAQkpoJZgsGSPDPw7S77ClC9fX8PgIfEpoh+gwGAlPDw/qXpBd/2VOA9AL7hrBXrW20o3m8HQ4ozKvTIqzYKgAcuOADX0pNwW07nwYPwWnganovKMeTeGdrgMiFLAJyD04EA4GH0QY9JxZDRM+FaViu0RwK4zzwm+NC3vBq5lf8F4PR8IYDn1LQLB/zrADjzLGk3SgD3jysUjnB15QkB9t4q8EUb34XvyAkSEOyTkAta0wZF5goN1j+579cvZd9+SbkIi86mRgeqiQyaLgFwaQ+ojCc0QrUYQXdPPow+KT+Khat+j1eW/QHz1rz9D70WrXgd81e/jVfWfYqER1+UHSUjEGmUNzTun0NM8ekNSJiEgKip4jHAgRuzHE3Sq1V7rcB3/7lWeLSMNyKAk4XCHrgMgOK+vtdGb0A4WD9PAOcwMTQuVQCc9EECuKjpHdQB/heA72pRpQLvAfCSckUAPH1fJwqrTUirVOE/rxpDFh6H54p6uJQehGdZI1wW7oNuzNOSuUnPjTBW4PQFiet7pmNfjzvzT72iUqEb8yx0ZYckpcdl6VH4zmEFfhoei8qRUwEU0GmRVgFVVogvSvU1bOsJtLhJBS7PQQUgHbYHwCndrqk6qfWTe6ERvrxij1TgvvFTxXCKAM4MUO+IHPgk9P36pfGSTwJT6NOlkrR0WqCiA1ZeAGajuHoKtVC1wulQ5Gvmr/wd7r5vCoJiJiAwZtI/9AqOfAJhsZMQlpwLFph09pSHdHgW/Ef2//XN+6NfWyikufnHTxYApzc4Ocu3xWfjUicn5L0D+Ef763F73BR4RuXCKzFbDK34dKSYxye+/6XcfQWgvn7/3wP4DT3JE1QT/ncA39FklB54D4CvP2ORFsr0Kicyqu1I29uB/EoDJu+zghX4kPnH4LG8Tipaj8WNcCmtgNu/PC8XuAB4BA1/8gcEgNPQ3yM6FW4PvKABOB84BHAOMbsBnMPZvP0GZFTwQaW1UnKrr2NrkxO9VeAEcH2X7SsAZw+8B8Bt9BnpBcBfWfkHhMVngADuGZsl/jGswAngpNT29fzz+yX0NzJTTJkUowKreg0m5l7aaQmgSnYn3Qj5Wkk+eWXFHgml4ACU5lz/yIshzbyW3SOyJZotMGk6wkbPAC12mTX6TZyfvv6MfgVwn9gC+MWxAqfvQ55QsUKj03GssQ1OY+8slOojZ3B71Fi4Dk+XCoYS19DYYjApm/30vh6cwf79BHDP+AKwhdJyziACHvbAKaFGdwW+vdEA0uR2U7jS4gQBfONZBTMPQAA8fW8H8ir0AuC3LTkGlwXHRcnoXnYILosZIFwF31/OEdomud9hEQXgNlPYFP3MAhLfZgLkL+ZDt/gohpQ1YsiSY/AjgC+rg/+KA8jca0f+Pj2oxGQlnllpQOGhdmxr/HoAfv7cZWmhSAFCD/q4TKnAvw6Av7rqjwLgHGL2ADiHmLx+v4kdTM8Qc1hsrrRQOIS1Oa5rQ0y7FYqiSOvEaekC5fT0tVq29W9i5+yTOBXc2f4jL1/a6MYzEDoHwUlTNcFgZJb0wQdKJmi/ArhffBF8YyciMHoGfKJzQCFESGQG/lZRC7WrdwC/eM2CyPvSJRSCQyAm+rD/zQrGLXryPwG8G8CFW3/kHNgD/4qF4iCPAtjWoMeaFuW/AfimNhXPHtIAPGNfJ/Ir9EivUDF8Qws8S0/DtfS4NhRc3Aj3FQcR+thS+MbnQwPwImEADQQA546OoQ9hjy+Hy9LjAuB86z/ngAD4nVvqkL1fRf6+TmRVdkglnlnZhRnHDNj+NSpwDjGPHa2XISYBnL4jHGKyB/51AHzO6reEO08Ap2d3TwslOKHkG2mhEMDZQmEP/POL12WISQCnhxCsZpjMVvHZZzYnRT5kzux5/4SwlhjaywCDf+TlHZkvQRuBcQUITS4Cd3TetESOzxZ9xUAo8PodwH2iJyI4dqa4phEEhsZk4y8fVwKm3jMF2cNN+mkB/KNzJbxUItnipkkF40OjrH6uAPv79/dU4KQRfrzvlLBQrE77V0NMtkK31nf9bwC++ZwDs48AmdXkf3ehoNKArGogducF+CxpkPQdzyVHoCurh+fqo7hj7Go5/h4JeQiLIIDzwdz/LSx6YfuOzscd49bChZaypQ0C5P6v1kK35DRGvtGGvEoHCvZ3IbuqE9mfdYIA/swpiyQS9dZCIYBXlNdq2ZgJhfCKzBHbUrJQ/m8A3Du2WGiE/jFp8B2eIe6G30QPXHzUE3MQMCIVh4/Vw26ww6Jc1cSkkjoPLf/SRt99PZ/v+LTyLG6LS5Ver39sJv6RFz2VGB1Hd82AKIoOM2Qo7p/E1tTAwJd+BXD6FUv0GWWpSflwi8sSL5QFy98WSa/TzrRsiyyOyPm+0s0PF1sxFRiX/RLC7i2ELmYaPGKmSTUeJJFHfefR9jcA9/X3M4SWidw+UROwdneFRGWR82tXzELzVZ1MnDmPZRcc2HAG2NUIbGxSsa5FxZqjZqRUG5BabkTWPhuyKy145KNL8Jz7V7gvoT3rWeiWHIPXsiPwm/5HCRVmKg2n894RWfBJvvWp3RSCsRpiheQfUwSfqEJ4RRfCm7zqmGLcfk8edPc/B88X/ir2t/RvcZ17FH6Lj8N1YQ2e/Mtl5JUryC63gj4oKbUGZFZfxbzjRuxuAnacsWFVM2TtPHVd/E/ACAynFWZx5nVg8xvlQv9zTSyA9+gi+I2cjP2VXzB4stce+JxV78mw0Cc+X5wMhV8cxdDcdJCV0tfzTxEPQZxCrjc/PASzyQDY6Hli0dooZs6aHGBMIStyWG0yyLwjeZL4uvf19/f394ckF32Vn8qBbo86mxmhfF9AODlLzMO8YqfIg5g5str1NDBYJr0dw34FcP+4KVI9kzXin1wgAM4wgJLZG6RH2wPgHLD8PYDzguPH7GYLNuz+BF6RE0E/Zo/YEhk6BHKL888euGz/RE4fNRmzF73JQHWJ0yKA0xSV779efwErztmwvgXYVufE5lYVa5rs2FTnQE6tGRnlJuRVq8isMOPxj68guPRTuCysha7sjLQhPJcdh9+LH8H14QUyTGbqPD0jPL6NSLu4TAFwSUnpFtLQloE95KC4AgSMLIDnw2XwpRvhMoYcn4DHgmPwXnRIKIQTPriB3Eq7LAHwA3rkHWxH2WmbADhTeTacBdY2AXsaO9EpoK0BuBw/u4oXFrwB74gUuMTmSgspMHyKBuD23qXatxrA/aILhRHElKDSjX+GQ6E5CNPoLd1MFItkd/I+E9dBixUmC5Dwi2K4U2Q3yHewbCF5RqQLcBO0ZUcSQz8T7W9zj9TUsxSeBSbmyK6RBmi+0VkyxxkMf3+/Ajil77RoDIwp1MQf3PJGZ+E/xv5GqkWCNCtuVuG8yHoAnR/jshiMaPnCjOCosQhMmiqKNsY/+cVlyQkZDCfgVr5GSQ5PKBDvhnGFS8H7VwJtGUnHhooD+NuFThlcrmsGNpy2YdsZpwQ8ME5s6lEr2AMvOOAUIB+/rwMjNhyC29xquCxugcfiZhH1+JTVwDtjBzzjp2HYiBxpg30bSkxWrDx+7B+TgsrA2ZDYHPGsYKDzkPgZCM3eBb8ysk6OQVd2HJ5lx+G9oBrD1h9H2l498qoUsZTNqDIjrbIdM47osbKZylQntjRZsf08xJVw72UVemaJOulDqLWheAzHZS8UDrxHYiG8E/PE+W9f5XnQ/Y7X783WrQZwr3CCVb5YHIzNnaPtwCxGeW1ibGazwGYyg0ZPsFlA7YXFAmTMWqtZWwxyAPcRHUA2CN5cBHQuAjk/F5LE2Vse3EdmwiM8Q+ZwvJ78Y7Nk3cp785v62f0K4D7xqfDtBnD6gXuStxqdh/D7snBdT5WYRYD6f4J4D5jbbRaYFODfxj2HENrJxuSDiT48Qf7x/2Sh8NiS6UOL0uQHp+G6oSfQQdHCyAG02LRB5qZWJzY0KtjaykxMBVtagReOW5Dx2VXk1tgxZZ8eBLl/2dMm4cVupfXwXtAIXdlJuK48Af9nP0DgzxYhNLwQFNB4JjLO69aq1UKiea6p+qQKV4txY+6mX7QWo6X7t7kY+vwHcCs7CBpvSQUu4csVSHr7guYFLun0FhEsZVXcwIsnzGJgta1JwaYmK3a0cWdiQIOV9rH8zyy7GKsD6LABo35RgqD4QngnFYODdPp7f1ZxTsQxNwNvfu5WAzhVgzKEjEnFyPunQM/MBovmNuigP4jdqikxOdW0W0D1M8WYu945DP/Isbf8/N3q64Ntkh7w5u8iaPOttmPLFUtY/+hiBMdPR2ji08I04QOPg0rPyMFBguhXAPdNyhTZsFTg8VnwSsiXHmZo1GSUH/3yq6qbF3tPL1y2e5SMKXYZwNhUYM22j+B396PyMGCIr0cUn6D9P0S71Rdobz/fPzpb2hoeURkIiXkKFUc/1wytmIjpZCqmQxz2dh+/JqC94YyKTc1mvHYWWN+korTOhoJ915BdbcHkvV3Ir1Xw5IftuGP5EejmHYbvPGZMnoJu5Wn4LqhFaMob8B/9vNCsvBNuPYCHRrLHmQMPUgUT0hAck4qAiDS4x2ZBd28BXLJ3IZS+J4sI4HUYsvgU3OdXY9jSGjxSYUJejU3MqzKqjcgo70BxRTsWnbKLEyGr763d0Wq7T17FJU2J3m3Hq6lYq05fEaN/Fg4e5L7HZOC2mBTsrTwv12t/AzjbkdRakN0VGPlr1J81iMug3WyAw6FocnqqMdlLU+xwMJnHATSfM+O2qEcGPYD3tEyEjRNNsVWuADqBnSskNg+hcYWSR+ATUQDvcLZZcqX482Z34BYXIN/Ez+9XAPcmgMcWgC5sAXFZYrzkGT1VLDbnrHpXAFy4TaqWj9lTifcAus3O7SzQ1HoDI5Inwi88DUGjZgrxnn3wb+IADeafwQuUx5dhAwEx47Hutb91DzJ5n9JU1iS+4O+f6sD6BgPWtlmxodGIXWedWNOoeaM8V6tHZo0JU8oNKKixI32vCfHbW+A2vwZ+C4/Afdlp6JadhufSegTN3g/P/1wJ16RiSPTULb4BgiLzparyjs9EYFyaBAr7RmbD5YezoHtkPrxf3Qe/xUehW3gMQ5Y2wqPstPigRG85idQDVuRWm5Fa0YW0agOyKzrw/AEDVjc4saVFe5BtOwtsPa3HOw1X0S6bF/Fk5SBBfK1WvbEfQRGT4R9bInx7hucOi5mEvVVtUAZADzyQ91RsrmZoFjMZO/94QABa7iPFDFXfqSkwrXbxBJdYNbsDBiPw74/d+iH0t3FvEcQJ4PxdPX1wr0i2S8gsmYCgKD74cyWXNzB2qsyN2A3wTxocO/h+BXDPJD4VC4WJQgD3ZbZg1HQZQP3kiedg1ndJJUMQZ+XNC68HxFmRM9ePez7G+U2bvVGMrahqI4eVF++3cYEM5N9Bwx36QVOUETYqE5lPL2EcolThTqcKGwyMQcTJS8DGej1WnbNga7MZOxptWH/Wia3NNsw5bZdgB7r05Ul+pAUP/bULQSuOwausEt7LjknOpG5ZI9xLT8Ct6C34PDhfgONWHxsGYtODmz7y9CIfOpL+11Ph9uhSuEzbA48lh4Qx41J2Gq6L6uBdehJ3LjuGh/5yBVlVTBnSI6WyA6kH9Cis0WPBCUXUl1sa7dhy1io+6bvqDai9ykcdXUlp9iQyKFhtDqQ+sx5hcTzG0+XaZZDz7dEagLO91+8VeHSahIXTrZM70vG5C0E3Vb4uRTHAaeqUB43ZroDBDmyjwGySQJ5NOz4c9PcPAZtVt7RU43I15gnj/qIyMWzMNNyR9CSCop6Af/gUhMWVSCuFVFC3iDR4J3wzSthbfQ/0K4C7JdIESAPwIPYxE4rgGjEDoUkzEBTxOK5fviQg3tPzJmjz4vvqfSfTRYywm1R8VnEeobGZ0IXnwT9pGnyj+t8N71afvN5+fhArjxgG7pI2lYZR/56Oy1fNWjaiU4VKYpwNuOEAtrYYsfJzi1DnNp8yYtMX5IgbUdrkRFatSdJqsvcZJNwhpQa4a1sLXMo+gc+SWpHX65Y2Q7eyAR5zyhGWuhmB8VNvOQAExGh+5wwDCYtKx7ARWQhKfh4+KTvhubAaurJa6BYdgfvSJujmnoLfopOI3NSEjGoVOfsp3ukSAE872IWSWhOW1QG7mELfYMH28wrWNTiwp9WCNgdkp6I6rGLwz/bx1WsdSHpomtiKuocXwTOGHjDpGBY5TipwxpT1N4D7R02GT3yhxtAKT8P34n6Nq9e76Y0OzXPfZjXDojhhYFKPagaMRhH8XLrivOXnr7frt6+fZ5uEP4PVNoGc7/PfBO+ExxbhghNYuH0/In4+A173pCAgthjBidNBm2vu6vr6+7+N7+9XAO/tD1y246/U84gBu3L9ivgxGwwmWAydAMGb9EKDXtI2bliAJ/Nehn/kk8JDDkqaLWo2hhsHJJNWmCZeKeR5+jA8Nko7ub29hv78vAgHovIQGDcT3rFT4S4VVQpCRuXDKzILnpFFMkkX5V5EBrxGpoESX//EQnhEMyGnQGsxJOZJX5i7ki17jnW3UTo0XrPmdY8/NV3EhhYz1tc5sa0ZWNNmxuYzBqw+Y8XLJ7Tk9vR9BuTWqMiusGESe+GLjsFr7kG4LmEbpQG60uPwW96A0PmHoUv/vSao4iAtutsEn+lJ0Znwi8wTB0othSlTfGsYJUblJBcFXeRGuyVkwiMhSxgmPWIKCiqCYzW9gGfyFATEpyA0KhMBw3PhlfwbBKW+gcB5B6FbckID8KXHRLzDHM/bV53Cw+93oOigA/mf3UBKTZfQI6dWqJh32IlNTXa81mbEjlYjtrVYsbUF2HHic2mfMOhAU0AZZJi54+1DwnYKoNglOhv+scUiOw+MnYBPDzQDtv7ngXtGZCJsVKEolLlTIbV21Z7DwjSB/iIcdk41+aAxg2HN2i6XeZiaW2XBc1twx6hs6IZnImD0MxLUwYeCV2wqfO7te2LQrb63hkYXwHPkZITeVwDdyCkiiw8Iz8T348ah+sQlyQK1KXZcazdh4bKdiL5/EvyHPyE8cI+oIjB1JzA2XxbtqanEZJuMmZgSQHOLW4Rf5/gMaAC//5F8GEhR7eySoFVxTnOQyqXA3nVdy/dT6edgFre9g43XcOeoiaKcYlXEJykHOPSn5oH3jEyVk8Dke6HYDYATcLOT5Bk5VnjOFKd4RmlmX8H3FgjtKTh+FvyTSuAelSVbPvp+hCbniy8HDZXkQovWKg4afXGw5xeTgWkvvS5cX9LhJJ/ACaEXntQDm093YMc5YPlxM9afZR/YIMZWi+rtmHHAJKpM8sGzKi1I22fAT99qx9AlR6GbV4MhK+qlF+6y6BgCFh5FyJxaBI9bCc+f/xZuBOSINAyLoTd1Lkj/EyOz6GwExOR0LyreNCMyArxvRK5wcXkD8UHExX+TVeHOqLS4bNwely3+7/R7cfvXF+A1cQOCf/OJ1vdedAQ6vjZGqc2tRNDSI/jR29cwqUIVUVJhpRnptUakftaJmZUKVjRAgoy3tuixudWKTa3AztPAKQXdYcYagDudZnnwlby4bcADOB+E3pFp8A5PlXuBCsKfT3oJVp541QgnmSfMwCS1sHtnS20Fl2KxouGcA/7D/xOhY6bCK75EqHbDRhciODkPuhGDgKUxIhOhyQXQDR8Pn1FFCBk9AyERU/D8vN0iWGLbyGq1yvOKx+TcZeDZBb/Hd5JSEBgzGd7h6QhJKMCwUUXwGDkFLP5IUf5qDQD8GNAAHhr1BD6t+RwWs+Q7wWq4AdVqEi4zz4BK+zRVldQMngUW688ufF1yNQMTirWqKCpXqImkB5GxQMDkk9QrYuArNQNGpcE9MhWe4bkYNmam3Iwud4/HnffNhu/IaRjCYQyTXMZo5keuERPhEzsFgYw2S0wTa11K2r3js+AZnyOWr/c+OBMnGq/KII6e4A6nTdoD1xzAW3Xt2NSqYhXZF59r9ELSCle3Ai8fV1BYpUfG/i5Jr8mqsSK1Bojb0QSvRVWS0KNbegy6BYfguuAoAspOw//lT+GWvRO6n70K95hCBI3MRmgUXfey4ZeUIwAtD1JaIUTnykOVIE23t5CEom4Zc578HTR5Co7mbKNIqKLecQUYdleOsJZ0v3gFQwp2wGXuJ3BffkQqbt3cg3BbfhIuCw/At7QaCbtaMbHSjqwDqjx8qCxNr9Eje2875h5xYutZYHOrXXYhG88BqxuBN49cwjUhDmoZkbDRTxuobb6CqJ/RuIqCj4FbgfslFEjV7BdFCXg2OJwLiR+How2XRXX59y1JiuP4Pq8JWU4I1bT4t+vgHTkOQ0ZmIPS+Z+AdRWVvJqhyvFnxMRA+NzRBEzLRJZMA7hk+BT9+9HmcO89UesjOnXmZgh0WVXamxJD66ZLlAAAgAElEQVRD9VdROHsV7ry/BEN+8KS0Y8kND07UnDbZ9hW9yT8B/OY84bCYNIzNKQXToKzM74MRNmM7FJMFTou4YQqPVXL9VBs6O4w4d9mBn41/CT7hE+AbVQDfyEJ4jmBSejEI6qQJ8cajCf9AuMhu9hrIb/ZPmCrDFc+7p+D2UZkIinxKks8ZXeafVARX5j6SSsdAgaQiBCXyps1AcGyGiKRYmbOfR2m2d2QGQqMmYenm97XQDLMVjOdlWAuHmycvO7Ds8BfYeBHY0ABsrzdhBznhZ4ElDU48d9iE3IoOpJd3IOOACVkH7Xjkw+sI33YK7gv3Qze/Utz+SNfTzT8G3bLjcHu1El4Fb8H70ZXwGPMsPKKzJYGdx59Wp1w0vuKOgU5+HLYRFLlc4xiTlwkyisLicjE0Jg9hkTkIDs8R32yf5NnwfnAxvArfhNuCfdCtPgzdSq3yZvCyW+lheC2qQcz2Rjz1mR6Z1RYwpDmb4cXlFmSU38DsQxasbQS2nQE2NFmw/qxd1JcrTjlRd0XfLZ9noWCDw6JIkVC67WP4xYwf8ABO9hFNmNi2ElvUKIpX0vDsvO3s8MBpJzlA0YbadkVEPWJRwdBm7mrNRly4bsN3R43F7fcXw5U2t1H5oEAoLH7gS825uxMGSlK+XEeh8RPx7mfNWjSevlMCjtk2oohJNXbJEFceZA5Ihb79s+uI+OUz8AqfICw5igzFsCyuBJ7hA6MFO6ArcJpUBUeNx/tVZ6VF4rCz790FBpOybUfQUWzMfbJo2X2KwrxW/OGjU/hO/GPwj8jEsMQShMRPEwAniLN3TJN/BijfDDwHwufcokrAXn5IzFR4f+9x/GrSC2i5ATDJJSziQcn/5EUVlDwD3vFPg1/Pvrj3yFyx1WVVSxEPvdEpMmH1xIn7v43/DZqu8qmowOpUBcDJ/6W/x56Wq1hLCXkDsLPBhu3NduFDr20B5p224elavVDu0va3i/Vq1kEbHvrgMr6/7hA8Fu6H2+JDcF3RgCHLm4Qj7ra0Dr5lx+D7wsfwytwBt4fmweXeYrhGZ8h5oO8H2RthCdkYyrcxKQiOmIjAkeMRnJAhS5sFpMEjIgWu3FH8cCoCf/48vPJfh/9z78N/4QG4s11CjxbaxtKjZfkJeM2rxF3rTuGhD64j+4ANjIbLruhCXo1Fet8l1Z1Y0gDs6OZ7b2ixYm2rHRsbbdjV5JDjYmfkDn0bFZNkYbZ+Cfx04hwIT3iAV+AE8EAO8sLTEEyGVyRbAJmI+nEmPucmjFTwLgtUixalxng18sHJ+rIS0JwW2XGs3v4+AkY+JvcLCwrugnhvDYR7pLfXIOIdtj0inkLppg+19hGrblO77DRsHN4STBwElA7YDdxz2WE0dSLz1T/BY+RTcL37SWlPBogEv0AGnd70b/pnBX7zCpwMClZkD2eVivmSqasTMHUAql2qBrPFBlWRUkIDcYcdFrMig8/Fa3YhOHYyAiNTwa1UQHQRSNbn9oeCC++4gc9SCRr1HDxH5CPg7ikY86/5aPlcL6By2WBC9alW/OzR2fgu1awjpkibJSDpGYRSSBNRhNDYadKWoL2pDAvjqECjR0gewmInYMNfjkglQiGUldtmp9jP4IwdWHvoC+w8B2xvcQiVcHOzDRtbFKxsVjD3pA3Ta/TI2ncdTOvJqTEjvdqMX/31EiK2nITXggro5tfAZXk9mJ/pwmqc5lFlh+E9vwqBz72HgPQt8HxkkYRRezJNif7X0Xlio8BqkUHVobHZCIzIkr442Uku906F7l+fhe6J+XAr3AzfF96E65JyeCyrhdviY3BdeBLupafhvug43BccgMeiakRtOI7/eO86plRqafO5VQbZQfC151V2Ys4JKzY0QQKdObTceE7FqkY9Xm/oxOGrxDezAJhUqd3y+Y2/OyzBC16JWi90ILdQOBvgUJvHkw9zn8RpcAnPRGD0eMxd/b6cf8XsgKmTFEIGZHYbW5Eq6bDDbtFLb9xsBp5KexF+I54S335WoWwnDAQAu9lrCEzOh2d4CoIiJiK1eDmu6qH1vM0EbQsMHe0yT4Ni5ZNMGG18cNFl8vzFLxGSmA3viMm4474SsWngDpZFEHfy9Ae/2e/+tj43oCtw3thsCwTHpeCdvc1idwnDDTjNBiiqE3abEXYbJ+la1aBvv6FtC1UHLCYzJs5YjbC4cfAdMQkhdKiLKkLoqOnwT8yHH13IBsAT9Gavgf1vgnPST4pw4PBFGI3MxzbDqhhhsqmwmIF5i19H+A9T4XrPr2VQRU8Y95HpCE3UZOasuAjgVGNSpUqzJ24Jf5m9COcuM+RBa4ezF05uMLOP329sx4ZmFZvPOKQvTHXm5haL9MdXNgGvHLPj6UoDyErJJLWQopgDNjz8/hVEbD4N38W1AuKeS47BtewodPOPyHJffBL+NL9aVA3Plz/G7UXvICjrTXiN3wLdw0uh+9kc6H70AnT3z4bu/meh++k8uLJFMnYj/HJ+B5+Z78H91b3QlR2AbsUh6JZVQbekVoQ6LgtPw6usEb4LjyF48WGpvJ/84ArSK83IqrHJ2+xKI3LK21FQfh2zjxixuskBSuZ31pvBh9SasxQv6bHvgh5GhdTBrq8GvU440Ha5C49nrhB2jVdSzoBvofDhyAqc/jB0iPRNehru/FhCJkY8kIPm0+e0dgJ3spwzKSpYJMmcSbUI2Am4mWy4dsWJ6H/JRkhSnrTBPMkmGuD3j2tMmjhF/vzxF3GmzQojyRAwQrHSkIwSQGaCUn2qKbu7OvRyvg0KkFH4vLC6WPCEJubDfcRkBCfmITg5X867e/itVxp/neM7oAHcO6EEunAaXKVjzL/nwdypAvoOwGaAXbUBDqNQoSiaUBQHnJyuUyIuVboBdR3AT8bNFsXV7ckl4n3gE1UgrI1vKrLq6xzk/9evCUyehHseyMK+Q9cEaPnggtoOtpIUls42s8ybyL759dRlcI8eB6/4FMkG9YudLP1+7+g0oVC6hk9BUPLTcB+heVZ7Rz+Jdb//q3SfuJU2WjohVqmKgusAVtXpsfasEyKvb9EEPtsotWc/vA548ZAidEImueeXG5FbbhDDq1/vsyDuzYtwLz2IIUtq4LnsKPyW1MFzQR1c5ndL71edgG7dEanQKf7xKKVD4BH4LaxF4MJqBM+rQMi8CvguqoX3ggPwnHsQPguOw6e0Hl5LW6HjWtICt7IauIgvOX9uo4h1CODRW1vx5D4FxQdNYKJQWoUJ2QcdSNlvEAB/4ZQNS84CG1sceK3Jit1NVqxvNGNJgxm7zlvRzFBWhx02GKEnw84J3DB0YfsfPkBoxEQEJ87AkOjUAQ/gHgxliMqEf3gqguOKpcXmlfC0DDQDoydi7oulMNxg2jE7kNzJav5DwkyxGjizhaI3AEzHMgE1p80IG52DoPumiv/M/+t1/W19n2dCFr53fxE+Lr+uPagcZjitV2Gzm8DURpvVKLMN9vvtVkWGmF1W4N29dbgn+T9Biw8qe2m4x1YlAdxt5CT4xaUjZNTAcGsc0ADuFZ4pW5WgxBK43DUOzy95DzzA7EfCSq8UBTYjA1k1dSErVJuFPFYFdhNN6k348ot2PDLlRbH8DL7/OehGZsEthlVpmmwtaX0qK7abtkZv6W5r0r5eaL5itpSvMQFiMqQaCIpNRWB02lcSXk63OajTxabAPTELrrHZ0N3NCnoWkkaPxcFDn0tVYLNZQAqb9nfZ4DTYSMCBXTHBbL0Kq8OCDTvexT2j0hASlw3KhXt7/T8eOxeHWxiyxuNHUQ8dP8y4oaiov27B4mZgSwuw/ZQdO5ut2PyFgsVNnUIx3FKv4jeH9ZhR1YWscj3SK61Ilxg2FZM+7sQTf7mAYWUNArw68sIXH4Fu+Qlpd3guOAK/+UfhVVori2DvXlqrrbIjcC87Ao/FR+FTdhBeZQe6v6ZWhpKs6IfIOg7d8kYJZhiy8Ci8FxzE91cex7++eRGTP7Oh4ACQ+6keuftMmuNghQU5+zrw7CE9ljRasbrFiC2Nqvxdr7VYsa7BIpFyH18WuyrAzmrNLDc7xauH6zvw4KQ58Lh7HIJGPw1dBBPoBzgLpZcKmfz5v9Z8ISlNcHbC0XFdFEuqxQEz3RS5HZNCwShFkdVqx9Y9H+POeyfAI3KCgLhntMaPZpUfSrFMQg5colPhNUqzb6WAhtche9E9iki+/3WuT7ZQ2a7gLoJFHMV5QTGZmuNkdBbC7ilBWBQ/nw3XqHHwSEqVbFyX4bkIjHv2a9w/Tlj0tKoGzNe/ANCFtqvXMeaR5+Ad/nSv909v99e38fkBDeDBSYWSBM22AIHuO0mT8d5nDVq/Vs+IKFXc1WiJaWagHzniDicsBloZ2mDvuixf23TBikeyyuByz1iEjpmOgMQSjVIYlykRWD28TlLuuDXisCwoqe9TZlKNGLXFcFRandIugD39HrtKCnLEk5hS51FPSy+Yn7tzTA6SHpwh4K3Q6dMO6A3tsNv1UMnGIeJaIcMnlf7OMMLqsKHLBsxc8I7YqVLM09sFFJaYiecWv40Osqos9JUh08csffYOAH9qA9Ydbpf2wtY2YPmJLrxxCVjfSJ60iqVNDrx4zITiqi5kMBi4UkEWrWerbELVe/g9E5J2nkfo0sNwm18Nl1JN2s5YNq9Fp+C2VFsuiym6OaktioK4ltaBTJL/ufi1/D56sLjOrZRBZdiSg4jb3oLH/qZHTi2QW23DlL/dQN4hB9LLDUjb24XCKiN+c8SGZU3A1vPAtjZg11lVHBhf+xLY3GjBm/XXRLQjDzS7GSq50gA6LMBvSn+P2xMmw5/zE/qLxGm2xQO5B97b+fcZOQn/MfklXO5UQIMrKGYRxzmt7IHzXgLMnfpu0ytt7sRrZc3vK3DHqHHwSc6VIBah50bnggUXudK3/bAELuHjBLR7XkMPgPcYSfV8/GZv6UzKYooAzl6+hC3w31TgRmThtsRcuN09UTQFfomahUZQYhFuSy7AD8YU9nr/sOpmoIUIAq0mUNTz0uIt8B7xawQk/BPAewWQm508fo494LD7p0M3PBUBSUVCro95IA3nLznk4qJ/Mb0bxNDDbBF2CmlBJoNRPI6drKKcdnQZbbhmAeateR9+9/waVGOFxE2HO2ORRudpis2YNASOykPImEL4cXjxTUQmxWj+5rx4OfxgOo5nTI6oDL0TC4SJ4Zs0DR6RlP7PwG2J0xF0z+OYkPsKOtnWZwFE8DZ2QeUe1mHUUsS5pzc54ZAHlRkm/TX52opjV/D9UelywXNY1dvxpbAp4ucleP3dI9rvshphsepB5gU3OpeNwJ+brmFDaxdWtNix8zyw/qgFu8mTbjFi03lgWaOC3x41Y2q1ETki8rEhq0ZBzkEHCg6pSKuw4MF3ryB2eyPClh2B18JauC08BrdFJ6FbyGQfgncddIvroVvSCN3iBolq05XWQbeEH2uAy/IGuC6tg1vZCbiVHpUK3WvxMdxVug+jt57GI+9fRUq5WVwTc6pM4LCSjJPUWhtSKrtQUN2FF49bsaKRgRUczgKb69jvNmJ9N+d7x7Er4szIBxiBm3xgp8MmuaF/+qwOMT8vgu77TyBsVLHQMXtEHYMZwINHZQlYzV/zvoi52PtWTTe6wx1UWGgOTlYKd7U2O+xdZGtAaL2/e68KoaO4Q9bMoobeN0s8+XXfGwdGw31njFZ5swLv8SPpqcAJ4j2V+U2v0ZhskPmhfX+uDLpl4B1bCPeYAugiH0XgfUydKoTbiBKJZnS743E88PA0VJ3W7omb3T/kCjrNtOIgTgB/+fA4vpswUfzzZcbRyw7mpq/9W/reAV2B+yTnQBeegoB7p8MvsVjEN3ckpOOxtLm4woKRQhRap3Gap9qhGvVQTAQ6JywWmySQkMvKfibphlRb/f4vR8RvfGi0JoKhQpGUNqaCE1xpRctFsO3rCdIqbvow5IMBzlIlxBfDLTYPQ6Iz4RE3FTr2pBOmweeuSfhO5Fis2/qR9OIMXXqwbcLKW8AbZtgtnWLGT7QlDx6KRRvo2lS0fq7HmF/kwvMHGt2LjIPeXr9PUjH8YtPwcMYCNF/UQh5YcdLoyilKB+AGgF2nL2Lbeafm1NcMbG1SsPWMFZtaLNIjX9nixLxTKp4+aNZ64fuNyKywStI7KXv5B1WkVyl48lML/uXtq7hrQx2851fAd8lxEIg9So/AfRGB+Rg8yk7Cc+lpeC2rA4ee/Jjrglq4zauCz4JKDFt2CCM21yFx9xlM+PCahDKw4s4/YEdWlRnp5V1Iq9QjvcqAKfvocWLG3AYVq1pUbGy2i1x+Y4OKdfUq1rQ5sYae36fa5e9UyW5SOAvgLqRbtHPiCzyZuxD+MSmS+8mdjW90BoKiUwZ9C8UnkfFtGaJofb/8ApiRyt2c3XADnGYrKi8yB1SDGeCQ0+KAtYPFEY29gIP1ZiT9WwH8Rz4Jn5gMoSmG3jdThujMpyXw/n3FTQD/+9Xb9ekbkyq7Ve5ifeOKwexQz7hieCaUwCuxBB6jc+GWkIuA5OnwGZ6D26PS8MzLr6H5XLtWkPRy/7ANCT6kFTPOXDDjvl/MEn0BSQ6uiZN6vX96e/3fxucHNIDTbtYtNl0LeojXWBXcwt4Wn47cF9+EQa8p5KwdekkTYQ4hn6isEkgnJK7ToJ7Azigpm7FThn4NbXpMyH1VHAu9RV6fLzxZj5E5IL8zKGkWfGNn9PkEctpPUY34lkQxbKJYHkTeDEUVGtosUSMOjZ2AyUXzUXOsFRazE1Y2+rljZc/bzim5UcDbpL8htC5SvlSqmxQrHFanVE9PpLyA2+PHIyA2FcPunyn+Fb1dQGQp0G7gtlGZKHpxp4hW2O+l2b9Cnww+NJyQtsLOI19iY6tNKtbtrQr2NNqxsckkIE62CtWaC+tUEcYUVRiQtbcTGRVGZFWYkFluRPo+PTLLTcIISa2xYPz+LvzkT5cw5nfnEbXpNO5cVoPguXvh/+on8H/1MwTM2Quflz7GsEWViNx4Ag/8/hweevcSxn58HSn79ciuNqHwEJBb40RmhV0qfbZuGI3GlV5twXMHLCithwhzGFJBNs2WMzZsanNiXRuw7IwTO+uugZAtToNOBxRFkYcXH5rtJmD2gl0YGjdR6+EmTReQYhssJHbwA7h7zBQwNzUgqhgjflSElqsO2ODQlM0GuwC4uCpabAATLKyUO9ulpWLTX4fTDJDZm1a4ACFRTyBsTC5cwtPF/dI7Yer/EawJ4NyRcvV2fQYmMN4sXST87hG5YifB1pXkBiTkwjVqOoJHzYTL9x9H7E8ysevtcnQa7OBrpjFXb/ePTW8TL3SDCjyW9gq+mzwVXiNKxEfI996BTzPm8RvQAE4BCtkTt/1oFobcnSoDzYDYfKka6Pw2d/nr2lCTst8uDuGsAtYSEyUgrjGEzJ0McjUBCoFQr/U1jXb86dPP8SuKMr77HwiJnIQ7R5fI5Jk8ar/o6b1eYL1dgAxKFYVhLHt4xUI/Y1UeEDcZAfFjERqZhnt/OQMUSugttCm1a7QmgjepuaYu6Xk7baavIrp6DIfoVUERXacJKJq9WYIFAqInaQrThDzpp/f2+qSaZKLNyCnSd1+6vQJdaneL3UJKFZ+ADhHnXVSAN1quYdNZA9ae7MKb9cCWMwo2NpNLbdHohm3AyhZgzgk7njlgBN0L86rNKDxoQ161EVnlncjcf0O42PlVXdLySK80Ia3CKOHJKRVGpFVakVZjR8ZBVYA4s9oqSUAZFXpk7GsX/nluRTsKq7owcb8VqRWK1nuvtMlDggPVaYfs+E09sK5BG8JubnZgQ4MZW8/YsK1NEbn8yoYu7Gq24ksedQ7FbZoyj60jPfsnAJZs2YeRP8qBb/hk4dC7jMwRGb8AeGLm4K/AYzJw549/C93d2fCNzMSvMhfggtZNAD2aTdzR2jVzK5vBBIWRPrzoWCRJv9wGtcsk1fiOt/bhrvvGwydqLMLuK4FuhBZdxmElV0/75Gu1TnraD4mapw977HS3pEupyNljUuAd+RSCIgoxLDoNs+a+hi+um+SBo1j5B1hh6+ro9f4hEPBUz5y7FSFxk+AVkYeQUbNlB872Um/3z0D4/IAGcPqV0HiKIoTQpBIZkgwbMwNDRkyCZ2wGvjN6LJbv+gQ3NDYQVL1BYqGkjSIKYVZUpEkpUlVIJU7Op5OUKZu0Ki5ftWDXnk/x6JTn8Z24sQiKnIDgeG79+i5UYGq6X1IuOFihs5nviBQEhY/H90ZNQMxPU/Dank8lEo47V2PnDdnOsaqWgSw/SGUcG+HsefOt3SkmQzQeIqqyRl6w9j3cHp8OzxHpCB5dDI+YdLiGp8r0vrcLjPxWuqx5hGfJoDX659Pxx48btYeiRD4Qxhxga4HAdgHAGyc+x64WFetPA5vOaVQ8hkBsazZj51k7tp9zYm2LA0vqFbxyRMGMyk5kfXYVafuuIbPGgNwDFuRWmZDDNku5HuRmS5ulVkHeQTtyqjXONil//HxWhQHsa0tvu9osIQwMYpAwBg4rSV/czyGlHs/VGvHKURMWn7JhTbNT4uG2nHFgQ5NN2iekQW5tNGNbfRfeaDXjqqLdwEJDcPIvdEibjY2DPX89ithfPg/3u8aK+VZQfLEcp2BGp9HLJVEzNhrMPfDQ2GJx5aQpmgh84rJQ/NJutBOflS4hCRDknA5FEu35lveSqaNLY6fQQ1y1CW/crjhkGDpvzVv43qgp4mIYOootOo1xQgD/+9731wFy95hJYrUQmFCIwJhi+I1IR8DwCfhO4kRE/yQNLy7ajVNNHXIfa2KcDqiGdjiMfCBzx3Dz+4c7rB1/rMYdCalCavBKKJQdxNDRJXD/wT9bKH1+glGMQqvOoGjN0IhGR0yZDh5TBJL0vWKexB2jnsKOP5bLEEJOmMStqbAaTTDZv4TVfkOi1ywmrS3BqbO1kzJaC2C5Jq5sbBl0WoHyk1eQ/dttuPOHHAD23W3NIz5N8/oQqmIuov91NvJm78Zfqy6gndeXegMOhwHgjcALzqT5UVA0YlJNQhWUEsHklJ432yasvAneFDGVbvsThsU+KWpF7+hp4vtN58GgUUVfyy6XsnoeX1Y3VNeFxKfjp0/OwkcVx+R5wf/JIBVW4USzvXLZDrzRqGD5WWA1/UNagS2tVuxsNmFnk16AfEsLAxHoMQ4sq1fx4kkLpp6wIvOIBZOrTEjZZ0PmPodU4Oxb0+GQXG0OPFmBp1fZpGdO8GYLhl+TUWWRj6dWK0ipUjG5UkF6jRGZVR0oPtCFl46bsazBKjmWrKz3nLFjQ6sB61rNmjz+DMBKfOtJPd47p6BB/jDOS+gGQzICW1JkMgHvflqPHz/1iswuKEGnpQNT7nn9sR3GEGVSUQc7jTB4JO+vXHno+42eAfcILdNz3oodsDs75ZoUd0LqLFQLLFYDVHJX6XdlhviIm0wG0SWwzWc2GeQybrsCrNpRge/9+FkQxHv63j2g3cNI6a3A8GSoQlJ3MTUyB7fH5uFXkxZjy54jOHud+1WziM/YzgGNuNjeoQKLrW16VImVKWTgz5nR/7x/fvfOxxgW/iD8GGicOAMu9OIZlQ2vkSm4Pab3GVJvr//b+PyArsB7OwA+CRw80uchA4Uv78EXVKCQE86kHuM5QNwKKZ+FCDKkScF2i419cpYZmoKTbQma2Ehl63TA2NmBE0cO45WVf8LDk1/Ed2KfQOCIxzA0NlUk3gGROVJRk+BPC1S65/EG581A4j/f8mb/bvSv8Z8Tf4tXSt/Ah5+eQlcXr3xAMbCCMWp9bu7huFuws8rpksrHiQ7YlC9lWKTwgqTJvqULTvJ0HcDFdgeeWbi5zw9IeqL7xxQhJGEGfCPyBcxDE9Lw75mL8NZhTTwk6MbhHkUQilEq8SsAPqg7h5VfWLGsxYR1rU6R3u9oBrY3csjpxMY6i1Dz2LrYTKA/C8nYfOmIEc8yQKH8mgbKlT3gTQA3iWKSYM3WSfpBCFBPqjQjo9aO7IMWEeIU7r+OZ6oNWHDEgqXH7ZqHeSOwvYmOgqrw1NecswtFkL35lW3A6rPAmhOd+KC5Xe5xPsiF5syer6LRJ7np+Vv1WTyUvVJ6w71df4MdwOnKSbtZvhUDtMRceIRPxJ0PTMWCN5qktSRmTxYVMDplsOkwO6VlYmCf2WKF08SeOO85jdpqNzE5yyiFicUBHDp5EQtW7cF/jJ8tlblf5ARxxaQtMG2DKZahyIhvfcJz4DUiS6yE+f7t4WPxw1/MwNTZm7HnzwfQ3HoFUojx6cEdAqO4WNCoqtji8obig6fT+AVU3IBFtQqfXf4G3ne8l5xAhwHY/fbf+nz/9Hp99LSCbuHbQQ3gAcm54vEdlpyPwJHjUPLCDpy7aAMvIg4tyZmmqoxDDbJS7HZVFIysYiWd22IWC02eYFppUpElDV/FLiBO1grPebsZaL1oxgeVDVi982PMXfUnzFv7Luav24M5q3+Hl1fslrVo41vY9Ie9eKe8HvtPfilUQG7MDaQCmlQRHDnIhmEgBRPB7YyDs2piJJsDDqsqTot8bZRIEtCF980+JKsLFfj8gg3PzduNwHt+1ecLkBQtzhRCk6Z1m9fnwi9iCsKSUvBwwXJU1J4B82550Tus5JubJQiZBCA+Kz+7YMObDR3YfLJTuOHrWoHNbcD28+w9O7G91SaDQ9q0ctC5tlnBmmYVa844saKJlbmCF47bMPuIGbMO6jG9qh1TK66jeP9VFO27guKKThSV3wBNp2YdMeGF4xbxL1nWCGw4B6w4Y8Gqs1bxLN/crGBrox076lXsbHDI2nAG4uu9+XQX3mrRo/aaHVedPek68tyUHQaBm3YwVYfPYlLhYvhGjJdQjF5v0EEu5KGykCwUUiI5zKdMnjMa3fd/LSC+dutfRMfD8283GmGnCpoKaNUB1c4hEwsL3ksKVJMDilGVe08CIhxWWA+xZW4AACAASURBVCwdwvCQbiCAS10OVJ2+hJ3v1Ioh2/y1f8Tc1Xvw6srf45UVv5N/r9jxAXa+cwBvfXoaFzsh/iXcHYvfFq9DRRUpPF1JqQPh6wLva4tVdt18raxyrBaTtFbYw7eaOrXwClBRC6zd8Qnu+P8gtJnX56AGcPbIaZfJPm5YQi6GxU7GI5NfQv1ZExlPkpkpLA6nSVolTrJRCNJ2Xmwk8du1qlvaLnapwlmJs89HtLV1tWvtDVJZHKoALh8CNrtTW7YuYYnwd9hsXXLB8q2DnG1YYVe74KAFrl0Pq4UDIbP8vh7fZfYUHaQ/WrsfOkR7VjKsaJgWZ7kstC6DySjBFuWHLuPB8XMQNGKiWKv2CjC9PPk5YNVu4FwRRtD3ISguB573jAcr8ccyFooHDY8lbwrFSnmP5lBnlr4DcKkT2P+5ATua27Gsvh3LGk1Y3+rAFjr8tSnCUiHdkF4qW5rMYo5FFsvWRis2nnXIolz/fy5+jv1rAj9ZIxvPObHujIL1TTZsalKxrdkpiUGbmRzE/EqhNdrAPMsdjQ7sagDW1inYedqAD+ov46JeM+6X9pTTgXZSUB0KMUAO+UcVZ/HwpFcxNC5F/Mp7tvs3PcaDHMB7BDIUmYk/PhleY4oFxFmJBw4fh6IXtuOSaMd4ERhgNV4W6irMBHLNAMppM8NhscHJNqDDKck+IgxytAOOGxo1k7scldWyIkWUzUK2iFHYTmQ8cfW872B700k+jA30ylRUTRFL3yNV2lzk0XI3q8DSxRtFEx1xd6BwCs/bT3a2DimEjF3XwfN+Ra9g+iubZA7lFz44hpQ3vf4GO4APSyyC54hUGXCKdSqDkcPHIuZnhdj1fgvMWsdCqCgO9sloFWnnxJN8X20g05Nb2APmBHBW4tJOsTghP0Rvg73DBBEykC1iU+SChTwQOJlnf92qgb3JAKehS5ZqvAKH+brW0qEdqd0ilT5N5M1Gk/QMHXJR82Yg8ZalhhVOgwUwsm1hhMVmxXUrsGznXkT+tFhk8hyIBsX2PTU8KDlTWCuBiaRPkhOcJSZY7Iv7RWWJ/cC/T56P198/Ch4KDcQNIpjSWlWaDekNO3C0044/n9djW2M7NjYZZYC4tlXFuha7qDYFjLur5O0NVmyrJ6Cb/ttioDLXthaLrF1NJlDmvr3VKgySrWdVbD+r2b9ub3Li9QYVrzVrQM8EIVbjq1otWEdnwWYr3jx1DXVkmPKl8/Xz5rcZBBSs/ANYWarA2x814CePvwLv4VO0UAkqZxO/htfFIAdwuuuJHXFCvvh88GHOVgor8eDEXGF9DUvOxsOZc9B8ySKYqIEreeE3oCgdUFW9tNZYdWv3kh1Ucsoy6iFFEwV3rJRNDE3mNU5aIoHWpC3aHXLXycV/8+NGI5wWioo4TKVKlHm4ZjDDk3YZXFbeJ3yu0EWRP59PY842WHEYVTgtHWKLy1N/pP4SfjnuObjf9RhCkkvg8Q3cP72B67fx+UFdgYfGaDFcrsNTEZQ8TYQWQ+6eJGEAQxNzkDltJU41m4XEYWcfQ0C2C/pr50GVJsGa1TCXAHZ3Jc73pRIng4qNUlbGQl5xiHy9J3ZKZHrdFbPTSFGR+l/9QFao/F4j9cgUQWjtEVbbsg3kA0T68SaYze1Q1HY46X6ndmo9WaddrvW6M0ZMLF4K7/An4B6VIinjVKW6j0jpcwuFae7e0SkggPvHZ0k1HshhXUwh/KMK4RlTID4TYx6dheXb/4oOIqG0U7S/xyaiFy2lnffNFQtQe8mGt5o7sO30daxroaMhZKC5scWJjU0ObGhUZbi5sw3YyuT7s06ptAXgW1WQr03BDdfuMwq2NdmwocGKtQ0E5u6f1wxsrndicxOwoQVY1wKsZu/7jAU7zhrwh8/NeO+CVXjtPPxUTNvMWotKKjfQ/8UsvdCNO/6GHz40C97DKRqZJhJqz4hsrS/cyw5msPfA2T6jLJ0gTrYXWyqsxNlOEf1CYrYwvqisDH8gH3/Z2ybYaDGzndYFk7kTVpsBDmHwsOCwS2tSpPjEUn6I94HdKdW5fJyVO5e0ObV7xGlU4TAosvhvmLrN6blLZhVG/jnNpqzabpWiPPL1GWZOwKaC1G5ph9PeAbv5moS+yMOaQ04nsHzjexgxOge3J04V0Zzursnw/2HfC6BvA6B7+x2DGsDdvjsBd4yZLoov18g0BCQXY+j9MzUXvogshEamYPiobCxc8wGu6zXbA5WUPNilahCQJvtAVf4biLMnLgt2mbybzF2yjeP38WJlFUKRgPSvuRW0KtITZF+Q/+b20MqLlADOdkj3Q0BEN5Qk2yySMKTwIma7BlZhyxhsN8RYiN9y4YYRi9Z8gu/FT4LHXb9G6OhCBIwqROBoJqCnITi5Fy/13sCHFqOx2XCLSIFXbLp4whDEua0mZS4gpgR0g6Tvh+fIifj+vWmYOWeXtKd4U3B1kbfOKSd3Dtw+d7cjPrcDx43AzuPXsbu+C7sbjNjZaNHSfbqBnMC+plGRtbZJxbpmB9a3OP/b2io9bKcwXTa2AZvPA/Rk2UIAb1Cx4nNg+RlgZaMVW+o68eeWdhy9YseNHnqgpMjbpfjmA6a764MOox2tbRfw28V/xA+SJ8H1e48idNRU+MZPhQ+TyRNKhBfd280z2AE8KJ4RdQXSPuupxDXPHu0B5hOfiuDRhZLB6h+VL7qFl5b9GZ9fs8PAe4ZXrs0BafEZCZ4GsJ0igxOLKvRT1cEWiEV64eTbs1WiKt0iG7YOuxfnQSxsehbfl8KJxRMXuyoWp8yJOPCXHACOhZgqRUIA6FvD3VX3nMZqw+HmL/Bk1m8RGjkewQxzCZ+GgKSZYs/hEjm2zwVQr9fH17gH+/ozBjWA35ZUCPd7aO+YiaB7mTw9CQFJBcK7ZkuFkUp0SPMe/hTu/dUzeO2d47hO+xR2O0yqgLY2WdT+3dNO0XrUCiw2Gkh1ClgTsOkjbKapFD2EFat4kbOvzb4cWyFc/Dd7dbSqZNVHbLNbNWCXi5M9b0rgHRy0AqrBKGBOMypehs1X7Vi04SMMH5OKgJETERCRIrz0wIR86O6ZhCEjpgiY04GtryefKjb/hGIwEV4i5uLSJcFcq8yK4JOQDdfwdPjGMJQ4C4y4eyyzDG9+fEqCfvlc4gaEvWSVAy3h2Gu7WN5zrNO+tAFVbe34w9Hz2HX8olTmWxr12N5mx6ZmBza3OKVfzp45F9/nx7noSb6+SdEsbdtUCRveWK/HjkaDRhM8cQF7zrTjYLsTX2okCQFroUmIeyMf1txjayBDACff5PX3j2FcQZm4Q9JKgNcPY90ooWbv2/2eVMnh7PX4DvIWCs2nfKNyBMR7KnGaRrGVwpbasKR88cQOGz0DHpFsqxTAe+R4JP5iOko37wUF0KyHnLLoz8/5EVN9uBO1wWE1astm1tqHikWufdq5Wgm61GI4eM+Ypf/NOZHNavgK5DmYlB0rB/j8mSy2ehYLH7JjWDfYjGKHbLRboVeBo00dWLzuPYTGpYv5GLNB3aLzZZH9wpCHAKZyfQsAe6t/x6AGcH9ywhNzpQ3AgAbPuFQtPiw6Q8QXIh5IKhBQ94lOQUD4U3jgoWJs3PohSASxmYwC4qzEpRrnRaFwm9Zt4kP07elLk0du4pbuvyoC6aPb2RO3aUZaTLgmZ5GBgzYbTEoXbDDBphpgsxuleifg00ReTPNJc+T+3gnUNX2OaS+sxMj70hASyTSaaeKIyF4sWQKe4WmgwGDYvVPheneK3HR9vTi8Y6fDj1VnHA220uEblwIm2rMKD2CYRkIa/BLy4B1dAp+YpxGWNFOyRu/58WTMWroTba03YDQ6pRJTu9sSNIISk3HSOtiS4u7XwWodoFltPYB3vjRjc/1lbDhlwMbTRmyuN8tQk+2Sv19UekpOZZMBG5o6sP70JWyvv4qPLttxyql1p8S/gxjNG5znivRQUG3bpW2AuFVgH8xpQFtbG15esh0/+FGOtKJco4vA1BpyjT1jJksgNFNYgqJztEi63m7wQQ7g3GkRxFmJ86HNnjjPPVsppBYGDc9BWGwhxKUzOlXzAE8ogOfwbIREleBnv8jEmnV/wEVOObmv5ZCRbpndFEN5ussc6b92oWw7CpGFXG2rSavYe+4zu0Xelyqe7DHnDdgd12FT2jV6LSt3u0VjkLGfzl2f2QKjoUt2V43nbuD5hbsR/y9F8P/eBHhHvQLXiGfgkVAC16RMeP2v9r4Cuq4q/T6NPYlLW6AafS5J2mLDAIMMUKAu8eTFPU0F7+AwwKCD+8AgBWbQobgXGShaXNsi9Xie7//a3+3r9N9f6es0MDTpzVp3veTdPLnnnLvPd76zv70LiA80SSnFGMfe4agz2Ht4SAN4uIsPMQlC2guhajDK1LLAoOHU6/Hg06uwkXhNoGGemrKaZFsMbNi67OuXJSCjBFn6cRD5euXgZifBPpRyCUXw/FvAq5/v07mVbkXfTp+iXcJ0vBd4czVwyd9W4NC55yGFuuCGKqmgZIm71jb4CDtc+wz2/O9nnY0r7nwdn69XskRcUkuigpG438saTvjJ5gkEhShA5hkBl/cdiQMSLu/scass8PZpD0bPjPZ5hFbV9PDkKkARIQjRAvmpPknucDnN1329zoer7nwFB01fipQ8F+ImuRDjHHyhVoSjFNo8ZTIgGMbnlGH8pCo89OJ3EL6OLyjFLgM/89hy2Ss44OB2kTIgYFJKmOBJISjZUAw3gfzG53k/aXOLkHlIPdr+dCdWvP+j7FNK3ptBDZk+zFfThJwbjrKBSd64G+jlpidZYD9/iNIoN0AZELn70d+9RVhbDLt7+3tkc/rH3gAeeu4TzK2/Dvs7aLjsEn0fFrQNdnwPhdfvEwDOgRaq/iKo07mdIE6RojTzbBgOrUBp62X4+yNvCt+bBBBuknP5phxbpWqZ35PiARYQcGApxsBiYc3fBaH8CPQOwNPZI4GIbLQTuykK1Q+8+PZqnHbx7ThqVjPGFBQije7muYXgaoJpH6YrtJYqqeDc2wcQKXdjC0rxx+IzccN9L+C79R4BZwbDBGehfAUJr1uzz6R+hZbAAUXtj1jN/2fKkzZ5W+05BdvpskTVuxDGe+GDJ+hVDlLMyCrZmiJhNS0pnny/0P+v3tiPm+97BjPKz8XESbUSeTFlQJs+qaQcJAAmTKlGjLkcXJanONrEqT1m7HSMn1yGdMtUSTkx7fRzB8E7OqtIUdwTLna56MYTvAnme3v/J0xqQkJ+LfTmYuhzposUxe+mNmPJObfj4Sc/wk9bPIqj0da5mnlrahH5B8gsIaWXUrW7OPwB9PX0S2DFNA1HEQkmn3zdhYeeeAuVCy7FISc0Y7SpECm0EbQ2K5aBlirEqQA++E2yvWUAEsBDB78TQVzRZaiXm4RRD5fOcYa5iMudgdzD63F06QX4yzX347a7n8bTL36MT77sxEYWfzFjQhKGF+jzBtDr8cvBdByPjV29+OLbNXj7/Y9wz/IvceFNz2Fey1/hOLYNo/JKkGwrRJKzFKn5lQLczHGn2eqRntcim2eUnmVKQ/Q2Bgkwv3b7a43FSM+vFWU+KioeNec0XHnbU3jvq04h3xBIlZ+ALH2Fwkn3b6ZZfErZNW9K4v32B0GaVXRKTp0pJv6XomHDTeSgxOHMi1KgjCsgJQ3Fm5x989a7a3DzHf/CHwrPwMTJFYjPKkSSoQ5J5gVIMLcjztoGrTm84UW49kvKq0QsC5/yW8WuL9XeJqk7GmXEm+ZAa2/Z5UERMQL1qMnNEnUz8k4voA1axZAA8AhLGaJtlaB1GfcQtKZyaLJLJBjZP78J451zcejUFlR1XIWLrv0n7nnsVbzy7hf4bmO3RM/9fi92dXy1oR8rPlyDe//1Js6+chlmus5D/tHNGJ9XgoQJ0zA2v0m0/fUZNUg1dyDNvhDx5kbozBVIdFbs9RNguPG1O+eHdQS+swYIATkfKR2rNVDQqQ5aik3ZGqG3NkgZNV3SCepp9irRCKEVGjWgk83FSDOXKIe1Gsk0CzaUI9VCh5B67JfXIOX29CGMN5NXXC6FEbSaknyyrQ4x1jpEWWoxytGGFLNSQqwz1MiGknxnW5VsLO7s++9Vz+XVI8pQqYg8OZrE7io+eyZsxzSg+oybsOzJ1/HB1xsl5UEIZnTMFY0kQZlm2RY9s6BG0dsga2EbSEsqhukoFoDIdum21/C1jNxDkdln3/Thbw/9G/VLbkb+UW1ijMEcPkGFzi7xllZoclj01YgEawvoljTYtqR2TDyLyZzNiM50IcHMIhjS0+pkFSUbpNwk/ZmDaRMxhrC4xDSXAJ6ap6htSnn7Xj6BUzyNlFauQHjvkMqbnL8AOksjIrOroc+tkwrfdHsD0m01SLGUiVhcqnkuRlrnItVavssj3T4LieYZSHPME8ljSiXHm5U9GrJnorPJY29Ekn2BqIfGmZtENZLVpFwVDLZ/h8LrhzWAE6R37AQ+F8qJJ5lqkWZrRKq9Rdm0szTJDUhxJ2p3x5qaxO2DQvJxvDHtLSILG29tkFQHtbRJxWPKgy7dfFSi51oBa6r9sbJRyWnSE7AWcXbF3CFORJJaha6XKEs/xcKNq4MEe7UcO373ve3vaF5PXhv0tjZE5zQi3tIslbFJtnJF7tM6C46p7ag47QZcfe+rePWjDVjHGhCyQYjooVzH9o9bQZ1CMARnyYOHHrcmY7iM7hoAnnpzNa6950WUdVwD5x/bkW7n51aCxtXxtnaJDGPtLuip+UGQsddL6owb31rD4Hn0qSx6sdaIFk6SjRvMS4SGSIeYyNxqpJprd3kw+ibbg+NDGSMspFHy30MhhRKf7RIDhBRLvfjK6g3KtSQ6qqW2IM7RAr21SVY7XPHw0Ftoj9iGRBtNWraqOv7MI60PY401iDFUbzVEaUSco0EcrbTWWsRPqhE/Wa3NJfcbmVq8R0IFSXvb/fJrfJ99EsBDID7SSZVDF+Jzy5FopMtKjQg6kX5IcaoUOwG4Tp7n/yWbXEgxuyTCHkWj1sxmJOa2I9W8CGmWxUgxLZS/E3LawIPRGTcnRzoUIOcAj80qltL/eFkBNAnYUO+Yyz4yQAjeYiNlGbwn568xYLZ/TwIi/Up5k5JmxscErmJoIWeuQKShTFlJ2CqgMcxFknUubMe3Y277Nei45EH87f5n8Y8n3hDNlc++7ca6TkWLm/UbPNZ0Ax9/78fL763HA8+swtV3Po+F5/8Ns6svwOHT2jEyv0y01eNpruCoASdFuhxpHIsQP+l0xDpd0Dhc0OVVgywlHScWSzHiLCVIsJX8n8l9+2vbnd9FydHKyYCGuzUyqUdkViIprx1pBy4W9gYZHD93MHVH3jXTJoy8Cd7C/nAoGu278x1+y/9Jya5FSk410kw1sgIVs25rCZLsJYi3FELvKBHz8HinS4BWcb2qkwIxBkVJhgW7PHSWDmjMrdBaWoSjr7XWI4YUR6F80o+zVD5DZytFnKNSoYOaWZxWIWnS37Jt/lefPawBPFwjMs/MJTY7nHQ93kSJ3AAxViDeVLntSDRVIIk2WqZypJgr5EgzlyHFqRzJjlIFSCyFSLAWgX+n5SucakYDSkSgGL7yhg0VSzBNwwie/puk8DFvJ4JClC3N3Y1S7t94iU0TAK4weJCXTkDiCoIpC6YSQquWULqCExTBNslRhuS80HK6COnWIoyyl2CUvUjZWLaw8GIWkq2z5Ui1zUe6sxyjC6qQllcjlbY6RtAOFiO5tq1+GJXxJtdYQiBBH9IKKXziDZ7krEIiXZIoG2of/CYhr4uTLyWOuadCI2xeP/Wr6YFK4NrlsTXaZs47NE4I4GxH0Sb5jfs33P2TxCjYVCVBDr8zr0FvKpeiMEbhOlMRaLyS7KxCcp4SlbPqlyJ0yZPqkWyv2OXBGgWthXriTInQ1JgpJyon0oCiQoIsBlic+LiSYfCTPrlJaMPRhspBT9Dhrn9vOL9PADgj7u3TKZKmsCl+erF59dA466GhoI+tWqIl+vtxINJ3T6oRWZHobJIIj0txVidyYMU6qv6/Q+OsBg8+H2NncUitkh+018vyXXKFFgJcDXQml/hwxufVIKmgCnpHMbTm+WIhRQ52knXv56kmGirANAKdgLgBHG8pkhJsaoszH8nqtyRjo8iGUmJXVhZWxWZObylDjK1DOeztiHUsQIy9ddsRTbs3R5UcTEvFmqsRY6pDtLkBGlsrdPYOAUn2JcGTNzHLv5Pt5DWzgIMpEhZ1Md9NLvt/IjNuFJPtM9gbUE+TB3OtFADxu2pNXBGwmrUGSVZy+Vt2eRDwmCrhQeDmIzc2Cd58j8F+v1/79bQGjDRVgL6yZPZIyoQTt12JmpNz25DMNjAqhiaUXmahEPtJZy5HrL1hl4fOPE90+RPt5VJ0lWyuktVwiqkOaUx3ZrQjKacdycZWJJqpgV+j3Fu875iq3MsnwF/i++0TAP5LNJT6Hns/oKh9pPbRvjYGVADfB2bpfW1Qq9erAvm+MgZUAFcBfJ9Yau4rN7R6nfvW5KUCuArgKoCrY0AdA0N0DKgAPkQ7To209q1IS+1vtb93NgZUAFcBXI2+1DGgjoEhOgZUAB+iHbez2Vh9To3S1DGwb40BFcBVAFejL3UMqGNgiI4BFcCHaMepkda+FWmp/a32987GgArgKoCr0Zc6BtQxMETHgArgQ7TjdjYbq8+pUZo6BvatMaACuArgavSljgF1DAzRMaAC+BDtODXS2rciLbW/1f7e2RhQAVwFcDX6UseAOgaG6BhQAXyIdtzOZmP1OTVKU8fAvjUGVABXAVyNvtQxoI6BIToGVAAfoh23O5HWCFuZOP3EG+eLa46OJhF5i6E30garGDpnA6Jya5FSsFBcZeIsRUjOLwe9PmNNNOcdXDRDI4WQecaO7yVGDLZaccyJc9Yg3tmK2Oxm7F9wFhJya5FsqUCyoRSjHHXQ5FSKUS6/q87ShHhLExIsDYi2LEGCfQH0hkr5HF1eKyKyXeLLOco8eM/LJGs79LTSc5SBPp8Jljpoc5uhs7ZDY2uG3n4qog0N2O+QUxCZUYnRk05FTHYN9PYKaO2zwrZfHJ13LFWIMVbIY8jTkWYfNMGmWQQdhnSWerGso11bxNgS5RhXisjR0zFi9HREj5uDqPFzEDF2JqIyC0FDEhpYxJtq5DvTZDnkUJPsqIE2dz7SHGWgmYiWPqK0mrOVQmcuFVMJGgZrc/+vn+yOfaj+Pbj745doPxXABwlSv0Qn/Frvoc2jzVc1Ek1lYkOlt9FhqBWRE+ciLXcGogzF4iZOZ2+tkV6OleIKFO+og9bUHBaAwn3vEHjzcfv/DT1PM2f6RWpMhRiROQ+jJy9GbEYtRjqaBcDT6VJjdonLe+qkBdBbG5Bob0BMdqn4jcYaSqHNnIMUw1xETZghLix6ZyvizFVIMQ7e8zLR0ibtlmgr2eryQw/LBWJuTX/HBIML+ux5iNj/WCQai6HLKkN6fjtiDSVILKAb/a5vcPZLWn490ie1IMZUgxE5lUiZvADpBy5AZGYxRtJJKHM+9BmzMOHAKhwxfylKOq5Hx4UPYOnVT+IvtzyFq+54AZfc9AwWXbgMZQtuxLSay1Fw3GIk5c6EJmM2osbPEpegBGe9uBrRWUpjb0CUuUYmDU4gtBakBRqBny5BdE5KtjeG/f7hrk89v+v+/yXaRwXwMDfZL9HIv9V7aGxNYFRH53TaTcUwajW6kH14I1r/dCsMf2xHnKlUInJGXQl2AngRaGEmke4v3DYh4A49xtH4Obcc9hM68Mfqy5BCK7osepFWIX0roETllokTOS27CDZJtipMPKQJzec+hsZzb0Hr0utx6nm3Y7rrYmhyCpGQ14Lo7FKkWAfviZhoaUGirRp6czES7ZWIM9WBk05MZhHGHNKA9tNvw8JzbkHDGVfhlMsewB+KLkaKhXZyVYjbjc/f31kNfU4JorLKIBNPXhsiMksQMX42EkzFsB1Ug9qOG7DsX+/hgy/W49t1nVjX1Ys+bxB+AH4E4An44QkC3iDQ6wU2dAOff9uPN1b+hItvfgbHl56N/RzzEZs5A5E5xdA4mhGT14Eo50IkWJvFhJrenslOjhUFtENWb7/VuFU/d/eBXwXwXxik9qbBp7U0QWeoQaJFcUyPtTYiInsuZjdfjm82An+67gkkZE8XEB1Z0IaY3GIkFTAyYyQ2+Ajs57xIQxF5imkhErPm47Lbn8OyFz5HvGmW+FdqcsuR5qiE3lELphni8psQa3GBpsja7NnIOqQWj762Bd0AfAAGBoAPP+9F1kE1iLcpZsWpzv8/6t+jfjE3ijcl/Tv5vvQqjcupQOz4k1F+yo3w9QFBAG4AG4NA0zn3QJtRiDRHK7S5XDns+kbUZJcJaCbmMyXTJFG3JnMG/jDjdFx+wzNYtz4It1f5DH5K0L8FCHYDwX7A14+AZxOC3i0A+pVvEfTA298D+PgigrsC6q++/Q1az7we5iPqoDMUSqSvy++QySje1ARtTp0cCbZG0C9UScEMPgUV7vrV87seH7vTPiqAh7nJdqcR99b/SXS2S3TNXCjzqFpHIyIyp6Nx6Y3wAFj1fR8mHV2L2DHTkWJvlFxsUgFNmwk+DWEBKNx1bw/goag79BqeS8ptxIHHLsCajQG899VmTDi4TMynuWpIspQKgBPEmatnyiJtUgOYz9dnnITTLvsXBgK8Ci8C7j4EAkBF+1WIyZiF1PwmiYJDn7Wnj1y1ELjFXNleL+mR+MxiTCiYj2fe/hbweoCgGz4E8MGaTcj+XQX02aVIMDUi1R5+D0HnXICI3GpEGxnll8L2hxZcc9uz6CImeyHTk9/fC597C/zezYC/C/D2I0hU7w8qyM7o2+2Bu7cLAW8PgF4g0In+3u8RJJj7vUBAwnX8e+V3qFt8NcbkFSFm4jQkmaqRYmFbN4OrjQRzM+K4grBWIs4RWginAQAAIABJREFUPgW0p+2qvm7wwB1qQxXAhzGAM5pKttUhxV4PjakWMdY6RGXNxNLL74XXCwHx8664F4kTZ0KTXYHEPEa6FbKBFm8Z/CYWQZoDLQTeochbb64CN+pix83A1bc8KUC09qce2I5qRHRuFbTmOqRwY81cgWhDObTWWuhsdWBuPj2/HjETpsN0eDu++HYtEPQh2EdwC2D5q58jyTxHwFuTo0TioYG+R4/8/rYq6OxV0FiYPmlEXMYszKw4A1sIsD43Bro3Sjuec939kgsncOuNSruH+0x9wQJobdXQ5czG7NpL8OEX3QrY9nsAnw9uia69EuV7/ECPB/hpC/DOqo14+Mn3ceOdr+G2u1/F3x98A0+9+CE+/OIH/LCpB90+r6xMAh43gp5++Dgj9Pcy5yLv/9Djr+PwqTXQZc9C7IQ5SDRWYVT+QiRZW6ExVMsKLCHvF2i/YXxvhevb/9V5FcCH8SDTGouRbHchLa9OAGiEqRpaw1zcfO9LClDAiw8/34jfTzsLsVnlSHC0SqqCDAi9qWLQETgH8fbgzd8J6gRvbpoWTG3D6vV9gKdHVv2/m3YaRmTXIspQg3SnCynWKiRZq2VZH2drRFSOSzYxdcZKxOWW4q83Paxch6cbQU8P1vUEcGzZuYjOKES8YfApoARuVNqrpU00lgbEZldjf3spbrv/OXgIkX4vBgYGsLY7gCnTFwhjJc7aJnll/W5sokZmzsB+eYU4/+qH0MssSADw9/fD7+7DQH+vBOFbBoC3Vm3AJTc8g5MrL4P5yBaMKihGnGUG0m21SDO5ZMM23VyI/ezzYDm8GpWLrsWtD7+HL35yS6AuM4DXDQ+BPKDkz79YuwlTqy7AaGchRhwwHYmGOonCtcYa6KzV0DsHv4fwvwKxfflzVAAfxgBO9kSCqRDx5jLobA2ItTO1UIh7H3lborGAb4tEakvOf0Soe5G51UjMb5aoU5M7+BxoCLxJJwxRChl9E7xjc8tx4R1PyufD24mgB5hbdy0ixtcguWCxpFCScksw0l4r+WROLjqyVmwt0JsaoDfW4qipbehkWrivU1IHfQAu//trSDBUIMncNvgJyOIShkYUNyXz2qHNrcWkYxfhx04uGtzwuwXGcd19z0NH1oexCVpzB5IczUgiTS/M2BrrnIVblr3GdLWsIALdmyVFwkB5AMCzr32M+oVXYJxlPuImFiLRrGxCR1hKEDOlHFG5jdBa2qC3tCLe0owESxNiMysRNa4IuqwKHHDgPHRcfAdeXvkl+gd8khf3egbg9gckb/9xJ+A6/RYkW4okCk9xtCHR1iI00hhz+O8f7vrU879cquTn2lIF8DA32c813FB4nnQwna0S0dZyxNqqhZKXPbkSK978Um7mgBcY6PVh/UY3cg+Zg/i8MkRZaoU7fIDlF4jAsmplQ48RnS6vGnF5LmF0pJpKYf79Qny35lPA40FgQAHC+jP/Cm1OKeKMjUKhC9fGo3PrcMc/Vskk4O3+EXB348vPt8By7EJEGGqhsVZAYyuTjdmEvErEWctlU5J87nhzfViAHe90gRuqGmcHuAGcbJiBy666F34PI2U33L5udHmBE0ouQUxWFaLNDdDnNSLeUSN0PJ2jHWm2eozMLcL+XElYGoQJFJVdiP0KynDXfc/Ax11QDMDr+RFB9AiwfrUJqDr1LlmpcMLjEUpHsU1CE2O49tFYKxFtKMXoyQ1YfNlyfPojZGMz6OP273qgN4iBXqCh40bEjJ0OnYm880bobXVCPQz3/ur5Xx+gw7WxCuDDHMDJ8Y2xVSDGWiXgWPCHFnz82UaA6M08bkAwFOdd8yAixh8vjI+UvGYk5Qx+EyvZyEmDRUFV0OfVI8pYghRnOWLGnIBTLn4cHn8PZPcxEJD07EW3PII0Zz3IjEgyhWdxxO5fjJKWG7BR0g/M8TL9AJx++WOIMJRKKoDUQ27K6szlCpOEExlBkCAepu/JkEnJa4UufxEiskphOMSF9z/6UcklS/QdwBMvfgTjYc2IznQJ+OnsNZJ2ibe4QBYQr3+UpRqjHPWIzCyXlUiqrQhX3vWqXDPxu6+/S3Yt2R13Pvg8Dp3WAc2EaQLcgwFwsomic4qFCqnJmIlj55+JFe9/LxNeb+9GIMhNT+Cz730o7rgZMdlFiLPXg/3P4qhw7aOeVwFcHSRhQGQwN0kiN94cNQLgjMZYwHPsnKVYvykI+AYwsEnZ/PO6A1j52QaMObAEGku5FJXEWcJHqOG+m3CxTZWygRrnaJEoUp8zGzkHl+CdLz1kMQMebkL2w+314P6nVwr/mwAez0rCMG2jz63BuINq8PS/v0KQM5GbOV7gjY82Ii1vnlAheR3M62oMrm08Z8ltW8Nv0gmIOVsRY29GZNZctJx5s7x/sM8N+H3ke6Bu8ZXQTZgBbprGOZRNYBYncfUTa6xDErn41nrZAJX0UdZMnHLh39HNHAl8cLv7Jb3BDMcNf3sGGQWF0GfPgS63bBuAM/rekwic3yGF3ym7AjoWPU2cjsnHN+PhFz4G001e93fo92yW67jqvtcxKt+FqMxixBvrMMrxC6SgwvRfuP5Vz4efINQIfBgPMgI4N+G0NpcwKSLGTMe82r8QMwFGv95+YEAhM3e7gY4L70R01gxE5rqgcy4MC6DhbrBkawmS7NVSBs/NvXQW2Yw5Bksvu0dyvO6AB0GSlQfcCAY8ePvLjUi1smS9CXGm8CuABEczIiZMx4JL70FfEHD3bgDJ2XzL0rYLoDPUSTRPihzTMoymSZMTrrgt/ASR7GhDpLEOzIGPObAcL7/1jUTf3s4ueXzriy2wHlGD2LFzJD1CFo/WWiHsmURrPWQStLdAY25EnK1ZCo2OmLkEa390y0QAXycCfq+kUa665VmMNhUiZvw8ye+n5XcIaO8I3mzz3U2hsP9ZoMXrTitoRbKjFhFjT0T+1EVY9iJTNm70+AK4edlzmDy1HbqsucJa2m/SQuizwk9w4fpfPR8egAfbRiqAD2MATzY1SCk4ATwxrw4jxs5A46m3ws91u5+UNTf6Nq2XfDifeuO9NTD+rhwaYxmiHYMH8ERbMVKctdCY6pFoa4UuqwSWw6rw0VcbJX3Q4yGAsw6lX/jUP/UC4ybXINnejLjdicDt9YjImg/Lce14/7sumQQC/RslLbD8xXck/6zNLEeqvU04zsm2NujN5Ha7RPsj3M3DSSfaWIuo7HmYWXchehi29g8AXjJQgDP/+i8kG+cLn5qRNifLeFuFMHhYsZnsUDRMqJuis9YiPns6nnntawS5S+nugadvvRBElj3+LjKm1CBi//kYOekUJDkXiqbKrr4fQXxX53kuzliNVGez0DKjDFVIndIBrbEKERPmwn782Xj+9bW45PqnMDGvFFH7nYSR1EDJrhINFU624d5fPf/rA3S4NlYBfBgDeJKxcasGSpUAuCZrDs676nEEBcA3w9PXDb/Pg4DPDzeBKQiccs5NiJowDZEUjRpk2yQ5KgTUYrKrJYUQO24a/vSXZXAHAK+3W/jTAZYx9vYCA50gZW7yiaeC0StBNtznM78f52hAbG4hrr1vhUwKCHQj4OnHpk4Pfl94sfCck801UlzDQhVu1OltVSI4Fe79yexgWX6CeTbufmyFtE+gj5WQwA8bvXCcfJaU1afnd0gEHmcpQwIFxMyVyoTBPLi5DkwfRWXMQUnz5TJ5evv7EPR2yft89s0mTDq2ESMmzkPSpFMRkVmP0VNOEV5+2O8Xpn+YumEETiGrlMltwkSKyChDWl4bNFkuTCxowQG2eqQZapGYU49EcxNSna0iv6AUc/32ADXYNhjur1cBPMxNMJQHgAC4uVY28QhaTE/c8dC7EvXBs46UYGzq6kVnF9MpA0Jle++D75BzaDVGmMJHeOHahvl3/g+jPr2hHAXHLcTKzzvh9QUAX5cUgHeu71Ui2oHN6HUDha03ilgV2TPh3p/Vi+SHj8gow9HF5yuccrgFwJkLv/yeN5Bum4uE3BIkGZXNUaY1ROvFET6FkmZrRGzGXBwx7zT8sJlVl6x+6oE3ANz64CuINlVsXV20I95ci0RrGRKsxVJIlGBuFREx0ifJex9X4MKr//6etT+S+/b6BwTMazsugz5nOiJN1YhxLkKsTRHjGm13bUuVhFImuxN1b99mXAGMyChC2pRmcA8kIrsYo6a0SZVoQk4NUh1NiBhThCRLI5g2YaGS1lKDGHM59PkqeG/flnvr7yqAD2cAz22QDTRGU1pTGfYvqMbjL60RAA/0rxXK2l3LHsZHn34h4BTYslFSAw1n3InI3WCBhBvUzDezGpQiSdGZc9Fy3n2S+/YMuIUB8dJbH+LlZ1cAPT3AwGYRZTr1L8sRMWG+lK+He/9Ue4VIyyba2mWD7oU3PlGuw6PkmN9bD+QcVo4E4zwwCmdagwJOpDVqd2OCSDHVINlQiHOvfUypbPcy+mbeGDi+9FRETCxHYt5ikZhlpJvqdG0D8HhTC9KsLonGye6YWnYhunr5clZWejGAAF545Utk5M2ExjAX8QcvQoSpAZTE1RvLMNpaPGgA58SROrkJ0aZSoVOmHUgpXhcSc13Y39Ysz/N8krNWePkaswt6RzViHVWI2o0JLlz/qOd//UlQBfBhDOC8Wcm/jrbWyZI+y1mKH9Z1Y8DdCYW4B1Q13YRTL31CWAnUFGGO952P1iLdWoJo6pXkd0BrqJcNsATrfOhMM5FArZTdELtKcJRL+iAioxqWw1rwyWc/AYFewLMZHncv5i1+AIsueBgDlKWiMpQPuOlvTyJ6bBFiHeFpfmR5pBR0YER2CZIdpZjRcIFMELIx6mZe3YvTL7oJERmzEWPrgIZRsbUerJJMzndJrp10QrJSRLDKWYF4pwuxVuqwVCHCXo+MQ6rw/ZouoHsdENwCtx945PnvcIAx/M0pWtvWZsRmTcXN9y1XlLdk9dGNAQ8wq+MBidZjc8qQmtcolZyUMFA0yAfPAlIBNHwfDfU2UgF8mAO4xuESAI8zNSDv943o7PHC5+tBMOjHpu4+nFR4KSx/aMbnG5R8OOlx6zb1o/qU2xGRWShUuARri6KuR8MHhyL6T1ZHuMFPHnLypA6MGD8ftYtuhHuAyW/mfn3497ufY78DW1DceiO8LEzvJaUReOiJNxA7vgTRtvA3H9MnzDEzJRKTMxfZh5TjlZWrEeAmIbU/gl68svJbpOVXQO9sg97WJgCe5HAhJb8GOkMVWJbPiU7ZgHRJfpwROk0tIrhqOOdumVvgI8+8G90+oOGMu5CUET7FQwDnJJN1eC1eeucLBcD7yB9049MvNmPc7xZLoZDobzvqZb+CaQ/RofkFtGjC9Y96PvwY29vbSAXwYQ3g1VKNyGhWl1ON42YvpeYTAoE+BINBfLupB0fMuAARI4/Gjf98WilrD/jg8/nwwpurkV7gEvAdmb9I4TmbK5DK3KiFBTqtYQGc+uM6UzWyD67Hy68raRq/Wynf7zj7VkQcMB1HzDlX1PyCnj4B8BUrv8BISw0id0OLhTn2WFOliFyx9D9m3Ek44+L7ZDMz4O2Df0CpbJxefzlicspA2iG1uhNt1DhRzAuEE26rlTQPueLc5BTuuKEO6c75eHXlOgV4B1hsA7z56SZMPKgW2ozwNDudo0Kceo4pPxcbyHP0AQHuN8CHW+9+HpEZRVJURNBm1M2DRUZsX37PvR081O/3208AKoAPYwBnFSA3r1gFGZtVisqWayT/TYlSAaMv18B85CmIGHMyjq1ajO829AkjBYF++DxAyaKboJs4G+mMXMmlDnGozbWg3Vi4G1jraEfEmFloO+0Whfcc2IJA0IP3v+pD9iHNiDWVw/z7dmxhPoF6sB4fPvn2R1iPPBVRxvA88HhLJZKcNSKDm+xsgXZiicjTfvujB9wk9PQrk8WyZz6BPmemVCTKd7a4wNcmOlyS/6XlGE0NNNm1ynUaG6U0fn7d+ehmU/kDQrck4/HUK/6J2Owi6E3hVyCUoR0xoRTlS64Txo3kd/r6ZYIpbrwUWkOFpE7EAMJcJeDNFQFBnFF5uPZVz//2APpb94EK4MMZwE1kXFQhflI9YjPmY+nFDwhw+z0KFe6ZlV8izUSzh2rorcfh2ntfkCIYKfLxeLH8je+QNaUC2vFFSLG3K1ZiWy3OdicHPsJQo7AvVnwlpfve3h8EyM688glos2vErGF/ew0++motSMkIUNlv42YcOeciRGQVhgUw5uKZCokxlYqSYpK5Bbqxs/HX258RhkvQ1yuMl419wOGzFiE2Z7ZQ5Kg3TqcdrbVE6IpkybD6UzRY8jqgz64UZ50HH3lVqH4iluXz44sfA6KzQmmAROduVCqSrmiowhlXLFMojqTZ+PzY4g4g/5g2SZ+Ect5p+U0C5vybv0skPozH5m8NfMPl81UAH8Y3idAIHTVIyK+FNnsubr5nBQKBAHzuLomIH1uxCtqxxWCOOyLnRPxu/llYTTMB+ODv2iIgWN5yCWIOmCYa1wl5bRCtD5uiEBjuJogYPwMNp90q+iSBXr6xG5/+0IXcI1sRZ2rDCGM5xuQ14YXXP1JsbYJedA30YHbDdWIrFu79SYOjEW/ipCrEEFStHYgeW4Ljis7GeqHrDSDgp+gUcNUdTwpdj0wL+mommKuhsVAvRUmbkCNOY4NUGgCPm4UDZ56DH39UtFp8vRtl5XL9vW8gOov7AjWiaRLu+1GSd5SzBTc+8IowT4Tv7g/g0+83I+PQZsXbkxvF9rr/LxIfOYmKi+F58OE+Xz0//CN0FcCHMYAnm5qQ4KwV5/EEw3wsf+lrJaL00KkFuO6ef0G3XzG0OU3QSNFNJW588G0lWnTTacaHx55/D1kH1SE6swJ6eyPoIJ9g5+ZfeLnRnMOr8eJb3ys55P4+8W08+9pliMqYhXhzO0aYXRjtaME9/3hJEdYKujEQ7MeC8/8pDuvhACjd2iHfI3Fyhei9xFkXINHUKprdDz7/sSLKGuiFe6APH3+zGXlT28UXkhufdCmiOqJoX5sVLexUFi9R/MkwHeff8rwi80rXn2Afftg0gD+Wno+ojFLE5lYi0RqeRx5ndOGA/FY89Oz7ilMOpf8CATz79mc44CCF781UCQGcETeVD5lCYU5czYEPf/ANN75357wK4MMYwFPMLZLjjTYXi+bzv1dRN1tcA8SOZ+mfb0Z6Rg3ic9tFBpWGuofNPgvrNvcKnXDAt0mi8BNKLxLgoqOPLq8GOhtV9cLnqEsXXyVc80CPXyaMz1ZvgOkoijSVQm9qhjavAZoJpbjk6nuVCDwwgP5gFy65eYUIb4UbwPTUpNZKtGUm4groJNOGRPNCRI4+EaXtlys+kR4KhrsldVN11h1SpMLSfoJ1nLNaNkG1hjrRX2H0HW+Yi8xDSrDyp61Kjb1sMzf++eTLGGUrFN452SuptvCu9wTw/R1NeOzlVQiC+in9AuD3P/0W0grISadxhrJ5SRBPcTbIcwRv/h3u+tXzKsirAD6MAVwEoewtQrXL+X0tCKCMJkHvxAE/yhffhpjxs5FoaYPOtAj6nHqkm2bj7489L44zPZ4+icb/8cQbGJk7ExEZlYgrOA1aapVYyiQNIukIRzmS8ipFPY+a13SOT7WX4psvNiLQ6xHRLG4AnnH9Q4gYPxUpBe1IyK2HxlmGqIxKVC+5aWt1qE9syu567GVocxUFvlAVYkjUKWQMEfo7JLca0szm/zPHnexswMp//6AYPfRuEfmAlZ98i3H2QiRZO+SzmX5JcdTIZ2nNC5A45UxEHDANi8+5XqiO6Ff2CnqD3NC9EjrjXGjM1WIqQfOGcABKE2bKyC5//UsEAmxzxdbssRffw8j8RmgMFVKlyWsJXWeo2pLPhXt/9bwK4CqAD2MApyQrqXPM2U45aQm+p3A2C2m8ffD2eHFU8UVIMpdLoY7OvECqFOOyZqCk+TzR2PZRMxzA5k5gZsUFoIt6RG4DdI4WpZjH0iwgo7WWKUa4pjqp/IwadzKKF9+E7i39wixh1P/uZ2tw8OwORBkKEWOoRrK1BbH2ckROrMC8hivQ7wkCHhrwevHU6x9hZH6zOPcQpAhqIcAOAd2OoLc98IVA/ZLLH4En6IXfp+i8bO7pR2nLFYiZWAONsxrJedWIzSnGyAJyxBdghIE6JDV47b3Vil66u0fSKG+t+lE45npzsQC4zqKoC4YDUHp6HjCpDY++/JniHD/QL7IBDz//b4zKq90G3qFrDF1DuPdVz6vAHRoDKoAPYwBPIFXO3oTo7HLMqLsMPWLEy6pHNzo39WP8YVTMqwGV6nSOVtEV0eXMQ5ppOu5/+lPQfovmusy6PP70R0g1zhOtDJ2tCSl0nmEKwFIhEqo0AhAjBkMV0kwz8a+3VoNSgz6vW6L4c668F5HjjpMCmeisKnHqoVtOZIYLR8/7k5K2oQ5s0IePvlsP45GnCHebYBwCtlBUyr9DAB6ya9s+Mg95bh5y3Gn4dPVmyYV4+5RN1H8+9QHicyvFYYfu60n2GtHMjjHUImJiIeY0X4sBin0R9AMK5e/cKx9C9NgTJb1BVUEe/LzQTfRzjzRTSLU24JZ/rFA2MQfYnn68+v7nyDioUVYsfG3ou/P30DXuzvv/3Oeqz+87AK8C+DAGcKYy4q0Noi3S8qe7BEh9A5tFPnb16s0CvhpzBTT2GnHiIZMjxVmHiP1OxomV16GHIuF+INjdK7LhJ5cuhTZ3PmKMLjFpkJJ6W4X4RibnL4A2pw4JmYUobLwYWwiCgU54/R58/aMbk45rwQg6oNtaJI9M7ZBYmkdkNcB5TDs+/WZrwUzAg3W9Xhx04lJEZZVIlBoCuBC4hQCKf4eeI6iHjm3ncypw3T2vK9fdw3RKF37Y6MZhs87HiKwqkX3d78B2meCYi06xFuOuxz+QzVa/pxe+4AB+2BTA5KPbQHchtqVMVCwE2g1DCOFy59Tg/Bsegx8+BHvJavHhm5+2IPvgallh8Pvze4cAe/vrCV2H+rjvAPJ/29cqgA9nALfXSCVk1Li5uOj65ZJn9vZvEibKm+9+A1LqIg1lSMivg9ZZLcUztNOKM9UhzlCLJ599TwAc1BXxBfD4s+8iLvtE0HFGZ6RUaaVUNFIAKTG/HSPGlWCsvQzLX/lEqisFwAFcc/eLoKUXpUopJpXiIIizSrQSOkObVDa+uvJzifTh7RWTgROKL9wtAA+lS7YHPoIh8+BROTU4ruwKrNtCB4suBPvXCZhfevOz0GRQP6VexLZYLZpgKcXhs5ZgLZ3G6FYz0C11Nzfc/Txi9j8Z6Y4OaM0NQjskC4fl9+FutmR7IyLHl6P9grtlE9XXrQB4XwA45IRWWWHQ4Jnvs+PkE+691fMqqHMMqAA+jAFcilVyXdBnFeP2B9+WfDYjcALUA4+tEPNagjiphqyKJDDT8IAOLiMmVmBa2QXYQv9bH/0ze7BhixuHz14IfU4Rku2tSLbVIJHqdZYKxFpciM0qxizXpVKS73UTCX34+vs+/H7OUklP0FlenGqYFhGnoGrozQuRai3FsuWvbaM4DgR8qFt4426lUAh8BO/tjxAY0oiYpsKPP/+JMEn8Ug4fwAdf/oSCIztEc5t2a9Q9ic04GVfetlyJ1r10CHJjsx84eu7p0GWUIza7UbTHmfahVjkd4sOBqN5Yi4gDyjG35S8iFkYjZDoiU6ql6dQbJAJnuoeTEN8r9L35e2hCCvcZ6vl9G8hVAB/GAM5lvpbSoc5aPPGiwgGHr1sA5M/XPrANOBgNx5sqkUQRJ3PlNjBkDv0fz34mpeQ0wO0b6MeN97+MVFOxGAKkmBsFiAlqpCpmH9GOB56m5gn37NYLVfHKm56A3jQfsbZ6xFIzm9WJ5lIBQYpQ6c2LQaOJq//2qPK6QC988OLiax7b7U3MEIhtD+L8nbKosRm1qFp4LboHvOKEQ+s2L3w4+/x7ETWhDHprk5TiG46ox5ffizsy+rs2iMnwI698glGW+RJ9R2bVS0Wrxk4qoQsppgVhATzF1gxtViMmndiOVWvWgrkZf98WBODFfY++I6uE7Scg/v5z6aLQNaqP+zZg79j/KoAPYwAXOVlDFTIPbsGr79A6DUIjpCHBwnOVCFcB7yqJVBONlUjPr0dMbrHIqkbkVKOk/VolMu5fJxWa324BDp62FLETypFkbJKoUZ9fBa29GEdXXkphWHi5C+jvQu+GII46qR0RE2ZDP6kdWhsj5RKkOCol/858ss60BPTqPO+au5TCGfTLht+dy96UiSQUlYbAeXuACz3HQR36Pz7yb56LsZcg3tSGrEnl+OirH0RuxT3Ab9iLl1/4HCPtrdCaG8XooOG8+xS9EvqEervh8/ahcvGViBlzkrwHlQx1eS5o7POkDD/FuGg3ALwVuuwmJJlOxuMvb11hyCrAi29/hJgrbNsM3rpZG7q+HW9U9W8VuHc2BlQAH8YATnPgmIl1OGjaAqzZ3ImAm1Q9jwDViWXnSoqCS/gQ+BH0uJznI5/TZ9Vg7JQGPLFirRjviqSqD7jt3lehzZwFvbEV0bZCROSWYNTkajz6kqIdEiDxw+fD2bevkoibhgZp+fVSdCNel5SZddSI0XKsuR4xWeVoPP02uFn+HuxHMODDirdWSXqGjA8NVQ2dDYjPr4TeWoQ4YwVYpLSzAb39cyPz2kXONTKnGM3n36eoLfqYz1eMGU50XSRiU6MOKcPLqz5TKkb7NiEQ6MIr73WHff/tP2tnvzMdRZ585LiZig4NcyeeAfi8/ZJSOf2KfyA+axp0GaVCZdSaSpDoLIPWUIZUW3ixsJ195vbPaSw1SMpvlLaOM5UKZTTNXiU8fcnhOxtlQ5ob12ncBM4tB00skkz8XRXT2r4t99bfVQAfxgBOi6zoCdU4pmQpNvQRuAggHvQGgMNnnh4WwOlgo80tguuU69Arr1W0Qb5Y3SfUP52xQUrrI7Ln4ITqi6T1nQkBAAAUGUlEQVTq0t2rGDNsWdcD57QLEJU5X5T/hLGyFbiZRiGQU2iL4Mzy9FmuP2PTJlL36BwcwNerNyF9Up3YsfF/tCwvz6tAvL0EiZYqpFnDi0nRE5IceApjHThjCb5a2wsv/TdF27sf9z35ETRjZ2B222VYy+cJsJ0bEIQPp1784KABnCqHOks9KHWbf3Qzvv1OkcwVL1IE8PYXnbAfUYt0Ww0ixhVBZ6tDfF6t5OR1hvA0xXCgoqxwqv+jeU7mDE0+TC5QOjde/EQrpYSflncJZhfSnI1IsTdCL6wbNeoN18a/9XkVwIc5gEeOq0Bx+xXoC1IInPkNP75Z1w37Ue3bKgE5CBlx7xiB04yX0WuaYzaee/MzoR+ST0icu+meZyVy1tP53jQLdzzyklQ7evqYAgGuvfVxcT+noFN6QaOAGPPryQ7mwasVFxy7C3p7M2JyXJh8XIeANgI0PAigpx/IPWaRvI55aoKb3lmpALitGqmW8BF4sq1OaH+yUWuchZvueV7SQeI8FBiQDdojp7bijkdeUdInA16gvw/fruuG6ffhNynD3bzJTn7vBiTnt4lWOVcu7AN3D8vz+2U+Pffy+xCfOUuUHmmpFmVrEEqnuNgPcmyy5D89nybFiplzorNFuP4aU63ynTKLMKqgSaijpDyyvJ8rsNjccqRPCt++4a5fPf/rT4AqgA/yJtmbByn9KKPHlWPhhXfDT+RgFO0LYMUHX2PiIU2ySbg9A4IAHjp4XVFMAUxuRkTmNJQuuETMILzdLIgJ4LsfNsJ5wlmISJuL48vOkgi/j3S9APDdpk046OSFiM5i6qRBAEJnLBfgZgRIUGcBDQtpOEmQnjd+cjk++PxH2Tz0DfRyoSA5da4AqPWttzZAZ3dBZ1McgeKN4QFWJgt7nZTVa7Nn47jiM6VIx93vUSzcvMDyJ1/D2p+6EEQAA12KU/y1dz2HBFN4Odtwfc9SeS0t3OzNGJE5H8fQeHkdifVAsHeDSAx09gJz6y9HxAGzkHroWYgw1CKKuut5v0AKw1SD2GyXcO+T8zsQY6qTdkxwNgorKHNKPZJz50OTOU8ic5pj6B21SJnShBHcBxnG98ZwuTYVwIf5INVMrMAVdzyNAGNMj0/SBA899w72m9yyLd8dGswh8OYjn4thxHzwAslVj3bOx4p3vhHw6etWWBoX3fgCksbOwN0Ps9LQJ6wT2pnd8eiz0JmKZGlOwSYaF/AxpLJHxT1FbU/xzNRZm5FsnIuX3vpCNkrdvV3wuIOoPfvv0GXNFv44y9eZcmHZfjyZLMbdADhLpVAjuTHIiSPNUojlK9bISiHQ3wn0MGXjk5UFq079Pg+o43XU3LMRnVM0aAAjx5tgGW2slVROTNYcXHH7i/L53s7N8PcopPM3V23ApJOWIGLifMTltUkEziKnUL/s6SNz2UyjRWaz3RqRPoWTaiF0OXNw4LSzsOLdTpzx539gwhQXIsZPl4IsjbUKUcZSAfE9/Vz1db9+5B1qYxXAhzGAk9edaKzCg898IDZq6KcWCnDtPU8r9mI7EUwKgTcHSLKzClHmKmgcLYjNno+W028S8PG5aQvWi1Vf9GDJWTfi+w0DCBAIA8D6jR4cX/EnRGQWb7MIY5Uj1fX4SCAPHYnWMskRx1iaEZs5E39/9BWJ7gOefkqi4IJbnoVmwklKTtbEKsha6Gx00qkBzYhDg/jnHuOsjPqZ9+WmbKPkgosX3KBsyNIzs98rbBlar/n6vZIauuvRNzGSfphZpWHf/+c+N/R8an6TOOtwsqKAFwE6+/BGPP/GdzIRwu2Bp68X7gDwwsrvYDmyHrrsQsRkFwtLJ/Q+e/qYZKrGqEntUjXL6lkKkEWOORrHzFmC1z/cBL8XoATN3x//EDlHNCFi4iwkTWoQizr6me7p56qvUwFcHTy/wMRCAN8/vwmvfURH9W6gr09A9owr7kVEjlJ6HrrZtgfu0HPpjjJEGyoRbWlHnLkJhoOq8ebb3wjI+oNdEnH/uO4nAT5JCwT9eODR1zDKVokoS4NE3Iy6Q5rX1Lvm76FoPMVWqgC4tQ1RWbNx0Q0Pwi+5eopaAXf+60Noxp8geiLUWWE0q7VWCDuF6aHQ9/y5R7FMc7gE7PWWVsQ72jD2wFq8+/E6CHr5KRD4HXxUHQwAWzxuFLX+GfGGRmh2Y4L4uc8NPc99BW1WEVJN5Rg9qVXy4REZczG78Qp8s16yRVAcmHvh9g7g5be+wh9mnI6E7CLZUAy9z54+pnAiGjdXTJ+TJ9VDb5iBk8pOx6tv/afq1dvnkYrTax9ciTGHNID6LWTOcNW0p5+rvk4FcHXw/AIArrdUIuOQhfh4DQtUehCKwFvOuQkR4yq20Qd5w+0MwFNy5yDV2QyNbQm0xgXQj5+BM865UTYpvYFugF6W2IzevgGZG5hGOXF2E6LHlEHnXCBpEqZLGHkTyBkJ8zGWBsPWGhDAmdvWOjqgMRThlItuQ7+byoGUlQUee2MNtBOOR7q1UYSyuAkXay6TKDyUu98VWOjtlLwtBb1BY00tiDK3ISZrnqI/7vfCI7TF9Qi4abQAvLlqFXIPK0XE2BpEMw892D6wVGOktQKjzKVIMlYgMteF9EMXIWK/P2DxhXfLKiPo9cDnWQtgI/w+4PM1wPyGWxE7cfA5aO47pBY0CAsnxjAPFaffik/WKsqMge7NQP/3IthFHZqTK/+E6InTZJOZDJRkW/g9hkG3z2DbV329Wko/nAch6XP2E9uV4hovC1jc6PYAsxovU+h9YW6AuNwWyTdHWueKYUJkZjnG5dfhnU83wgc3iHteXw+C2CIsjluXvYOUiZVINDTuVoqDeioJeaQSlgq4/7HsEmzyUaqcqR4vPlrVhdyDlDL9CFsDNI5GyWUns+iFNLgw3z+VKSKCt7URMbZGEe2Kt8yD/Q9V+GYTFxIBoL8Xgb4e8QJdevVjGJExU9g5KVRXDPP+gz1/5c2PYH2nXzZQfZ718BBQ4aZgIe65fznsR58lvOzI8aWiPUNHJFaXRuWXYUTBfEmJJDlcYKqI2uY0eKa0gcZSLpNcRGal0ECPnr0Ejz31pqS/aH3U7+lEHyfgILB2PVDRcROiJs6H1tQsWueccNOd4dt3sNevvn7wkbqaA/+Vb9LfcpAm5Tfj4OmnoZcysgEvfD2d+GmDHzNqr0LE+PA5XtqTJZOXnF+KaMkntyA5uxynXngXaHIAL9DTQ4GoHvzQO4ATy86Hbnw50p0LdmsJzoia7j56u0tK/g888QxsokF9kADej7WrB3D4Se3QmcuhcbYKY4VRZbLFJWX/4do2iTl3Sx0ofxtja0I0C5WMRTjAWYhblr2jbJj2bFHSJ71A1sEuiViZQtAbfv0ccHruybjspiexdoNPVjXAADZv/gGBoEf+/rrTi2vvewrHzD8VoyxFiBkzB7ETKqHPaYTe0IQka7tixpHbCF12HeJyG6DJrIEuU6FZzqi5GLcsex0/rFNSUpyowEpT+DDgd+P9TzZhZsVZ0GdMFVonGUGxRsXeLdWi6LOEa2P1/OBBeDBtqAL4MAZwXVYJWs74G2jriP4eEaX65LPNMB2+ADHm8JV+ieYm2UyjaXBETgnS8hcjIbMKxgMr8M7nG6QoiAYRbnhxzf2PI8U6D3HkMmeUIyUvvKNMYl6DGDzE2asFeDIL6rB6nQcBbxfg3oKBLh+Kq8+RUnu9rQWpeR1iRkyZXOqQhxv4iUJXrBMaH/XOWRDEDcW4iXMwtfgybO7ZBK/XLZHotbc8hYSsOUiytyIqqwLMH4d7/8Gej80qxWh7hVShfr5aEbnyuPvh93TD794krM8BP7CpB1j5YSduvvM11LXfiONnnoWDjmqX9k6zzMP+ziKYj2jAMYVLUXfarbj+3jfx0rvd6O3lREg7O27WuoFeJddPFuWb73+N3528BJrxx4lWTerkJsTSbcheL6YcSQYVwAfbv/+L16sAPowBPCFrNi686hH4qU1CUPS78e4H32Pc5BpEGBRDhl0NMuZBSadLzK9GVG6FWKilWRZAO24mTrv0nwLg7oEerPf4cXzNWYgYczKSCxaKyqHWGJ5HTTGrKNN8pdzb0o4x1mq896lCUaQeiafXiyVnXY+oA2im0IJESwt0WWXCLEnIDw+wFOMSvrmtEUn5HdCTrmhvldL1/W31ePn9lZL6YdHQsTNPR4qpDlHZDUgp6NitCH9Xbbc758juITtEnzsfU0suwnMr1sAvejWAf6AX3r4ukJGDQFBWCdwtJjtnoD+Izi0DWDcArOnyYvXGPqzrHkCvxw8P/1d+AoB3E+DegGDfRuWFQeCb73244K+PYax9tpI2MZQhMU+RE6bfabyjDnpDFUbZW3/1CWx32kj9n11H+CqAD2MAj8+civufeFdZnkuJuhePPvMW4o3ToXOG93Skya7eVC60PVbzRWfWI9WxEJqMIuQe2Y4fV68TALz/mXcRb52JiInzoLE1CQgk7I7pL1Ma3Gi01yLZtgDppDwu/0AKhghWwSBw8TX/ROTYadDm1iLN2grmtamjEmMLH4HT8JibpXEWVh4uEOXBZEcbEkyN0GdVoWLhOegF8M/lqzDWXIzoiZXQWDvkfxUzjF3fPIMGlwNbEWmpEinfqAkzcIBtPhYt/Rs++LALXBgAnMw2IuBfD3f/OgQ8ncoGL42LBoISWAdZFkvMpnMSHZR49HfDv5mSAEzFBCSSX98D3Prgmzho2mnQG0vEWSklfzHina2IItPIWiF8f25mU8dcn/srX/twvu/+h9emAvj/sLEHfcP/l9812TgbD7+yFl1BoMsPEVCivRe1r3fGOtnx+7FikmXv3NRKK2iXjTQaMpABojEW49LrHsR3ncDs5quhMczHyAMXSeUhtcVTJ4VPodDYIclZhWhDKWKN9UjPa8LFtzyHtcyg+IFOH3Dp7a8ihXrlucrGZbJJEcKi/viO33fHvzkBkflC7Q/mtWncQH0SHtQCMRxZjeff60Vl6w1IzJwnKRp93iKxmKNZxY7v90v/HWEogsZRhbiCOsRT3MtQjOgDToT5oAa0nbYMy196D1/+0CkaM8yCeeFBv6cbXh/1YqjR3gsEmQJyy++idx76O+gWV6SVX/fh3Osfx6FzTkdqXrm0NTd0o20tiMh0IW3yIqFnchLlmGDxEU099ObwPPtfuj3U9/vvJ00VwP9LUBxKg4yVeBMPbcfEQ2sx/qBiZB1WgYmH1iOdzu3G8CkUqZg01YiwES3QyL2WakhnFWKdFdBlTsUkSstmzJe8KR3pCZIjpzQrkrRh2jbZ1AyyKFIm1wlTJNpQjlFTSmE+ogbZ+ZUwHV4rKoeRBOD8Zox01iHFWKLoltPVJ8z7s3hHAJtsFItLBLTopqO1ucQNiBuV5sMXYT9ziXCvRfjKWIukghYB03DvP9jzNG5muX20qQz6AiWNobVUScFRxH5zEJ/hwpSp56Nh6f246R9v4tVV3+PL9T1YvaUPP3T1obOrD+s3d2H9lh6s63SLxs2/P1uL+5a/hguuvRtHzrsQOYe1IDZzNiKzaIVXJtW1WkctojkBWqqlwEqX60KipU5RRDRWSVpn1KEdYdt3sNevvv6/B+wd20wF8DAgsGODDaW/Ey2nISa3BVG5tdBSltXsEm2MUbaFSMkOv4mZmteIOGM1Uu0EtCrQZZ2CUrF5ZYidXIWUyYrfJvPKmqxqpNPv0kSlwUokOcPnqNOZT88tgWySGsqhL2iC3lGMeEshUnJrkGpXKIQxjgYBHNqepRiLQBphHD8rTN+J0Ja1QUAq3lyGJEcFkgqoXV4qE1CyfQk0E8ox2lKB0YzyzdWIn9KhbNjm/fqbeEmZVCJsgc5ajWiHC1EF1RjhqILW2SSpKNl0pVtQ7jyMGH8C4rOnY0JBDaYccyamzrsGc0v/jJlFF2N6yWU4ataFMB62SCZn9ll0ZgWSzXWIzSqHzlCD9Elt8jkaYylS8+mIVIyReVXQ55Qg3VqPZGM9tNlViu6MoxYx/4MVSLj+U8+HB3gVwMOAgDqIwg8itY1+nTba3tyB6Q2mrpgOYpqDR2RmsfiGRmeXioIgo3me5//tTopM7bdfp9/+l+2qArgK4GEj2f/lgFQ/6z+gEjLaCLXJ9iBOoA4dBOwdQZuvDb1OffxPmw63tlABXAVw9UbfS8fAjgBO8CGIhw5G6KEoPfS/2z8ON7BSr+f/TkQqgO+lN686WP/vYN3X22R7cN7+9+3bJQTufNz+efX34TmeVABXAVy90YfAGNgesEO/bw/WO/tdBe3hCdrb96sK4EPg5t2+w9Tfh/9NubM+DoH29o87/l/oXCi1suN59e/hN3ZUAFcBXI3Ah/gYCAH3jo8qYA8/wN6xT1UAH+I3744dqv49fG7aECDvrE+3z3HvLH1CVsrOXqc+N3zGB/tSBXAVwNUbXR0D6hgYomNABfAh2nFqJDW8Iim1P9X+3JMxoAK4CuBq9KWOAXUMDNExoAL4EO24PZmt1deoUZ46BobXGFABXAVwNfpSx4A6BoboGFABfIh2nBpJDa9ISu1PtT/3ZAyoAK4CuBp9qWNAHQNDdAyoAD5EO25PZmv1NWqUp46B4TUGVABXAVyNvtQxoI6BIToGVAAfoh2nRlLDK5JS+1Ptzz0ZAyqAqwCuRl/qGFDHwBAdAyqAD9GO25PZWn2NGuWpY2B4jQEVwFUAV6MvdQyoY2CIjgEVwIdox6mR1PCKpNT+VPtzT8aACuAqgKvRlzoG1DEwRMeACuBDtOP2ZLZWX6NGeeoYGF5jQAVwFcDV6EsdA+oYGKJjQAXwIdpxaiQ1vCIptT/V/tyTMaACuArgavSljgF1DAzRMaAC+BDtuD2ZrdXXqFGeOgaG1xj4f+DszZh71TscAAAAAElFTkSuQmCC;" vertex="1" parent="PWt_-XY5z9876F4vLIQb-26">
          <mxGeometry x="146.74" y="82" width="152.81" height="120" as="geometry" />
        </mxCell>
        <mxCell id="PWt_-XY5z9876F4vLIQb-72" value="" style="shape=image;verticalLabelPosition=bottom;labelBackgroundColor=#ffffff;verticalAlign=top;aspect=fixed;imageAspect=0;image=data:image/png,iVBORw0KGgoAAAANSUhEUgAAAKYAAACJCAYAAACmckOUAAAgAElEQVR4Ae29d3Rdx3X/m7fWe36xJZEgqS5LVixLiiwncpMdtyznJXae4+eW5Dl5cfm5W7IKewMLQAAkRZGS1akuWZIliqTYewEbCIBgA4hCEiQIFpDABW47/c/vW58DbukaASiSjmRKPn/MmnPmTNl7z3e+s2fOnHv/IooiJSGxwYWGgb+40ARK5EkGCRhIgJnMGBfkjJkAMwFmAsxkmk6m6bPFQMKYCWMmjHm2oyXJlzBrwpgJYyaMmTBhwoRni4GEMRPGTBjzbEdLki9h1oQxE8ZMGDNhwoQJzxYDCWMmjJkw5tmOliRfwqwJYyaMmTBmwoQJE54tBhLGTBgzYcyzHS1JvoRZE8ZMGDNhzIQJEyY8WwwkjJkwZsKYZztaknwJsyaMmTBmwpgJEyZMeLYYSBgzYcyEMfsbLWEY6t0O/clB2rstxzvV3kD6vZfS/+SM+U51zpnqHaiDzlTmvfRsIP3eS+kJMAum8vcS+M4k63sJgAPJmgAzAWbiY/Y3Os408t+pZ/3JQdo71d67Xe9A+r2X0hPGTBgzYcz+Ruy7zSa0158cpP0pZHkn2hxIv/dS+oCMWWiwIAhECPPdCrI98qNIbuDLcXNyfU9OECgfpOUFaUW+q8gLFXqRgiCSF0UK6PSBgufJy2QVBqEcP1Qu7ynwfIW5jELXle+5Cv2cwsBT6IUKnECek1eQ9xTmHHlOSmGYjvN6Tqi0F6rb85R2swq8tMKwR2GQluvllQtCeaEv180p7+Tkh6Fynqsg9BQEyOAo9AOFfijPD+UEoVyug1CB7yoMsvLDnJwwr1yYlxtmFQRphQHyIZuv0O0tn8ul5YWO3BAb5ZVxPGW93jo97BP4Cv28Qi+n0HMUeq58/3QIHPmBIwcb+7TpKAjDXnnDUBnfUzafVuj7CoNAThiqO/DkhqHy+ZwcL6cg8hRGgTzsFwSKwkihF5xx8F1IwH1bYBooY2DmOuW4eaWjSN2Br4yfUdpJK+W76glzcWf5gacowPCRvDBSNoqUj/wBQxD48vKOPN9RTz6t7lw6Brvve3KDIA5hmFXk5xW5kQI3jGVw8q56so7SfiYGiuf6yuV8pYNAXYGvlOfEnRqFmRi4rpdR1ssr7/TIy3fLo/PCQBkAHNI+4M0pn3fleX78zPHycSc7XlZZN6uUm9fxfFZHPEdHIl/HQk9doatU4CrleepxXHkAOwiVy2XlAywPAOeUBzhBKD+I5MeA55mjvIcdfaX8QCf9QB1eoA7X1ykPPQKl3G7l3B4FLnby5YWunKBHOTejyPflOYFOdKfVls2oK+/qVFdKWc9R2snJCTx5gS/fgIlsZ9g3fs8CszPdpRNhqNqUp535QE2Oo5ZcXs2ur7quUHu7Qx3Ih2rNuTqQzqol7Wp/LlRzzldTzus37M8F6ghC5WMG6pITZtThhWpxI+1LeTqc8ZSGpdyMfDeIWSMd5HXIc1WdcbQzCLTXC9WUCtR4KqsWJ62mfE7N2VDNmVCHvVDH6HQnpx6nR46TUuD3yHO6FQLIAOAEyjLQglA9AcwGC6bk+x0KwrSyQV7tgaO6fKiVJ3y9fiivlw5k9XxjWi/uy2rREVfbsqFq0o72+76Ouo5SmV6Gdx1XmaBbjt8dt+k4OWXCUF1hqFY3VFVXpBVHAr3ckNGTdV16sq5Tz+9J6bXGblW2Z9XUk1PKh9FD+d09irxO+ZlW5b28IsdXd2ePdtQ3aXd7h3YdPKG6+ja1d6bVdPiYTqTSMevnPVdu5MkP36fATIehWoJQJasbNWp5s8asbNHwZQf0m2Xt+s2iLt279JRGrTqkESt2654lO3TvsgaNW3NUo5a3acTS1n5D8aK9WnWgWxmm/LBbXW5aC+qPa8TiVo2Zt0Ov1jbriJNTPganq1wY6oSf08uNDRqxqlp3rT6sUetyGr3kuMYubdHoVXs0amm9xiw9pNGrTqp4S1qzd2T1aktONSlfHX6gfBioO90l32eqd5RxHaXDKK6bDve9Xvegx82qORtoRVte5VtP6T/mH9I/PV6jv5tTqdtnV+pvZmzSrTO26bNz6vTNZ/bqjpUHNfdQWiu7Mjrs+8r5oVwnUC7IKOuclOt1KRu62p8PtOKopwdqU/r+K8362hN1um1mpW6cukp/XbJKn5yxXl+avUnffWyzJi7ZqQV7j6nplBu7Oj4uk9+hPLOSF8nNeNrVcEANx3u0eU+7NtUc1ua6/dq0o1Et7V3qdgN1w/yRJy/03p+Mmc6FqjyQ01cnzdN1976mK0cu0aWj1+uikdt02fhaDRu3SYPGLtegiUtUNGWFiiat1SXjNmjoqPW6bIDwmbFv6Oktx9UTRfJDVwdTjsqWH9BHx6zVJ8fM07QltWr1fDmho6yTiV2I9tDRiNcX6aaxT+ry0at13eR6XT16k64dt0pXTlylq8cv1zXjlumKCes1dMJGXTp+tT5Rvlbfe36XHqpqV/WJrDoATYgPm1UOFmP6zWcVZmFUV11uqFX78xq/7Ij+r4d36dqSSg2ZuFqXT1iuj05do5umVeq6KZs0bOImFY3ZqsH3bNSgexbqo5Ne0VemP6Ona/fpcI6B5Cvr55XyMjrpe6rtyuu+DS36zuMb9Ymy1Soav06XTKzURcXbdFFxtS6ZtF2DirepaOIWXTphnW6fs0H/+ew2TVt2QCuaclrf0qFjQahUEMl1Q4VuqEPtHTqcclXX0qXdTSltqGlU3b42HU3l1O346vEcuRFuwPsUmKHnq7o1o/+Ys0q3l67QbaVr9emZ1bq1YqduKd+iG8o26aqSLRpWWq2isp0aXLZLl5Tu1EdLtumW0s39hn8sXaoXth5TKsCpd+Mpeeqqdl0xaqNuGLlY4xfv00EviBcS+Vy3un1PRyNfoxZs1McnvaFrJtbp2qkN+syDu3T7/ZX67P01+uycKn169gb97axN+lh5pS4bu1JFw5fpyokb9dWHtmvCskbVdfeypJPrjhchOXzUTC5ebB3PBZpfn9ZPXtynmyZv1KBRGzRkwjp9rGKlvjZ3u37+Wr3uXdii3yxs1X+9ul/ffeGA/umRRv1tWaU+Mvo13fCbOXpka6Na83mlvbzSrquOMNK6Dlcjl+7TbWXLdPXE1boSO1XsUdGMRg2aeUCDZx5S0YxWDZ2+X0PK9umKGXv0xRdb9c/P79O/Pt2gHzy1R3e8vENLT/qxG9DjBHJyrlLdPerK+zpyytGpLk8HjnboeCqjrB8o5wdyfE9+hL/+fgWmn9XBVE5P1bRp1tZDmr6+WQ9WtmjO+maVrd+rsm2tGr3phP7l+TZ9dGq1rivZrs/ObdHI1QdVXnmg3/DQ5gPadjStTo8FS4/2duc1ee0hXTV2tW4Yt1pjlrSqOfYtHQUsYEJf7QBzUbVuGLdY14yr0senVWr6ruN6aEejHqs6ojlVbZpVc1AzqlpVuvGQfjm/WV9+YIeuGbdJVxdv1G0VK/X03lM66ofy41VxVm4mG6+cj7qh5jV06fvP1OhjU9dq2NgVuun+Wv3bwkMqqz2i+a3dqj6R0+4TOe1NRapJRVp73NPLTSlNXXdY//74Nv39+Je0qKFLqaB3VQyAtp90NG71IX18ZqUumVCpIdP2aNj0JhVV1GtwRZMurjigi8sP6qKSZg2a0qBLSxv02eeP6p9ea9c/PLNP3335mD5ZslmfnrZSo9YeUk1XVql4FyOvAD858pV1AmXTbrzISztZOT6LMfzT3lV5vIB9vyx+CldxQegqF4U64rKoCNSW99ThuDqZd3Qkn1Vb4GpHNtK0zWndMnWTbp1WqR/Pa9H6U3kdcH21u6GOeqGOeKHaPO49tTueUoGnXBgoF7pqTHuatKpVl49bqw9PXaeRi1rU5gTx1gxbNWyJtEeBxi2t0V9PWKqrR63V5yvmqTYI1O45OuG4cZ1Hg1CHnFAHcqHWH0lrzvZT+vuHa3XZhNUaeu8b+tWCBu1xAqWdvJzMMQVOKl4ZLzvcrR/O26vrp1fq4hEL9JUH1mnqhsNa0Z7XAceLV/z5eKuMhZPf668GjjoCR42ZQGtaUlqwrVlHelz1BL56fF/NPaEq1h7R5+bU6oqyOv1lcZ0uLmvWRVMaVTRpl4rKqjW4olpDK5p0RVmrho6p1ucf26//WnpSX32uWt94fb/+4YUTumb8dv3V1Ep9evYqzak+oj25UF1OVr6XUeDk490E2JMFHVtGrueI3Y3AD+OtO+LC/ux7/Z5YlfcnZBCFGji48bbNoVykOTXd+uiktfp4yTrd8dpe7WB0x/t2bGKzt4l/5yvwHQWBo3zAfh/7cZH2pyNNXtmmyyds0RUVGzRyUZNOuYFyUToGpxdEOhqFGrF4u24oXqlho9bq9vIXVR/v70VyQvxRP14cpPKevChQl5vR3mygKZtb9fH71unK8Rv15TmrtL4nE694nVy7cs5J7T2Z0+RVDbp5+hp9qHi9bp6+TvdXHdOelKu077+1z+i7CgKYiKmR9KxcP6NsFOpk2lGquzveeoIxj3iRXt19Qv/y8DZdPbVal1Y06kNT9mhQxX4VTT+oYbg806o0tGKniibt1WXj6vSlRxr067Up/b8v7dY3X6nRt5a266OzG3XJ2F36yH31uq50rb777A7Nb+vRscCJt74iF1mYtntt2iufH7MlK3r2lAP/vXNQecB9zAsdmPes3KNrK7araHKNPn3ffNX5kTpzkTIu2z6+smEUs1UY5eWHKZ0KHD1f16y/nb5EV5bU6GMTXtGSjk51sacYdKrL7dTygxl977lqXVG8QkXFa/SzZYdV6wTqDgP5QcEGeB9g8gIg8HPxKpzp1M/lFPrsb4ba3e1r+O+rdeP4JRo6ZYcuKd2noun7dUn5QX1o5j5dMmubhsw4oMumdejyCQ26dXq1hm9J6+41h/WPD67R/1pzVF955YAGTarVh4obNXR6s66qqNVtJctUvqFRzY6rPBv1PgPdjReQDPYEmG+y6LvLmHet2qOrK7ZqUHGVPjtrnhp5G8XbjfgNUab3bUzkKop4I9Wpo25az+1o0sfL39DQSVv0iZIFWt5xSieynpwoo3avR0/s6tHtD9fpqmmb9OmHa/X0gUDt8Zuirniqf/PNTF9gAgTfUd7tZaYofnvkq9OPtOJQTt/8baWuGr9WQ8qbVDSzNWZK/Mn/o6JeH5xVoyHT23Xx8D36wqNNGl+XVnF1p7563xJ977nt+uXGtP728UZdXLJLg2a06QNTmzV4WoOuGbNM//XcBm080RW/TGBTP5YvchWGBD9m0Lema2yTMOY7PpUPX16rayet0EXDl+qT055SA6/m4n3DjNz8UYXuCblBtzJhTqfC3s3xipo23TJrrYaNXql/f3qrqlLdSuVC5UJH2zu69Mv5++NdhUsnrNH/t+Cgap1QJ/NpRUFKgcuG+1usWTiVhwGv/Ty5vDL1Q0WnN8SP5AM9vOWYPllRqSun1cXT9xVzjmpwSb2KKvbroopmfbCkTpeMq9Yt0zdr4q5OPdTWo+88Uakvl6/R+OpufW/BMX24ok5DZzaq6P5D+t8nN+uiqQd0xYSt+rvpb+jpumYdcd145R+vAVz2YBNgFvic7y5jjlyyXTdMXK4ho1bpU9Nf0M4w0qkwUlfkqyfsUTbI6FQYqi2IVJf29UxLWt98YY8+XLxAn5i4THO2HNNR9vcyvnJBoLVHevTtp+pVNHadPjxxhYo3nVA7fivv4v1u+W56QGACCB+/Nl5kAExXbhCpvsfRyAX1umbieg0trddF01p0+axWFU2p07DyBl0yeaeGjNugz/12uybVduipIxn98KWV+mzJ73X3mg5N3pXT5x7araHF1Ro2vV5FM/fqkmlNKprapmGT9ujG4vmaurpGTbm8ejjPwOtKL6Uo8hRFgaKoz4GVMGHMd5wxRy6u1c1TKnVZcbVuLHtNr51Ka+WRlNYcS2n90VNa1dqpJUfTermlU2VrGvSDF7fppqlL9NnZa+I9yM0dvEnJKer2lXNDLTmQ0dcf2a2hY9fo9tmb9ejubrV7Xvx2iFUvh0AGYkzeX3MeIBfy9ipU4OWVCSJVd2b185d36tLxlbpkKvuVh2JAXjVthy4rqdNlk7fp60/XaeqOk3r2YFr3/L5GX5n8e/1o4Q7NPJLTv83boxumbtGVU3ZrWFmdisq36fLyBg2b0qYhU/frhqnLNGpZtXZnes8vZHltG/b8+QEz9lfiAxphbwfQCVEoHz8zyMsP8jqcDzW7JqXrWZWXbtAdr9arrisXv7HhLQWnd7yQwMkYpkC2Xdw4jVMy+zORJq04rEvjVflGjVzU3LsqDzO9q/KQVXmgEYur9bGpm1U0Za+umL5a33p5u/7t6Tp9+7ld+tazW/QvT23RPz1Tr8/MqdPNJWt146Q39IWHN6q0ukOrjrs66nrysx0KnVz8luf53Sf1hfs2atjY1frKIzu0oDmtU5meeC+QE0iuxyqcVe4fBlbCnp9V3svGhzQApuN0KhXktOZoVv/5XL0uLd6qD5XUavCcJhXN2KFrSit1W0WVvv9cvR5qOKpHjmX082U79fclC/XzF+s1tz2jX29o1o0zq3T5lB26rLxZReUNKirfpWHljRpSsl9FU+p1/eQVunfJTtVlHHVzYCbDiSP8amPLPxPG5NRQ78mh3v2wmB2iMN7+Cb2sIoDphJpVk9JHJq+NN77v+H2DdnXm1RMGijgSxikZtlgiXxELFY6aBb0HDPJBoAOZSMUrDmnYhM26vKIy3seMt4v+AJi+7l20XR8t2aqLpzWraOZmXVeyUNePWaYrxq3UVRMW6JoJb+iyyZv0f47ZqovHb9MVU9bpH57fpfsbHG1MRfE7c/zG0OvSUT/S4ztP6HP3rdNlxZv0d4/s1bIDWeWddLzSZt8y4PjYAJvTgZ+R5/bIZ58wiJR3TigVdmvF4Zy++yR7lbUaWrFHg8trdfG4pbp12kKNWrpXC9oyevlIWv9rcZNumvyqvvvkBj130NXcw1ndPmejhk3bo6KyfRpU3hJvwF9SsV+DAWlZk4aU7NG1E5frnsW7VZfxYmCGjqvIYRp/70zZA8l6TttFFxIw71ywXVcVb9EHJu/TB6cs05fmrteXZq3V5+as0xdnLdNXpq/Qlx7Yolvuq9RHytbrmsmrdU3xcn1q1nr99LXdWtaaVTd7f0G3jrqB5tan9KWHanTZlGp9+uF9er05Lyf0lA8iOR4nhXIDApODIEGQi89tsk/rep1Kh1mtb8vpP15o1LDSOl09ZbtuLdms7z+3S481nNKqdI/mdaT0k9dP6rbRm/WPpRv14v6UVjiRfrhwry6++42BgVneosunt+j6Sas0fMlu7cx6Skcct3PkO9kEmGfLmHWd+XgvMGbM+ECGH79CCzlUcJ6MOXxJbex/DSvZo5vmrNAzJz3Na/f0aoer+YccLdnvavFxT88czKmk5rh+vuSQPj+zUoPvXqBLRy/SnfObVN/NMTBHR3M5PdeS0z88Wa9Lxm3Vjfft1RN13eI0VSYIlM2lFMar3YHenHDYmIUHLg4AScVnU6uPZ3THKzt0c8kK/T+PbFLpqmatSzna7Yd65Vi3frqgVjcXb9dXJm/R45u7VJUJNWP7fv31zHX6wNgtAwOzYr+GVbToIxOWaeLyPWrIueqJsnLDtNwgAWavn3kWUznATEWBfI/Qe2jYiTiMe/7AHLlws24ct0SXj1mj28qf1Y4w1KEw1OHIUYfrKOOF8bnHE2GgXdm8VncEmrGuXV/6bZ0GT6jUbfdV6fHtHUq5jjqdjJYc8/SdF5t00YgN+nBpnUrWHtPxIIpXu1nObp4JmLHfyTlONvOZ8ntPrTelMnp2W6MqVtVp/oFDqnOzqvJ9PbirS996okG3TNqmLz+wRWUb96kmk9fcmhP65wd26OrSHRpctnNAYA4ua9bgybt1c/EyzdnQrDbHUdpLKeen5MUr8mQqjxc/vGI8k49ZCExOh+dOn2j/Y4A5evE23Tp5pT5SvEGfL39KzZwid9LKB93x/mUY8NkCTNepnJ9WKgy1N5XXXW806/IplSoat1E/eqlB+05l4kPK2ztzumN+k66esEVXT9mhn7+0V7s4vxlFykRO7+cbA/iYfIrhe54yXo+8MKvQd+Tnnfhw8v6elA7mHdXlclqcSqt4W4s+P2O1rrt7lW6fWqWyTY3a2JPWilM9+tcna3XdpL26oqxJgyZtHRCYg0obNHjCNn39oW16Y19nPLg8r1t5NyP3feBf4ne+Kz7mjs68uvj+hBW57ytrwOS7lPOcykcsq9NfTd6oIWMrdVvps2oIPHXn88p6PcpwQp29xWy3gp6U/GxWWQ6N5B3dt7FJt92/TYOKq/WtF1u1s9NXNt+llp4eVaw7rFun1eiKCVX651lrtKwppf1eFH86wecdAy1+/Pj4WV5pPxVPpyHbTOl8DPguL6WGEyf1eHWb/nPeAd08vUpXj1ior81ep7I1LdrSmdamjpxGLNir66eu14em7tLVM1r0kbLdAwOzZK8un7RZdy3aH8vvOHlFHkf2/Pgbq4EWFO+l9HMDJl8YnmYN/EuO6rP14+J443SHTnzy6P7qlK6buEJ/U7pO9762W/Vdudg559sT3pi4IYcrPAUR36/gn51ODxy15nxNWt27XXR5eaXuWdqktngl3y0/5FOBIP5U4t4VjbqurFZF42r0mYol2huFSnH6iW+HHD7+cuOP2vBrnbyvbj/QwbynmRsP6ZOztmnQuI365ost2t4VKJ1PqSuX0rzdnfrGY3t09fjVumHiQo1d0aR1J1ydzLoK3Ewsu+O58QER7/THYUHoi++N8nlPuYDTT+wy+HIzrlzXVSqf0Stbd+v/nrlE14xbq6GjVuubT9XqsZ1HtbmrW1VdrmasOaIvztiuq6fWqai0QUWle3XFtAZdWtKkYeUtKprerEEVjRoyY5+KynZrUPFmfWb2Rj2566SO8h2Qw0d0njy2wPjm6n3AmucGzNMKh6f3LntPBAVyokCBm1cUump3o3gf8yPFq/Q3JWt098s71NSZVh4fky2j+GM1/DA3BiYnvAF5lM/Jd9Jq7slpwupWDRm7RZeVVurOVfvVEn/dx2vBU+rmgzA30D2L6/Thyat0+dgN+nzZUu2MfHUEKWX5DCPvynX4+tBVkHeV88L4rdCOrpzuWrBf15ds1uUTV+tHC5pUnWLlnZXr9GjnSVeT1hzWbRVrVDRmuT71QLXKN7ar/mRO2ZyjbNZTNufFX07yUVl8jMzHb/bkeb1fKfaEkTpyeXXl+TjN04mcr2ermvSPMxboE1MX6dtPbtUTu45rRy5SddrT9O3H9PePV+uyEqbufSoqadIHpu3RX86o15CSJl08pUEXlzSoqKJRl09nc71a10xer1/N36FNHXl1O3n5LrsCofIuLgf7mH9uPuYZgOk7nHBx1eawskzp2knrdGvFNt2zsFVNKUe5+AQ1m9Mcz4IlHfkRi5Tec4Nhmn3AvFryvoo3tmvIhO0aOmmT7lx2KD7BzlQaBN3xZ6qctRyzfLs+NuVVXT95sb4wY77qIl9Hwqy6PF9djqts4MnhjGcQ6EQQqabL0f1r9uqLcypVNGGtbipbo/LNR9Sa59haTj6nzL1QC/ef0n88U6drRm/SlWO26euP7tD92w6qujOtU16oLKeR+Joy06V8ric+iOsFnjKhqyN+oK2nejR3U43Wt7arIwx1KghV2+Vo9roGTVhYqzcOpmIdmxxXT+84qK88vlVXlK/VB6Zu08XTGjV4Wos+VN6gD81qUNH9+3RReaMGVxzSlTPbNWxina4Yu0H/8FidXqg/qYP5IJYlcLLxWUzX8xWxP5wAkzOUpxkTxnBdHcyGKtlwXJeOWaHrp27ST147qPquvDKRH3+LHsRTdy8o3ciJ/bD4QESaz3ZdNTmRxq8/osGjK3XZ+I26e0mbmuMO4ER2Jj6ou9/JafjSHbqhbImuKl2lW2Ys10P7fT23L6WX6nN6ru6Ufrf7pF6uT+uxmk5N3XBCP3ujVZ97YJOKJqxQ0fhl+vYz27S8La0srkngKs9073pqyTp6tKpDX3ugTteO26zritfp07PX6edv1Om5xqPanOrR4SCrriCnjsBVi++opieveS2dmrB6r77/u0p9oeRpPVl3QCeiUOnI16kgUkO3o33dTnxI+qAf6rXGk/r3x9frxpIqXVZap8FM28WHdNXEQ7pmcqsundasD5Tv1aCZh1U07bAun9SgK+9doS/NWqP7ak+qMRsoy64GX3R62Xiris+De9/6JIz5FjBj/9PXCTfUnKqT+kRFpW6bWaVfvNasPZ1ZpSNPeXzL+GP+vDw+142Ie0/CBOmcMtmc9nQ7Kl7bqmsmbNBNUzZp8qqj8al3x0mrJ5vSKZgx8nX34gO6prxGHyjeqg9OrNKtD3DWcqc+MW2H/rqiWh+bXqXry7fryinb9aExm/UXwzfofxu3WYMnr9dXH92sZ3Z36CQ/ssDrRqf3rY5z+gcT9ru8CWrTd57dqL+avERFI1Zo2Jg1unHaKn19bpV+vbBek9Yf1OSNbbpz8T5973e7dftju/Xh8s26YupaDb1zru5b36K2DIDn0HBaed9Vni88864WN6f07ccqdenwJbqK9+AzD2rwzGMaMqVdVxUf0bVTjuiK0lZdUnpAQ6a0qGhElT5evF7ffXi1Hti6Sw2RH++xsqkf+ZwmysdvqPiRhgh3KWHMAsaEeXwn/vD/gbX7dMuYV/WpKYs0ct4uNXSl1R158Qh3OK3O0X+MGeWVDfnhgVARe5yBp6ZUWiXLd+pjI+fr5pGvadKCXTrJL1yEfDqQU08Y6mQYavS8Rt08GQZcq6LJVRoyequGjdiqIaMqVVTMa8gtumjUJg2duF3XTKvTtWVV+puHd+uny9v0wr4uHcwxSALl+YUMzlGGvnJZX93ZQN1BoP1eXq/uP6xfzavR5zwJLF0AAB6VSURBVGZs1PUTqnTp6FoNG1Gly0dW6SPja3TzpBrdOH6zrhy9Th8cvVZFxet1y6wt+vqDq/XKzmPqzPkKnbQit1vMFD15TvIHWtJ4Ut+YvUo3l6zXVaWbNWhmtf7yvp26uGyXhpTs0tBpuzW0tE5Xja3SR8dv0Bcr1mrUgl16o/G4mrq7lA75MYdAvsOPHvDLKL6yfDXpBfGRuwSY8ecQp6fyMJSX6VImn9HL1c3614dX6wdzN+q3q/Zqf3cvMDMBq3B++qR3KwVg8uMF/FRLFB8Zc3Uk06Ont+7Tvz68Qf85d4ue2Nyizjw/O9MdnxLneNcJ39fclfv0gwdX6RuPLNfX5m7R1x6p1dcfqdPXn6rV15/ZqW88vVvfeKxW/z53h+6Zt1ely/bq6eqD2nwyq3Y/kMsPH+R6lA+jeI8z56aVyXWrK8Ovbjjxz8m0uaHWH0vrgepD+tmrdfrab6t1+/01unl6nf6qZJtunLhKn5q0SF+csUJfnbtF33lxW/xd+yuNx9UC4DlQzC9+eHy77imTz8fuyoFTKb1a16ZpKw/oh8/W6MsPb9BNM5brptIVunXqGt1avkGfmr1F336iVr98vU4PVjWr8liXjsc/QcOvkfSCkEUP+7UsLHv4hQ+f8wj5P2/GjE8VAUa2jOIVdygnz/6ho8PZQJuPu9rW4aspxdePfOrA6pefSeGsYm9wOC4WcoCD09es2mFVXy2pnNa3ZeM6WtKsdvlNoJ74BBMHKviEty3lqK49pS0nUtrQkdXGE4E2HA+0vtPTmuOeNnUEqj4ValdnqAPpQEczeaWcjNKBF0+rQT6lIM/Py4Txz8pwBI7fIkKmePvKD5V1QnXzRsnztLWzW2+0denZppOaXXdM07YeVEXlXj1ctUcv7GrR4kOdqup21ewHOh6G6vTz8ffkMLHrB8q6QczQHInjt5N6/ECtKU97TgRa0dyj39Ud07PV7Xqu5rier+vUy/t6tOaYq5q0r9Yg1EnOmbquvFwofqOJn5kJ4p984RunMB5I8VeQ3p/xqry/qYK9TLaN+gu9+5e9P8yF8QoDW0gcm+s9Cse3z72LJGK+s4kXS/3E/C5PnsO5A4T+5CCN6buw/b7XA22i8x3RicDrN3SGXry4sxcHLAjZSos/3Iv3aPtv0/MC5ZxQGZcfAgvjz3FxUzqiUKeiQNkBAr8kMpCcpPfXP++1tPPax+xPyTf3NG16L4jPBMyYnU5/NxRv2PMjW6cDPqd9wtA35uN92LO/EP9KWkH78c7B6fvzBabPD1h5/ODWfw98vw0o7VUrtojPqHJe9QwDIZ4lvEieF8kJIuUCXn9G8a+ScICEevoLDOIEmGe5wuNNSH9GJK33zU7/rBEbGGDSiafZhV9JI5ypUwFYDEC+8e4TBpKDdMB/pnoH7PDA7/2JRQ7i9gkMIPtFO2YOfvUCtrS6BmqPD8hCP+oNQe+nzfxkIz/diHvDzwcOGHg+QOiPON5raf9jjBlPW29+Mdnn+/MBDGiGNaPZfWFHWlrfOHYBTgOtv+sB5XkbWfq289Y9G9e87vvvwY96N/Nj4J+2Ab9HGf8m5Znaiw9eR4r4etHC6XJ29rW/OAb0Geo1e76X4/8xYJ63EawjiE+fkH8zPoO/9BZg+meO85HnTHXGbgY+6oDh9Ccmp5nSgBnHA8w6f9BeH917wdfLohw+/sPQv85W3/nofqGVubCA2RecALMQuAXX1gkDxedj6IHqIr330ApTbH+hAJR8mVgg59sBM3Zf4sPFp6ft+Jt0rpl1en+N+b/FZ2BLZD0f3S+0MucFTOtAplwzhKUVxihr96b4QPeWHsenP3h7uynrD8q8TWf90XkLZepzHbsesS/dy2Qc6PgDcJ6BMQFmoT+NT8mbKLaCACQLR5eFF4uo0yeaej+M67W99QFtskBDT7P1ux33Z2OTr79n/aWZzOcMTCqjsfg0jct2Tu8rMN6TW3Acfk+n91fGeG73NGrlz1Xg/pS4UNIAhIECmdC3UDYzdt+YPNgBu5mNsFsul4vr4xnBQEdMID+xPSPO5/m8+E97gMN0NrlNPtOzMEbWwnxW1mx0TsA0A1EJ1xgTI9EADZFmebi3YPkwHoE8lDFh3uuxGdhsQFyonxm7b2x6m/3MXgCzs7NTJ06ciON0mh9b8GN7Z7O9B5atfrO/2Z64bzvv1n2hPmYTYmSywWcDsPC56UJ5k/WcgEml1rgZgnurGIOeOnVKx44d0+HDh3Xo0KH4GsOSB+MiIDHlrZzV+V6O0QWdzEbcm5EHirEDQLMy3d3d2rdvn1atWqXnnntOc+fOjcPrr78e29LawM7Nzc2qr6/X/v37Y4YttOVA7b3T6dZ/yFIYUqmUjh8/HmMCbHCP7oV5rKzJeE7ApCIKUgkAI+aehurq6rRs2TI9/fTTmjNnjmbNmqWHH35YL730kpYvX649e/bEnUAZ6qEzEM4Eej/E6GMzQqE+Zuy+cWEebLJjxw499NBDGjlypO644w6NGjVKd955p8aOHavKysrYXgAZWz7++OOaNm2ann32WbW3t7/ZF33beDfvTZ9CwDFY29ra1NLSEsvd1NQUy4udCvNZWZP3nIAJGAuZDnDt3btXzzzzjCZMmKB77703NuSvfvUrETDu3XffHRu4uLg4zrdly5ZYUGMJE+i9HmPkgwcPavXq1Vq0aFE8U2Ar9DJj940pQx4YcNeuXbr//vv1ox/9SMOHD48H9n333acZM2bEA33z5s1vsgzABJQ//elPVVpaGrOndTId3redd+ve+tBkIUae1tbWmPFheWwEUG0WtbxW1mQ9J2DCCGbsnp4eYSyMd88992jy5Ml68MEHY4ZcuHBh3Dm///3v46nogQceiEELUKdMmaIXX3wxFvD9wpjWAevWrRMD8Je//KW2bdsWzyTYy4zdN6YcNujq6tKCBQviATx+/Ph4hsElggjoWGYk7E1em8ZfeeUVPfroo3r11VdjBqIuOpc8fdt5t+4NXAY2YvTHpYPVASUu3pEjR2K9CvNZWZP1nIBJISrAYPg3TDuAsry8PGYK0vAhMDQB5x1hYIM33ngjHvkjRoyIR/v27dvjqR1DEsywJiAx6TYQ7N7yWUx63+vC+8L6rA7qLUwnf39l+pOrr0xWlnjTpk0xMGE9XBtARTtmN2vX7tHNGOWRRx6JbYlN8TPJa/mpg7yWBttgZzqb2Nox/QrbtGvaNB0ttvotJt3yWRr3hYE8hc8KXTraIpCnMOBfGjAB5cmTJ+M6CvNYWWvrnICJcRCEEbx48WKNGTMm9n+4BoQGIhpkquaea8pgTDrrhRdeiNkBAe05ilowAa2cKU661cm1lTVDmkLUY3JYXYUxz6xOyvCMtkinLNdWB/lMLmLykmZAQB7LS3lYctKkSfrhD3+o2trauE6ThdjKFabBgCxg8MtHjx4tZhnYkjzUbfqZLCafycM9wfQgnWD57BnPqZN7Yuqjbe655rmV5TmBtMKALORBb6sXnQplK8xv1zwHM+hFbO1Zn/UXnxMwqZAACFkx4j8yTeNDmCI0gkAoQJopQIwSbIMgYKFylCEvaVaWdkizesxopJMvk8n8tzqox/KZUfrGyGEyFcpKJ7GwIDCIuKcu8tIewWSxOgr9JOSqqqrSuHHjYmBybfmJKU+dyGPTMtfUhc+Ff8ns89prr73pf6F/oU7UQzuUIbb6uTY9LY/ZztIpwzXPiU0n9DV9qIdydm/X5Oca+bE7ehMoa2V4TqB+grVXaGN7Tn2knymcEzBNMaYPRjiGZBUONRcakHymDMJwjSEAJvcoxHWh8KSjJIrDIISOjo43lcU1YDrYvXt3vELduHGjcAcaGhri6azQwGYYM3BhbM+QlzapF3cDNt+6dauolyl5586dsT9kI5w6KGv6cI1O3CMnq04WPaygf/GLX8TXBw4ciP0rYp7ja5HfQE/dpAHiioqKeDXOQhKdkIkBT6A8QMCO2A0bAWZshE0M8Dw3uchnch09ejSW1exNfurFluhqILN6kJE2qIM+QU5W08i5fv362EbYHpeDaZo8tG02snaop9DeBkTLZ/f9xecETARAeIwye/bseEHz5JNPxsIhBOAgmDAWm0FNgcJ0hOI55Ql0Cv4WjMzqkzT299auXavHHnss9uFY/eOrAgL829/97nfxNFrYASg/UKBOWBvwseiA9ZmC2Z5hsLFdM3Xq1FiOpUuXxgCgk0xOAIku1M/swWKP1fPEiRPjOu66667Yj2ZhSJg5c2a8ymZrBxlpn/qY+n/729/GZZnGcY1Y/EyfPj1OY8uNelnk4KfTHvbHDZo3b17s4+NGAUADhuWhHeSiLvx7wEWbAHnlypWxLVmIwvCAC5msDtoAmJRhwD7//PPxwEE/bIOdsBf+MAxPHmYBK09Mv1InfT1Q6A+QlnZOwLSOhiGfeOKJeDuI7Yrq6upYaRMMgWyqoAydaIAlD4IaILkuVICR+Jvf/Cb2t6iXUQnw6DgAWVJSEg8KBgbgAUhsTWE0OgsGor2BjEE6A2v+/PlxXbgjAInVNNOp1Ut7v/71r+P6mR02bNjwpvFNfnQDAGyGs8XDniMx8tDhDB7uielM6meBCEDodDbSsR950RldkAeAGkgpB7CxBe3SJgzKYEI+QMsMhl1tsAAsVr/sI//4xz+OgUWfNTY2CiKxAcjuATIDdMpb/9EOA27FihXxAEMfZLNBgj2wF/3BTgtsz0wDgVDW5KC+/vrZ0g2E/cXnBEwTHsOyX8feJQaF4WA3lAeQCNe3cRuRpGNcq8tASUw6LIbCAA02gznpOADDBj5AxZAAkD1UjAcr0UmA6eWXX46fIUN/AXaAQeh4AAlYYBZGPYClQ2mDaYuFGnIAlrKysngaw0c2+YmZBulwgMMWDkzys5/9LJadQVZTUxMH2BHWIz9yGXuRhi0ZZACYWYG9XhZP1Ikc2ASgmM1gPfIBFuxjz7A9ebAlNjLyYEHFgGAAUYZ+ozxsx2C2frO+Q0cGDVuAyMQgYGDiXpCXuqmP/jCXjsGzZs2aeA1B+wSTlxhbWbD0/gBpaecETEaCsRGjlqkJRQl0MAbAkDxDOViS/AhiYDUhuTcw2jUxAGG6sGkahmSUszkLE1j7FtMGb0wALqOXcnQ0UxH1FQZAgUuAwRlQTEV0On6mGZPOwYAYCKAuWbIkZg0DMQAzvawjLb+tyn/wgx/EelgHECOvdRbl4nts4Ps6dPiw7rtvlu65917Nm/e60ulMfKqIcshBbGVpC5aGDBjATz31VDwVkwddLS8gQj9YEYCy38mgwT1AJ1wmQIYbYIBBJmxk9qRfaQcb2YBCdrMRDMnAwl0gLwCmn6w+ZLFgacSWZiDsLz4nYFIpQmEkOh6hGLFMDUxZgII3EkwhGIIRxKhHWEY1LEEdBgJi7gEcwmJY8jNKURRWYxqnPM/JCyisPGkoRRoLF4yOHIxiM5ApTd2McvIwNQFkBgEymRzkMf2om46i42BYmBN5GIxMwwZ8k4F2mM7Ixz4mTMmztw1RpAMHWzVj5izdO3ykfv/qPGVzeYUFq1arA/2Rkakb0GEjFp/GmDwz+zKj8NqSqZo+gZEBDiyOf02d5CfYNXaADZl16AOmaEBKuuXtL6afYWFmLEgBECMH9Zr9zzU+J2CaAnQYHUjnAADehQNGpjuEw2CwHp0E4wEUpg2UZLRTzgxIbIBFaToUoxAAD+AHuGZAk4FypixpjH6YAN+HAcJUhIxmSIzFQgZw4RpgQEY8ZTE8dXGNLASuCegK+wBIQM+UxdRtMlOWfJS/EICJLOiMSwJpAEz6A7lxEYz5sB/5LEYP7MVgpc9wjfDDGYQGNPL2F5hZmNVgcHYVGDjYzexq/XQu8TkBE0Wo3JThmjSmQkYolI/Ph28GMwFONptRElZl5PI6ErABTut8DGJ14lsBAADEyAVw5DMA0J4Z1MojB4agXliB8sjAShEAUT/MB7sYo7L9QZlCQ1MveSlj7dAGaYAOwKMToLeyBmJkuJCACfMBFlwQpnMAYwBDHwI6ogcDn1mHgQrJsDPAogyQYnfymK37iynLQKePIScGrtkHu5xPOC9gIpyNMJTjHuUAAgHQMV3gx/D+mCkFvw6A0rFsPzCt2uilLgMmrMrIY2pgW4O6aMPyYFCuC4FDWdLZm4PZYG18I0CNgQgMHN7lAy4b1QZa04d8hfXSDoHn6MKqlI5mcJn7Qbtm+AsFmNiDBRKMaS4RwEEP5LWBxz36GohgR47YUQaAsV6wxSD2GyiwpjDfHT8WcjH7mG3ONT4nYFI5HYVyphBKoSCCACLzAUnjGcoiOKs6pnQ6FnCyUGKFbIA0QDBKASZAZuqxjrd2qJdg5bg2pVlw4ZNSnpU6ncMz8sKQOOm0zVE82IFn1i4xupHX6rR2yEensJJlhQ4TMah4Tjlr/0IAptnFVuXYArvDYqYPMtu1gRQdsAm2se0hXDFYkMEM4AYKtIF7hG1wpTjcQ12FtjEbnW18TsBEGYBC4JpGiC1wj2GMaRDMOhomZQQyxTO1wD6AxfIQEwAmIxY/h4WQtWXMRVvUae1Y28SwNGyGgfBP8WctP74wfha+K+BlwFhZQE/btEFcqJe1BRuzZ4grgEuAPpaPPFxfKMBEDwYSq3GIgIFkq290Nl3R24BJOjYBmJQBjAT0BZC4VgMFAAwg2bCHEDg7CkFRJ3Y5nzAgMK3TCmMUKQQIz94CCExjzjEgo5PfmqIxBqtHVriMQpRlJW0KmLEKGRMFGXkYzwBCTLuW39oHwDCkbXYzlVtnkIcpial85KiRevKpp2JZHLeX+fO4B6e3bkw/YvS1zmNvE7DTUXSeAZO6yVMITLaLWMTxjGB2sutCm7L6fqdW5baPieuCHa3dQrkMNDxjxmFfE2DapjmzHQRCYHBb4BUrgXQGLYzMNXbChbL+sfrPNX5bYJoSxDRGTEcABGIzevzXdR5sygoaAL91zd/ckY8RCavgXEP9TO+2CEJw6sTHBLiwJuyHsWjXjGrtkddkwY3gHr+VaQvwAFDas7IYK2aQu+9Sadk0HTzUqpzDr6/xr7n8dnmvfuhkZQAnbTB4GES4F7AG2yO0iczkpW2ujTEBpp0usrqol0B9hbpQ7uDBVs2cyVbXSL366jzlcn942NfyU5b6zrRdRF7y2CY8sxMMj51p60wB94TFD0xZ6EqZjrRvMphMhgFsBYFgC/Jzb3Y5U5sDPTsnYNIYAgEWRgbbBG9NBYAHpqRjASxTIor0To+Uo4NxkgEmixt8EWNMBERJOhQ/EHDZKzzrTJ4jA4qTRhli0pCJNxEYlPppx/xA2obheD5i5AiNGjNaa9atVRfAPf1rHjFAC2YE6qQ962R2CHAReDdv/hr10r7JZ8DkZLkBkzp4Tj0mt+UnRocLAZjowmBjxkJHtpl4k2XEgKwWyGsB+Qv14hrbmf14fj7hnICJMDTCJi3+FoyGInS6AZEYtiQAUNd9awObqZVtHEDHVAHDWcdRL9d0KH4gK2tYlf1PypnChTHXyETMSRmmasqyZcTJG0asGZNr2psxc4buuudu/fbhh7S3oV6ZXDZmS35Yn6kdGaxOyrIVxooWwDPF4Z8yLSIvxqdtrok5qYO/9ZOf/CTejaBNAoOPvOSjbuq1mLQLBZjozoKUPgKY9BFbgMjKM3RED7Or2Yl7GBp3CSyQj/yko9/5hHMGJg2yUW0b6UydsNOBA/vV3c2Copc5LYYxGYkobGwJI8JA+Jx0knUuddsGO6xHwKFmBY//glEMaGYspmu2cuz1KGCGGXsHS69BzaiAbNHixSqePEl333OPnn3+OVXX1uhUV6ey+d5fNqZeAu0wIHA3WDThWuDYsyBDDvJgeOsswMeAtW9x0A/ZLJ91KPemB3JdSMBEF9MDUDIQISDOQZjLhczkIS+6cM0MwoDFZYCoSLN+Oh9QUuacgYkwOMAIAovYm4U5c2Zr3rxXVVW1VQ0Ne9XY2BDH9fV7tH79uphd8V044MBRLw5g2MijoxCGmI6HUVnlwcjkBRRM6yyGACFvYlh1sqHOGUjzK2FLyvCMupAVQzIwuOf66LGjWrjoDQ0fOUJ33vUbTSmZqnnzX1dV9XYdbG2NBwureQzMVIYcvFdnemNg4atidFwY6jNgck8H0ZHs18KcvGyAyWFvOhf/mcFBJyOPMcqFwpimC7sbDG7IBx+VgYnuuG9sQxFgSGYgXjZgf9wc8FC4oMX+7wow6QjrbFZiLAKYNum4X/ziZ7rjjl9p5MjhKimZohkzKlRRUaaystKY+QAX+QAa20aF/p+BCMMATPbFYEoOpTKVMEVTHgaFkWgTY/B2gnSMh1EAEsAFiIDHDIPcgIB2+JmV4x0nNH/BAk2cVKxf/OqXMUinlZfFdQIsZKQ+5GXgsbVloKQO60BigrEDoKOjkPHHP/5x7Efzjho5iRlcgJQyyGbyXQjABEDIYzqxwAKcMCc2ZpbjmpclzE7s6bIJD4nwnG1ABiKAtf60gXc+4DwnxgRMMAMK0BkAwAD61FNzYyCOHj1SI0YMF/GYMaM0ZsxoTZ48KZ4GAQ5sSz0YwDoZBcwgBkz2MXlrRBsssngjwchlVcxIBrys3gErQCUvTPcmAAtWv8ZwMYAARBTF4Fyzdq0eefQRlZSWavyE8Rp++tyk7dfRHodRYDumJwxsILRr5C7sVOzB4V0GFgs885cBOltYuDQGSuriGoZ/9NHHVVpapiVLlr3tqhwXg7dn2Aj5uDdQWYwt8BWxD1tAyG/tnilGH5MLd4j+AIi0hd0BKPYhZgZkJkEWCISZABIwYJ4PIK3MgMC0DIWxKWSdY2AiZoThB8KGvEqkcxhxLBxY0ABIW+FRpxkQJQCfgZPpjlFIx1KXTZdML0wlLDConzOUbG1QN6PUpkeTzWTtG5vRSWeQARRcAhiRPVYCMuPrwm7IjGyUK7RF4TV1Wb3oY69j8U+xASyKnAwwG5TYjLyUg2mRgTaNcQrr73uN3NgTW7GXaP6f6UqdLNBwl7AhixIDi+XpL7Z2eIZ82J62qB+XhBmS9QV258AMZMAMhU4A3+xEeavrfOP/MWCaoREOIRHWAsqhJAYjH8GuCw1EOr6dMSEgBLRmKOqhTgyF4RnRpPGc+gpDYb2F13SQBZOZOqiLOgm0YYOFvCbvQEY2XchndWIH6sUWyMs1z0xWk8FkIz9tUpelDdQezylPfuxqdVo5q4M2aZt2qcvat3x9Y2uPdPJSt+lBe9iIgE7E2Im2aId85LG2ra7zjc8LmAiOAAQUICAYipjBB4rJY/nMUAhPnaTDGkwZTH28K0dpnll9VoY0AveFz0wue943NpkpQ3tmUOopDJbP0rgfyMi0UZifuilHWuGzwnTTmTyF6XZNuYHaowxyW92FZUiztkm3ZyYfzwcK1l5hvdZf1Gl12TX3Vq+1yX1hsDrPNT4nYFrlplihAHaNsIXAIx2h+wpuyvGceqmTsmy54EwDTJvK7Tl5re3CuDDd8hY+73tteQplM/n65i28p1x/weopzGvXPLPnZgeLLR17cU0ZAwLX/bVFGnmxFXmoizLWHteF9ZPX2iHd8vUXW3v2rL9ylkZs+frGPLN8Vue5xn8UMBHIhMAgfVkTQxQqYMIVKmLPeUZ+wAgwcdrtzZC1YeXJZx3AM9Kpk3RjwMI2Cq9t4Fi79sxktTYs3drm3p71jS2v5aEM9dGWTafIRZrltXpJQxfuqZdrgtXVty3uC+swm1sa7Vn7xKT3vbe8fePCtvo+M3tbfcQme99ytGdtFj47l+vzAqY10Fd40vumcW/GpqMKO4dnhSMf34UFB++5WW2yL8hzlLSO5Zo0/Cs6gWuTZ6D2C2WifOG9XZNeGEgvrPdM15RDL6u7rxx9y1I3chOs/f7ivuX6u++vHGnkNX3sfqC8/aUXttX3Oc/6ptl9Ybk/5vqPAmZfAe2eTsLoBsL+BEQR60yeY0SACeBYRbIaZiFCHgLpxFZXX6NbOrEZqb8YuYxlrH3yFZY/12vqKWQUk8Fk7K8+2uQ5Zfu2f6Zy/dVFfvRCBrN7f/msrf7s0jetb3mem714ZrLbtZXvW+587/9oYJ5vw/2VQznrlL7x/7Ti/bWfpPXvQ/8p7JIAc4AFzZ+iM5I23xoYCTATYP5Rbsw7NZgSYCbATID5dqMr8THfmsrezlbv9+cJYyaMmTDm243yhDETxjSMXFCMaUIlcQLQBJjJVJ5M5QkTJkx4thhIGDNhzIQxz3a0JPkSZk0YM2HMhDETJkyY8GwxkDBmwpgJY57taEnyJcyaMGbCmAljJkyYMOHZYiBhzIQxE8Y829GS5EuYNWHMhDETxkyYMGHCs8VAwpgJYyaMebajJcmXMGvCmAljJoyZMGHChGeLgYQxE8ZMGPNsR0uSL2HWhDETxkwYM2HChAnPFgMJYyaMmTDm2Y6WJF/CrAljJox5QTLm/w/fAmlycmneuAAAAABJRU5ErkJggg==;" vertex="1" parent="PWt_-XY5z9876F4vLIQb-26">
          <mxGeometry x="160.18" y="250" width="129.65" height="107" as="geometry" />
        </mxCell>
        <mxCell id="PWt_-XY5z9876F4vLIQb-73" value="" style="shape=image;html=1;verticalAlign=top;verticalLabelPosition=bottom;labelBackgroundColor=#ffffff;imageAspect=0;aspect=fixed;image=https://cdn4.iconfinder.com/data/icons/ionicons/512/icon-plus-128.png;fontSize=17;fontColor=#0000CC;" vertex="1" parent="PWt_-XY5z9876F4vLIQb-26">
          <mxGeometry x="204" y="220.86" width="37.14" height="37.14" as="geometry" />
        </mxCell>
        <mxCell id="PWt_-XY5z9876F4vLIQb-74" style="edgeStyle=orthogonalEdgeStyle;rounded=0;orthogonalLoop=1;jettySize=auto;html=1;exitX=0.5;exitY=1;exitDx=0;exitDy=0;entryX=0.5;entryY=0;entryDx=0;entryDy=0;fontSize=17;startArrow=classic;startFill=1;" edge="1" parent="1" source="PWt_-XY5z9876F4vLIQb-62" target="PWt_-XY5z9876F4vLIQb-26">
          <mxGeometry relative="1" as="geometry" />
        </mxCell>
        <mxCell id="PWt_-XY5z9876F4vLIQb-80" style="edgeStyle=orthogonalEdgeStyle;rounded=0;orthogonalLoop=1;jettySize=auto;html=1;exitX=1;exitY=0.5;exitDx=0;exitDy=0;entryX=0;entryY=0.5;entryDx=0;entryDy=0;entryPerimeter=0;fontSize=17;fontColor=#0000CC;startArrow=classic;startFill=1;strokeColor=#000000;" edge="1" parent="1" source="PWt_-XY5z9876F4vLIQb-62" target="PWt_-XY5z9876F4vLIQb-56">
          <mxGeometry relative="1" as="geometry" />
        </mxCell>
        <mxCell id="PWt_-XY5z9876F4vLIQb-90" style="edgeStyle=none;rounded=0;orthogonalLoop=1;jettySize=auto;html=1;fontSize=17;fontColor=#0000CC;startArrow=classic;startFill=1;strokeColor=#000000;" edge="1" parent="1">
          <mxGeometry relative="1" as="geometry">
            <mxPoint x="4358" y="82.95000000000005" as="targetPoint" />
            <mxPoint x="4282" y="83" as="sourcePoint" />
          </mxGeometry>
        </mxCell>
        <mxCell id="PWt_-XY5z9876F4vLIQb-62" value="Voice Assistant&#xa;API" style="swimlane;whiteSpace=wrap;fillColor=#dae8fc;strokeColor=#6c8ebf;startSize=90;fontSize=30;" vertex="1" parent="1">
          <mxGeometry x="3850" y="35" width="430" height="370" as="geometry" />
        </mxCell>
        <mxCell id="PWt_-XY5z9876F4vLIQb-68" style="edgeStyle=orthogonalEdgeStyle;rounded=0;orthogonalLoop=1;jettySize=auto;html=1;fontSize=17;startArrow=classic;startFill=1;fillColor=#0050ef;" edge="1" parent="PWt_-XY5z9876F4vLIQb-62" target="PWt_-XY5z9876F4vLIQb-64">
          <mxGeometry relative="1" as="geometry">
            <mxPoint x="215" y="210" as="sourcePoint" />
          </mxGeometry>
        </mxCell>
        <mxCell id="PWt_-XY5z9876F4vLIQb-63" value="OpenAPI UI" style="shape=image;verticalLabelPosition=bottom;labelBackgroundColor=#ffffff;verticalAlign=top;aspect=fixed;imageAspect=0;image=data:image/png,iVBORw0KGgoAAAANSUhEUgAAAJMAAAA5CAYAAAAyYhmdAAAMOklEQVR4Ae2cTY8dRxWG8y9YWMZyTILHngFkEWuCCLGT2FHEp2QHL8CbmQ0BEdlIJF7NSPHM0gqsPWwBe8kCe8MO2ez4sjcIDLIXxPbK/gONnr73uXNu3er7NT2ee4cqqVVdVeecrj7n7fdU1+2Zl/7xz/9U5Sg+aAMDLx04cKAqR/FBGxgoYCoPU2tkUsBUwFTA1AYtFxvtpvfCTIWZCjMVVmmXVdrwZ2GmwkyFmdp4koqNdtmtMFNhpsJMhVXaZZU2/LkjZjp89ED11o8OV9//9JXqx78/Wn3852PV5pOl+uCcvtXfvlrLINvGhIuN2fXjVGBaOHmwurj1ag84AGjj8WK1+aT/2KjbHXAhA7Be++6hAqp9mlonAhPsAgvJPjWAni5WmxxdRsrWT5eqDQD3WUcOxiqgml2GmZb9xwbTl9/6fLX2rw4YNh5vs00WPI3AWqw2Hy/2QPXez18uLLWPWGosML39wcvV+oMu+4xioUYgBQA+XaxMgaTLaZ+Eojdb7DYSTAAJ9pmejQKI+oAGoDpjBVCzBYppH9KhYCK1rf97sbpar3VGrIv6gNIEoMF+AfW9T44UhprzlNcIJhbbaw+21zeTrY0GQTNM35T3xsXDBVBzDKhGMF34Rfet7WkeGD/8zcnqO7/8WvWDX58c/ib3ZKn66O9fqWXf31qu1h58KSPfYb8rfz02MZgWFhaqtbW16tatW9WdO3fq49q1a9XKysrEtqal96LXSdNZMLGP1GGSfGp7/cNvVJ87+W59nFg5lQFHPwA/+MNXe/IHT59pAFRHhzXauMG5fPly9ezZs8ry6NEjT+v65s2bY9sa95pFrnl9lwXTxV/1b0jGFAWzCKT3ry9Xl/50YiSY0IHBvvDNt2td9KJNz1mb8dY4TsCWl5drID1//rxaXV3t02FsfX29On/+fF//OHaLTDNYRvkmCyYC2vT2JsuMw0iCxPrbn75eg4navlw9ztoJsFBIaaNusoxPD5BJfDcAJnamcwG2b3fB1EmrrNdG3QQgooxiH1IhsrBVahNdxlJmU44x9G2zDrt+/XpvbXbjxo3q0qVLvXHlqLGdymLPI9pFnjlgz3UfuspSx/vkXuiLsmfPnh2YR9RD33Ul/XGubZ0PgGl74Z1fL+0ETKQ6UuTyT99sBCxvduMsxAkGZdS6CMdR0uDhwHv37tVjDx8+HHAuwaVsbW3VY9qh7+7du/XhGo0gxYDImoyjhw1lqdGP8wFE2lWe9E1B/vbt2z0wAQrXic5D2WiT+VCw53xo379/v+6L823rfABMP7l1tPujbf8iWmZivTMKEMqm9VhArH8wXuoLTtPNGiCeYt7qcnI8sZQUdMhTtJE+2QCAIiPABmmwsEFAKeojR6E/zgdZrpUCV9Cm88MOIIF9tIMNgIQdr8cY/YCEgp7ytHlgsJPOXZk26yyYOr/+58F0YvXU0EV0CqDYZosAIA59o+uCiQ3TUTeKQ3UiTuYJj05WH2emQcS5FGueXuWpZa3Ylzv3qTdY2rMddVKAMibjCdooL1DtUzaXlnOgrG+wqmpm0sZu1gNg6gR/MMXx1gYIAMOxC6fr13ve0l751jvV8Qune2mLbQP6fMtjsY3eyu9eq2Xevfr12gZ2hu1RjftVAU8lgZNhcCBPcwQVaYISn1r6ABnOpQY8OhqbFGTsa6oBAYVAI2PAc+DIjcFIlJy8YGI+2Ladm4tzjoyIXe8xp9N239hgMkUBAl/tAQxtDlgHINpGnjZvffT5Bhd17IvstdndJB0XTNEhPJ06HKYyQClb6HhTiwEVbD7lKVsBUADhQhbQymCCSXBpO84PeUrsk9nSazFH2DSCgXviwE7uwDbj2qcdwWX/btUDYPr4L3wtOchMsBAgOniqw06CBcaRdQAF/TAO8rQBGaCxDWsBrjevvNFjrz4wddPcNGDSSYLH1AZIKAbYcdOF4KEfG6Yj2Y3ACgQYEMYCPBwCUTChL6BJu7wB8sanfg40pmrWfufOnat39JX3gcAuBXBhf9ihH5DfUzCxAM+ByYCbpqjtG7eW3UiTjTpdMO30M18DpGPj4hcwUACJ47RNa7AN8o4JGEBmn7VMFMGEXQGFXQEYgaE+tSxUTyrIC2ZlsUOxPapGdk/BtHrji82BfrJUsxDMMs2mpW+Cw3T9imCUo0aNG0wBI9vAUqQCgaOdCDCCIIsxDsM1BREQUSKYTF0pGLxWWjM3gGKaTcdte0+j5JRnXnsKJr9fcu2SMojsMgwQqY5t0t0oILLzDqB1yDQ1QaREdjGVCSpTmvZNfblxUgtFWevIKBFMBHCSIGI7glf7ae09pPtaqZxt7E4yD/WmrQfWTL0feRs+zW0DTNmFd/ge6r2PRv/YC5OwJmE9wjrDgy8IZBLXRDiHwFNgJYqMpeMcrweTcdMc11OPtRDpUKBFMAnIuEgGAMjkdswJOCXKcy3k09QYZblnHhxq5oNOXJNhc0/BhHMv/3Gh2vgsv88kmGAYGWfc2vVWE5hMcQDaIDfVBtjgxxpGikDShuuoNMU5bqCQs48aAKkbr4MdQRjBBKCHFUCjffRZeA8rgCTKC9acTmRcxoeBCaAin/OV15ukHmAmlHuprrsYTsHiGx37R8P2itRjO8C3OEAY3/6U2ex+W84XC+PeAGsHHUIwcUr6JEdbyjetOUaNY5snnyOuh+jXpmyVmwcyPgQEESDBogA12nPOyAvidBxdrsF9y2D0qUvNeKoXx5H3iP3TnmfBhLGf3VnofjkwuE0AO/k5SRPL9EDS3S4ARBxNb4GTsNK0N7vbegSPElNNek1lAABylGHMoAx6qa1ZazeCqff1QAM7RbC0dT4JK82aI5mPi/iYatJ5KgOAABRlGFBMacMYJr3GXrUbwcSEel8QNCzG2wIRdmDCne4t7ZUTvS4Bp5DqTHuOkU5YfPMCQOqiLUvl5NEXbMhrZ5broWBi4p1NzKWqaatgp4BiK4CP8cb5YXeWHencYB7f8ACOO9k1yrobowApyjvG+imVZ40V5dWbxXokmGAL3u5q0NQpb3ANNS2grv53qf5Tqv0CJANM8E1jsAsH7ZStojwgVJYa1poXEHkfI8GEIIDyu/CmLYPxAbUNRlLbfgOSjv1/rMcCk47hDyX5o8ypWKr+BxdL1dXu/hXpc97XSPql1EP+1GmYc+p/pxP+ekVwZH8c5nOS+pOSbTYCRDv5ImDY3GZxjEU5m5Ic8S2P87RNeov3YOqL6dGFObJsjpoKSYtpmsRW7E9333Py6HiNOD/6nQ962I1z5XwiZorKgIq3vd56Kvwckqa8K387VsvOe0ozcPghBjj6JT1nUc16CefH13t2pn2rQ8fNyaiPrgG3HzvIChJ385kPfRRq54c+i3j1mIu2tBPlGQM06PAioSw1c2bfCxv8ynDkSP+f9E8NpngR0hVsw845qZCDc/p2C0A6GUfEuezkPDo6Zydei+vnZNI+AgIjRCAiQ2DYQxJo7iepjzzBBhTxJxHmENvxx2x0Kdqg1k/Y400x3mO0E3UEH0BNHwB9gMzx48f7rtUKmOJEXtQ5zo9PH9flRjlwAk8QB/20cSqORAddnME5fcidOXOmDhL60jk1MsiiryOxiQ0DhT7BUj76gGCgT9CRd4xAOoYt5hGBQJsfh/kRN/YzB/al6Cd1ykzajbL0cU2uzfUAdgQHbfpTUMGI2E9/OEaO1MqPymx77AozeSMvsjZ4Bp5r42gOg5ar7dPR6DtvxwQPbYGibWUFquPU6isTa0AZg+Y5tecRCAIem6Yj7DEPgQkYsBuvE23Qj77ziueMed2ojz3t44cIVuTto456nM8tM/HkCBwCyRNHAOjDAbR1om3kGOep5+CcQ6egzzl66HOk8soig+OxSR91BKZyPMnIkmK0z5iBNDj0RSDEXXFsey/MR1367Pd60QZ9Xpva9ZuycU2mH7iHOE8YSHmuixwPMoA7dKj//5POLZi4KR3AzXJO8LlRHEfbp1aQ6RSBQht5+5FXJ+ojT3+U5RwZ+7iG59qjFpDIpv2xzXmUiefYxQ4yTefainr0MW/6OLy3KJuOIRPlvC46nHuPnO8bMOmQXJ0yRNrO6eykj4DAdDuxsR9055aZ9oPz99s9FDDN8X9qmzUwFjAVMLWWnguYCpgKmGaN4st85nifqQTvxfw3uEn8/D8DwaysHGqY+AAAAABJRU5ErkJggg==;fontSize=17;" vertex="1" parent="PWt_-XY5z9876F4vLIQb-62">
          <mxGeometry x="124.74000000000001" y="115" width="180.53" height="70" as="geometry" />
        </mxCell>
        <mxCell id="PWt_-XY5z9876F4vLIQb-64" value="Resul API" style="shape=image;verticalLabelPosition=bottom;labelBackgroundColor=#ffffff;verticalAlign=top;aspect=fixed;imageAspect=0;image=data:image/png,iVBORw0KGgoAAAANSUhEUgAAASEAAACECAYAAADfu53yAAAgAElEQVR4Ae2dZ3QUV7bvWeu9t97cNffO2J5ne2Z8x2N7nBP2eMaM7cHGYWZsj40NCEVyEkaInG2iTRagVrdylkBINEgogARCgJAEQkgCkZPISWQw9v34f+t/WqdV6q7urm61AqI+1DoVTu2qc+qcX+29T+ryP//zP9A3PQ/0MqCXgfYqA13a68H6c/VCr5cBvQywDOgQ0jVBXRPWy0C7lgEdQnoBbNcCqGtDujakQ0iHkA4hvQy0axnQIaQXwHYtgLompGtCOoR0COkQ0stAu5YBHUJ6AWzXAqhrQrompENIh5AOIb0MtGsZ6FQQunX9Nhou38TF0w04WF2Pqm1HsD1vn8ON1xmP25Xz18D79T+z/mdurTLw072fcOraZey/fhmlp/Zh47EqrK7drLrxGuMwLu9prXfqCHLvWwjxgxI25Zv3IctUirBx6zDdJxUj34/EkDcjEPTMcgx4bQX6vbLc4cbrjDewaziGvW3EpJ7JWBK6FunLigW4CCcdTDqUPKmoBAchYqzKQ+imaHxinosn08biiYTh+F38MDwWOwiPxgzEbxxsj8YOFnEYl/c8mTFFyKAsyqTs8/fudgo43VcQunT2KsoLDyB54WZ82ycdwW9GYdhfjRj4Zjj6dV2OgFfC4PvCEvi+sBR9n7WE3He2WeO9uBT+Ly9FUNdlGNB1BYa+ZcTQ140Y80k8DFNysWVdLQ7vPQ3Cz5NCqd/TuWF28d5dFJ+oRnhlDl43z8ZLqaF4Jmkkfhs/HA/FDsEvovqjC7fIIHQxBTZtPHa0yXi8HjVAyKCs38YNFbJfTh+Lr3OWiGdWnDlw35bLDg8hgocAWBhsRkj3GAGHAX9eAb8XFaB5cSn8XloKv5ctm/8rYfBkE/e/tBS+L1rAJQD1ogVMg9+MQPA7UZgduApZkdt1IOl+FEjwhGyKwcsrJ+KpxGA8FjesOWgEYPqhS2Q/C4QkjDwJKUNsTSAj3PhMAu/11VMwu2IN7jcgdUgI3bpxB9Vlx2CakY/QD2NBABAqUqORwPEENJ7cw+fJZ1NboqZEIC0csUYA8uqVm/ftX0jX0NzX0KpOHxSV/eXMaXgqaSR+FTO4CTwSOp5AxpN7lFCK7IdHYofgmeRRQhujVnbm+pUOXzY7FIQIn42rqzCnXwaGv20SJpbUSggCTwDi7XuoLcl3omwCMvTjOKEdUWvTK7X7lfp+yTOaWwM3GvBs0khR2a3mlTe0HE8ApHaPwrSjhvRS2hhMLUkCwdlR87lDQIiaBOET2iMOg7oaGn07FhPL2xDxpjyrhvRio3b0ZpTwV+kw6lwgInzo56G59cvogRZ/jvDTNPp51GDQ3uekhhQZJHxSBCcB2hFNtXaFkNR8JvRMxOC3DFaTh9qGN2HRFrKoHdGH1O+15cJ3tXLZVugwur9hxApLxy9NLqtDuSNpPVpBx3c2BQqA0lQjjA7d6DhmWrtBiD6f+cOzhOYjWrTYOuWhQ7kj3SdNtf6vr8D4LxKFhqe3qN1fMKIfhc5mVljRqtXWfh6tcHE3XqN2RG3u+bQxwq/VEcpmm0OIpheb2OnzITzo8L0fNR9X4LPAaImALB3YbN7vqDa5/l5NkFxbtw0vrZyIX0UNaGw690KrlruwaO34jTCiE5tmJs3N9iwDbQohaj9jP0sQJouATwdxNrsCiqfXhRP7BYuGx9a07PgKvZ9RB23ap/ZDM+UP8cObmsFbGwbtLb/RiU1fF53X7QWiNoHQ7Zt3kJ1YjtAesej7vKUToacV+368jw5spnvoX4yImblRDBFprw+uP7dJ65F5sb1+H95e8x1+HTvY4nRubzi05fMb/UWPxQ5F99zFqD17pM1h1OoQ4pis6G83YOjbEaIidkbTSysYCaL+b6zAnIAM7Nt1ss0/tqx0etgEopg9G/BK2lh0MQV4p0NhWwLEm89q1Iq6rpyIvINlbVo2WxVCx/afxdTeqaLi0fzSWlk7czzR3+mlpfjmr9EoXlvTph9bh08TfJgXk7em4MmEEY1N7p3Q9+MupBp9RS8kjQLh3FblpdUgVLnlMMZ9mmDRfjq578ddaFIb7PPHRRjezSTM1I7QQtFWBa4jPOfcjQb032DAI+zpzPFZ7lbWzh7fFCjgTEi3RdlsFQiV5tdhVPdo+Dy7uFO2fLkLHbX4BBHNs8F/NiBj+VbQb9YRKmhnfwcC6O3sHyydDjt6h8P2hJ0pUEC6f4Gh1UHkdQgRQCEfx8DnTzqA1OBje44gGvD6CsTN3djqH7uzA8ZV+iSALKPWdfPLpQYYGYRfRvYDQXTp3o+t9pP0KoQIoAmfJ2Lo3yIw6M/hug9IY+dLgijo5WWI/75IB1ErNeELAK35rvP2/WktrakRRP4F4a1WNr0GIfqAJvdMxoh3TfjmgygEd48UQzFs//z6sfo0IwRRv9eXC9OsLexwV1pDZ7pu1YAe9BYwT0Gl0Ihao2x6BUJsbp7WK8UKIEJIB5E6bJxBmC2INM2yE8pbTfXtTHDRkhaaEb55y3QNyFMAyfsaQTS5JNnrZbPFEDpx6DzmDlyN4e+YxNSqEkAyDP57pG6aaTTLCKi+zy3BiL+ZsHNTx516QUvl7yhxpu9Yhf+SQzBkhdJDz1oETYF4PHYIUmqLvQqiFkHoesNtmKbnCw2IcztL8NiGOojc04r6PLMYoR/F4cjes1792B0FDG31HqwsrDR6M7wXpxwxBeD5pFHIO7bba2WzRRBaG12OkA+jVTUgHUTugUdpprFDY++nF2NOUAYaLlz32sduq8rfEZ5TfvqAqCyiJ3Rn0HyM/ugS4esaqIzX2uk1BeD1VZNRd/6YV8qmxxCiuTD+0wRQy7EFjqNjXSPSDiZfjjf70xLEzStstVaJjgCL1niHCzcb8Nc1My2V1p0KyQps8LHcxwovN0cVm+flxrjKePK8DGWnSIYyrvKa3LcNGd/oj0/WfY+ADSvQJWaQU8h8mB+GLhwDp5ZuypZpkiHTy/Nq8Z2dMwXg79k/tB+E+Hee+nUqgt+ztIQ5go7aeR1E2kEkWsxeW47tufu88rFbo8J3RJmhW+Ibh2JwlQoNpggrZFR/UdGnbkvB9F1mhNUWWreQ0nT7imr0x/CSBITtLbLGJygExKL6W87tLRLXGefr4ljLtZhBza4JaKSMxvIDJSJuVG3TPXwPanJ8TuyB7fh2Wzq6xA9zmqaii8fRRYyFs+kJbvAB06FMF+WHlKaKdAuTtTEfNOUZO3qa/GGobvnwDrc1ITbRxc0pxLBuRs0akC2MdBC5AaLnliDkgxiwAaAjVviO9k70VTwSM9DSGqYRQARB3OEy7L5wDGeuX8bZW9fQ8OMd65ZzrApdDH2aV35DHxSfP4r5u3PQLWs6ehRHY9O5Q3hq5WQBwLobV8S5Hjnzwe3ZjClCCwnbvwXhNYXosW4eeuSH4Q/ZP6BL7BD0yF2IHmtnY+u5I0jYV4we6+agm3m2eO6Wy/XwyV9uMS+j+llBJ2BBTYnaTKOmdfbeXXTJ4DsENH/f8F7YevGENU1MH9N5/PoVke64wzsggOgOiEwB+GNiMKovtMwscxtCFUUHMep9bX4gW/goj3UQaQcR/UNsAGiNPhodDSIteR+aYa+nj7evgI5gFOGL4SXx2HW5Hrd+dryeXH79XlUIbT5/BMM2x6BLeC90ieqH7RdPYkhRtHi+FQaEFzdW7phBOH7nBj4rMKBLeG9xDwFkXXcsvDdyT+/HgoosdDH0bdSC4nH1px+xcv928a6UEVa70WJymQLxUupYTN+5xpJmUyCsz1WBEN/XUf4y/cwHYfIRao7yzPZ8hC/eyf6hRWXTLQjRDJsZuFI0xyuB4um+DiJtIKJ/qN+ry1G1/ajDQuSocD1I56duS0UXo5+2ChThi0/WzsORqxdd5inBoKYJ8fz8nWZ0z5iKgILlAiDPp40XUDl5owHTqzeA5t3sslV4l721jb5YWFeCrFP7BFD+kPBNc63G0KcJQoQWHcDm2Thx9xaGb0/H61kz8Iek0QJkwiwzBeAt8zxQ67LMgR3gFEJ8X1flYf+V03g361t789MWPvK40SxLqdnsUrajZ7sFIXNUGYb/zYiR3bU7o10BKvjvJgzUh3i4HOLS5+lFYimkG9due/yxHRWCznB+38UTeEIuPCgriLPQFIDcU9p8bRtP1jiEUMaRXQjZsQol549gbuU6dInoKyB46vZ1cTy2OB4TS5Lw7upvhTb0p5Xj4VO2EouqcpFwsBTv5SxsqvC2EGqc42fvnevotmaWiPdQ+kQLaOgbMgWg67oFOHizwWKOmZxDqOxyvaayk3K4XDvMmcemALyWOhYXb17TJN+2vGmG0KmjFzH2n3EgNFyBxd3rlDn4rwaXFVHZjP2g7YvlhZ5dig2rvNc/w7Yw3M/HgzZEWEweZ+CR14z+eH/tPNz8Sd0E23PlDDL3b8eM6gKxDd2aYi+7ERgEz6urp2J6+WoBNWF2RfUXoHhu7Tw8ER+MJxK/wUMxjWYXNZy4oXhj5QSMr8xGztlDVn8OtS2rOSZ9MxG+IIT+njlDvMPv08ZbICSWHrJAqObaxUZzzAmEInwRUpEl0kNn8rqjlWA61b755bu38L55ThMcZb45Cw0+WLLTrCpP7RnKc5ohlDC/CEPeMngdQBJY1K50jci5ecaZCUL/GYuGSzc8+tjKD9+Z9nefO4yHWEG0Ts0R3humfVtU85Dg+WjdXLyWNh4PJ4fg4ZRQPJw4yl62oQ+oWQifkMEHj8UPF3D4w8pJQhOy+mbo+6F21Kgh/T5+JLpE+Ak/0lcbwpu0GL6/KwgZ/fBQwkgL4FLHCFNu6JZEHLqqAUKRQSIdTM9TySF4Y9UkkU5HrVuGqvzmpqIzAPGaKRBPJ4xA/S33tSFNEKIWFNIjukVaEAe02m4SQDL0xDTr+8ISyM33xSVOtSlel3E9CW3lt1Seo3ewfY7U+kQnxqcWIT9tl2oF6kxgcSctH65fZK+pOKs0Eb6oumRvmlAzeDhxpEUDYGsTt0aTyM5Ra+gDaiDjihMtz47oiw3nDiO0PFPcRwjNqduMObvXYU7VOgwuiRPO5Fm7eJwtzmccrRTaibUlSw1CRr8mTYjOZlMAEk9WI/1IBcaUpmF6VS72E0KN72mFn61jmvkh0yLSFiDS+VTiSFWNqPT8UffylPIjfPFt2Wq3y6YmCLVUCxr9cTQmf50knNrKkFCSAJKhO6YZNafR/4ixbjTpHFVgnh/0VvP4ynu17A9/12iVT3k81nKfu3H4no7SQW1o9EfRujbUOOUHtSD2V9GsBbECxgzE9bu37CqL8OlobRmK8MWXm4x4bZWlSZ5weDf7B3TLmS/exWdLrLjOONzezV0kNKSPchY0nc8Pw8MJjQsrNlbijwrC8Gbm9CYTzRSAnsVReEzGMwXg1cxpoHzG5T7ly+Z6nu/CKWvd0AqXVeXZ5cWx29dFPsmmfzsIq0E+MghPxA93WxtyCSFqQaGfxHisBRE0k79KQvnGA6gpPYbK4sMi5DFb2tRARNPMlY+IWsR3AemoLD6CXZsPiXDJaDN6P71IVRvi+QWjMq3xeY87G5+THlZild/ryUVYHb7dY3mOns3ncECwz3PqWh21IT67IEPXhqgtjSiKdO+PTQ0hdYxdpaOsj3PDtDtkWcnpl7GtjPKcDJXXpSYiz0ltSx6ryVQ7xzRQPje5TxmMK2VpDQ0+GFJosssP+st+nzTaIl+rLMYz+GBpdYGdPGearUsImWN3YOhfI+w0Fqm5uArZDD/DNw03r93Gzz/9bN1+vHsPO/LqRGubmgxXIGIlDQtdKxJLuUxk0sJNooJK80UZsuLGLsi3xle+i5Z9yi8vPGCV/9XvFqJqq6XfhZb7tcbhcwyTc9H7KXWYMk3Uhqb6JOPOrbtufWxnBeF+vHbo4kk8FjvIvcrHFqWsmar59jCbptXMGHcqoTKuhI4M5TXbY3neG6G7IDL6oXvOYtX8eD1zpvv5YQrEc2nj3Gopcwqhaw03McM3FcMbJypTg4Wrc0oI2Rb0W9fvYNn4bI9ApISQlKsVQjK+u6EjCLkrx1V8AaFnFqtqdISQbCnbu6tlPVVdvUdHvz5ne5p7zlNWclMAvl6/RLXSqfY09gYYOrIMUwAIX7VvzeZ/j6Ac0RcZ+7epylR7jlMI0WRqab8gZxDiCx2oOoWJPRNVzTICzpFGpAahuAUbrJqKUgvivlITkhlRsekgEuZtQuqiLZq2JaPWCi2E8thvJyx0ndP74mcX4XBtUzPoTz/9hCzTDiT9sNnpfZO+TAKXkbZNg/KYmlLEjFzNH1qmubOE7JPydEpok+9Ea0U3BaBvwXLVfHtQIcR0q5ULzyHkizfN6tqm2nOcQsgwKdehluJKA5LX1SB05sRlsELyhX688yPMMTsw/B3HY9EIokF/aT5ntRqE4hdsdAtCaWFbEPBimJBN+a62/l2XCy2EMKA2wmNn9/g/H4aS7FrrB+awiwk9E1ze16/rcqcA4vMJqaHdInDtyk2rfLUP3N7nzhy8imM7b+DCoR9x57b3JksvPVXnni9IQirCD/0Ljap5pkOo+bpsHkOIJqEpAEcvn1bNZ9sy6RBCLNwhH0S3uHe0GoR2bKjDmeOXrC946VwD6FSm1iXhZRvagkgdQu5pQjTfvn5ioQAKoaJlU2ojruLTb1SUtceaTkKI/Xw4Ot7ZvcpnONv/6omF2FnUcWdgrC0+h7ghlVjerxxl8ddxYMsNEEregBGnGZV9b9xyxkb4ir49thWBxzqEVCDEPk0S4O6Ehj6IqbL4YNXyWnnOIYRYuAe/2fLOiWoQ2rp+L5IXb7ZqQ3yhvRUn8M37lr5EtgCSx0oQqUPIPU3ImQ/JWeXXes0RhHxfUG/50ipXxuv1x0VYMtrinFd+1I6wf3jXBYT1LMXk1wow7o0cZE05jS3h11CWchl1Gyya0c3rnq21dvnWdTyVFOKeQ1pWIB1CzaFCR7wzc0z23Jb5pzU0+uEva2ZZf8DOyqRDCBmn5znVTCQYXIVqEKKDd/h7RtSUHbe+JM2y1MVbnJplfJYEkRqEnEFFzSfkLL6s6C0JWxtCNMkCng2Dp5XZWcFoybXjNRdg9C8TAJr+tw3gljzmMIrDrlu3nak3UJt3HWf3/+j2+1tMMcsYLbf/0jqE2gZCjSbZ6duuZwZVhRAL9ZhP41psihEajiDE5W0WjjQ382mcP9WAOQNX2a3aYQs6goj3yyZ6WWGcQaUzQoiA/PKR+cK5L/OgvUMCaMWQLQJAs7tvEQBSg5AEUnmS+zBasSvH/VYx+Qd3AKGrP91Dl+QQz1qDpOz7MWwtTYh5walJjlZaFQ1HZVMVQkdqz3rFFHMGoaF/iRCwyU3c1cwsK9uwX/iF1DoxKmHEvkvLx2c3S2C8m61jzqDVEg1I3tvamhCfQ5+WObq0WT44+titdV42MtQfvojI/mXC/CJ4Zv692CWElDCqyr6Oq+fuuUwL1XzNU3bYgiHCF2OLE+yeIYY7NI5Md1u7sn3G/XRMCCWH2OUHy8on65d65vyX6Y/wxZTieFXZyrKoCqGNGVVtA6H3TJj0ZSL2VzWN42HfoaT5m1zO3MiZHdmfRpkYdkakxiMhoAw7qybU50+LMXvAymb5oMyTtthnR0y2eMYMa26CSVNs8tt5duaYhI8yLFx8HXvMN5v9lGzfn/4g0XfF3U55iooxa0eGXX4JCHH+Zk/lSvn3W0gIxQ+zyw/mO1sR5awAHoHZFIAXVk5Sla38rqoQWjE5xyv+IFeaEK+zRWzZuOxmZtnpY5cw03+lU7NMh5BlxD1b2fq9ttwrLU7KguHOPltSk6ZUNPMBSQAxnPB2riYISSDdva0+xQbfqZJjxcRMhhrmjlYDgsEHM6qa/7wo9/Ddm+73OVKTf7+dI3RjBqmCghqjnDPbIwhRdmQg+ONwVp7sIMTm00lfJbq1iobSTLLdd+QTojnGuPTvcCtIa5onh3/Wbdn7MOI9k8NOjGoQcrefEM2xno/MFx0QORTC2caxakrNSst+W5hjfI8vH5qP+sMXnH5o20JAE8obTeU/3vkZq2fvsZpdSvjIfXchdOeGZRiO7TvzOKG20H6CMXcqfngvLNi7yS6vajg7IbUCd2R1lrimQNAnZpvf1BjtZpR0N83hvcCGBFvZymM7CHEK12/et8DBFiieHLuCEGUSNtN6paL+SNNUm9cbbiF84nqHGpkahNKXbXHLHFufvBOTPkvC1N4pLrcJXyaKvj1a4CPjtBmEHp6P8kLXU3fKD3/+6DXszjmFkqQTOFbZ1F9LXtca8mdRknLUKYAIotCua62aUNGSa3C1OYPQ2M2xnvuDWIHCeyHlwHa7SiEmBtM6Nay7FbGjxzf64YjKPEBL9xQ0zoXtodbJdBv6ILZ6o11+K8uYHYQOV59p0YBVW1BpgRDvoaM5ZtZG3LrRNCiTQx6mfp0sIGUrVw1CmabtCHxJfWIwNZ8QoVe17aimbXNWtehkKAGjJWwrCNE5nWl0PlaHwCBwShLqsW7+AcQO3o3wPruxclINqnJPi4HFyoKhZb/CfBxz/1HoFoQ2LroKV5szCH3kyaBKJQTCe6PkjH0HzwLOcKh1Gg+lvM6wb+iDbRdP2IEi7Whly0xf5o3RDyOLIu1kK8uXHYTKCusgTSXbiu/JsVYI0SSjBqZcY4sVp3BVlYCQuP5BlLVHtSMIEWYD32o+xIPAUIOQMiNc7Z8/2eBweg1HQGorCHE1DsOUHKcfumbbSSzuXYhFn1cI+ET6VoEbQWQasAtVuZdA7dNVPsjrewrr8X2PzS4BZKsJuQIQrzuD0KPxwZ47j4XTOUj1rz9nd7Z7EKIsmm9cOJChkO2BxuBtOXwXd98nvDcWqcw0ubvhnPDptMhE5TxLGdOdlis7CG1eu6ddIETA0SybGZSOM8cvW1+aFYMDRW2nE3EGIQLLFkRqEKLWRfmuNk5DQg2RHSQdAUftfFtBiO/1/VDnM9qFj8uD7yNRmPRedjMISRDFDdmHwqgjoKkmQWMb8qfAcwd2XMSSL4ox+dUClxCa3C1fmGPpUw4IM6wlEGq4faNlpliEL7pmz8c1Ff/Hm2aNzf6EBsGTGIxX0ieg65rvRPho3HDLeXdgRDnRA6xyuppnQchxFyJKOeZZoJwnk0ZphxHzpWCZ3XdnPlnyxYMVWqWGGBkE/jhsy5Ly2A5C+em72w1CBNHwd0xIW7KlmVm2f3c9Qj+JbdZ50iGEFA5vJYjUIFS24QBiZxQibmaR0y3x+81YPn69y5HttiBqSwhN/CrR6YfmnE6+vzOi33MWEElNSBlSK8qaWefQT0QIHa++jKWBJZoARC2IEDIvrsbWxLPYsOCaS1PMmSZ0kNOYetoyxoodFYSUE01j+WRFEHIjG6dylZVHLSRgIoPQsyAM46rzkXGoDOb6WhGG78kX54VG5ApEjXI+z12EcZVmqxzKohz/IpOAk0tHOeUY/fGhebadnNi9RRY5icEWGKmlR56jnPhhYD7IPJFh8v6tlmZ6V2mSstTCyCA7uVI+QzsImWPK2hVC1GLG/CsOBIR8URb+VSu2NlvvzBWECDSlRqQGIbaO0Z/i8+wSpxuHR7iaWsMWQDxuKwhxQCwHxsr8UguVECKIpnVfL8wxJYS4H/bFLiSH7sHezRdw907zUe+cdiVmUAXGds12qQExzsIvNyPfsF9omvs33UbB/OstglAZ5z12B0KsOIQPHc4JIxBctlJVCxq30+x6MCxlRQ9AcGkqqi6fUpXD87zOeA7NM8qJDIL/pkhUXDiuKocwCC1biUdjhzqWw8pu9BPg23KqzqEcwvJxMeWJi5Y/gw+YD7Zlh9pn8PZkofmJfGx8f7dMNFOAnVzlc+wgROdue/iElP4mmmVzB2Y0M8vOn27AghFrMOIdy5JDWiCkBJEjCPG8GkC8ca6tIMQBse5CqO8fl2Nuz1yHIIobuQc7zSetfqL6/ZcRPkCbBkQzbUGfAtBxLUG2b2PLIZQvHKVcuVSj7yUxGM8lh4q5n1kZz92xX6WEFfjx5FDnlZ3Pi/CFf0m8qgxlheIzGE9UWLX3jPDF5/lhqlqHUg4rfygXcxQanEp66WvJWSCAqLzPdp8m1azqDY7lyHc0BYh82HjusB0wmCbm34fmWXiOQKN2Je/TEt6PELKaZWFbrIWYmcsVSMf8wzKmTSuEJIjYaiand5UfqjMM2yAsPYFQ79+FYXb/VSg2nrLzEVEjkg7rjdF1wgSLDNmGCa/kCfOKJpbsA2QbUgOitlRTfKJZi5uA0PfXhElGs8zZ5sgxve5QubZ+K/xbxwwSFSe1rgSsWGp+IAKIpozw8TirTJFBeDIh2CU4ZLmiJvMkV+3geyjliuMgOFuOWcpgSDmvrJxoL4cyTQFIPVljBwzl/XKfEHmT65Y5App8R6M/3s2ZL/JL3itD5h/zi/lJIDF/7dIn5diGHkGoBXNKKzUa7mttHbO9T5plyqWP+Velv4i9rN2BEGXTsZ0S1ryT2oMMIfqHOPbu2oV7WDW9VphhtqYZQbS013ZxnXBhfx92PORmCx8eM0781FIBLenEloWYENow76owyWiWOdtaDCFWtvhhquDh+1DLoD+Hf3aXAGKFivDFwI0Rmiq8TK8/16i3nQbD6CccvWpAlPfZhpPKMuxNxcggPJ423qVWppS1lNqQoU9zKNrCgscEUfYPIn8cvSfPy2Wom0FWTR7PeQIhVnBbKHh67CmE+DzCZmnoWnDSM5mhHCT5nX86Br9lsBs75syUZJp4Xcph+EBByK/JMU2fECEkZyHg3D+Jo6uw7MtdMPTZ3cxEW9GnEtzm/2Mrxr+dZ4UQtSGpEXHOoDkfFyJxSrkYQ8a8lYNaZX63B4Tks5VhbcNZfFuRia7UMGwh4agShffGYpVlcZRybffn1W6yr/QGHwwuSWpWBm3vsz1OObLT3g9m9NlKFcEAACAASURBVEOP9eqT09veL49LLhy3l+MovWwtWzkRs6rW4+j1ppZqKet6W0DItjncUwDxvpZASN6/Jqq0mWq/NWevAJTtAFYdQs1nxpOFhuGMAMcQ4nWCKD64Cgt7ljeDkFI7WvBlGaa9X2QFETUiAmjhPzdjQ2Rds/F/ymdzv6NAqPziCfQsWIb/Jxc5dFQRlefDeyFszwa34MH4dpoHIbQt2S05mSeq7eER4Yev3YRQ6aWT9nKUaVTuG/1F/gQUx2Bvwzm793V7xgFPNKH2dkwroccpPcZ+Fo/DNU0TxnO+o4ipeVgc0tybr0PICYScaEISGIdKLyAyuNJOG5Igoka0pGcFZn60WYAotOs6LO5ZjJ05x1yOQ9MMoe+vOeysqNkn1GiOyXTZhqxYC2sK8Wr6eMcOZGWljOiL/sVxdpXRVq7yeBSHlzQu/Ww1WSL88O/shW7J+b4qF13CbcwoUwBeXjkZ1EiUz3S2n3CgVBuEjH54afVUkT+OJiQTcy+5M+1Ja0OIvhtuSnAo91uqCVGWZaR9Dm5cvW3N9OP7z4Oj/ZW+B3chxInuH5jWMQ0QYiGu2XQWS3uVChDRNFPbwnrtEiCa1zMPVZubZsd0Vgm0Qoh+I6c+Ia7trgSE2r5YZXUQUo7txsaTNaomBd915cFSvJo21rVfyBSI36eOw8U72hYVYLyXU8fZj8o3BeLx2OEO38c2/yinm5g7yaZ5nemL6odtF7XlPWH1WV6YPRRt887oj5cypiD1WNNgcuU70TRjfiYfrrA4psV7qLTc2cptLQhJ+EzplYxx/45XHd9FgHgDQpRDn84Wc00z6HCaWE4eLzPKXQgxvt9zlgnuZV8gVyGnztDafN+hmuhdmGMyD/duPY0ZH+SBoHG1RQ0vxcmaK9b8lzLUQiuEvr+GAiebMwjlHdml7W/eWAmeyJiCbpnTMXRLrKg4appD3IFt6BI3xHVLT4QfJlbnu9Q++AzGc9gSFeGHoaVpmoBm3LvJiZy+6F0YoUnOmuNVAlpOl3Rmy13cEFUAXb1zU+Qf87Fb1rf4fdp41z8CJYjchZA5eoemfkI0k0zT8rF5TTXyUiux+BuzqkbkLQiNeNeE6T6poAYkCznNMqUD1F0IZSdWYMLnCQj9RwxGdDdp2rjEj1YQtRWENHVW1ACh/WWnsdCnEKNfN2PuP0pcQmjhZ+VIn1CNgzsuNfs5yO+jDCWECBlXmyNNaMvxPW5BSFQ6dlSM8MXvU8ciZn+JtezId6Np8UkxW7JczFnNv37iSMyqK3ZY8am5hNMhTX+TIy2B56P7C1CpOX35XpRDbePllDHoYrTRgmTlppzIIEysNDvUrAjEnGO7BTgc9luS8iJ80XOrvdOcMr7dky80QeHI5/s4SpuUZRu6C6GcxJ0uIcTOhD8My7S2hDDj2JuWkOA1b5tjUh61ocgZ+c3MMlmYGLoLIb4zISpBSpi62haOXAPOZqhFG2orCHHs2IQv7acsVeaNK8f0gcozWBKwQQBINsNrBVFUcBV2rj2B2zebZkBQPpv73oDQnrMtmNDM6IenE0ei/OwhOxDRWa2ppYwVMOkbTKzIFJW76lI92NrGkJWd5x+PG+EYHLJyNsoZWpIgYLP14vHmcnZmWSq9IwBJOQJoAzG0JE7IYdrk+9BsmlWdj66rJrt+H2pBkYGqTujCMwfQJYHj4hzAUL6Ls9AUaJfnyvJh12M6L63SJYTYekaNSSmI+8bpuXbTsnpLExKmXfdIATmaZbbP5rG7EFKT4eocn6HVj9SWEPo2IE01T2R6bCH09SNh1ib6U3UNWBFU0gxAShCxxcyZacZWs6W9tmFL4nFcv6TuLCWEcme51oIYx5EmdOnmNfdGuttWDIMPPitUX/jwufQJjk0fpRxWfFMgumZMQe+CZfArihAhj4WGoFVLYDxjgDBtPspb2iSH0ODztFZ6IcdPyPkse75VDs0m0aFQixyjH17NmmFXfqgFCV9SS6Y4iQzCI3HD7WTLcsnQDkLbcve5hBA1kti5G8XqqVIYncbzR2TaLdnjTQgRRNIsO3HQMpMgHdPSOS0g5KCjpbKfkLzH3ZBp9RRCfNad23fF8ApvrTsmtTFO5bF4dPOWQvldZGgLoX//8geET8rBmcMNiB69AxNeauoDJAHE1q8J765H+oxa0XTvDES8Nu8fO1AUUQ9CTT5XhoRQ9nTXEGIcRxCi6f2Iq/FUSmDY7rPCJo5UNafGlaa7BzjKYj8jufHY9nlajhshYpWjBRpqclsix+CD73bZl5+jt6+JQb9um1/K9zMF4G+rptmVB1kuGNpBiCPWXTXR0x/EUdu7txzG2frLOH3sMorX1CDko2i76VgZd/JXSSJubdkJcMs0brfTmKTJpSUkUBK+LxKyakqPgRvlRs0sEC1pajLYwsbrjCfvcRZWFh+G7VZVcgSGKbno/bS28WbUmPievI+yyjceEH4z3xfdmxJEwsZR+PV/L0TKks1OP7SEkN8z4eD25cPzsfCbLKyaU4mQ18zN+v4QQqFvrMPEbtlImFGB+n0NSJpYjcVfVDjViOZ/WYaFn5Yjc2YtTtY2B5E3IMQC+/bKqdo0FmVFUO4bfFB6/qhdXiWxxUdLj2KlrM6yb+iDbJUpWAs50Zs7A4bV8sPoh3659tOEOIXQ5XPXREV21uzOSj78XRNmBq5E/LwNiJm5ARO+SLQDkITB6I+jRVzG5zahp+O48h5nIcFmK1PIdfIOvIfvKN/BVUjIhn4aa7cNf9cIrRBhPMZXyuGk9I5g4ul5mn2bFMtNKz+w3JcQIhjlNqZHmh18hBb0eh6++2cecpfvRcMly6BPgih+VJVLEFEjIoiSx1XjUPlV/HjXYp5pgVDerKtCW3KkCTEtLNAunaxqlUGeC++F9AP2SyQVnz/mniYk5XWG0OCDgzeb/zSY18a6kpZDyOCDsJ3OVwm204Tu3LormtxpRjkDAa+xYlPD4MZ9Z/F5Xbk5i6v1mlKe3Hd2r4yjJSRkg15fBk5wr9y0AkgChfGV98vz3gwJoUPVp+3+7hJADAmhPr9bbgVQ/xeiVQFEDWj5V6UozTzcrOWR5uTh3efcApFxUA0qsk+ByzhJCBE0jjaaYs7MMaaDBbpF07CG98KivfZao5jonpODdQaouJsGoz8afmo+bYvI6+qNLdcODX2wqX6v07JpByE+fEmoWWg6zir0g3CNsOr/hvc1F28CSHQXeCEMN641deTkN7TdCCHCilqQMwAt6V+EAzvsu+rLrhAEUcwQbRoRzbO5n5di66pj2Jl+UwBGgsZZ6EwT2lq/t2WTrxv6YLrKkj+HuORP9EDX/YXcreAdPT5bxqIH2pUXlp8ppStbBnymPcIXJ29eVZUvy6gqhDix2ZC3DE41mwcBQkxjRwcRlyma2ifF6Ufmx54fnImev5mvCiBqP9/2KEBkyHZwcQFZOByFdcXnYOy/W5NpRgjN+1cp1ky7iPXfWTQdZwBypQld9EIL2awd9lPhUhNwa2R4R4eL1vfjEJfkUarffJjaTABa5TJeZBCeSAppplGrlSlVCO2tOIFBb4TrEGqcWL8jg0g4pRcVqxYi5QcvzKzC5I/ThMOZ0OEmHdCzPy1s5v9R3udov6rgDML9K52CaFHPcqEJsdUsbvhRYYa5ApArCPF9nk4K8VxjifDFuGL1qXBZGR32dHan8t1PcQmhjMmq5WdAoUlb/ylH6TX6YUSh85U2+D1VIURn5OiPYlR7QLenBkRnefDfTc02Vw50b71vRwURtZvdJUdUC5ESIPT10cyKHVeGZQNKMLW7ZV6gWV/mocJ82uXfSilL7lesOYWwXuUgbNSa76kFyY0Q0gIgLRCavjXZ88oR4Qv+4WUalCErow6hJlP+X7ktXIve4INV++x7qSvznPuqEOKFpWPW2vX58VaFdleOhA+nMOVYNdmyxR7aYz+LazONraOBiP6gvk8uxbUGbQMr+V0JI7Z0bYo9iNQZu1GRbz+dp20hcXRMP9HWpKMCQhJEDOUmAcRQK4TWTWtw2E9IvofwC3nagU6HUHPnuxNNqOu6BZ7Dnr4mkz8OXTypCnz5LRk6hNDG1VUY/Gb7+4Wo+RA+S0atRcaybdhs3oMdBXXYnrcPnFfIHF2GOQMzhHbkLtw8id+RQER/ENOu/KDu7BNI7sS3jcsWM4KoIOyI0HgIH+mMVgLI2xCiX+ihaDemF1WaCzqE2gZCRj88t3qqpvLlEEInDp0XU6KOfN9507snFVnrPewmMPbTeCTM24SDe06Lwau15SdQvuEAtq+vEx0PTx29hLRlxS3q/Kj1fWQ8vle/ru3fakZ/0GZztaYPbQsQbxzLGQyuN9xG7LjdAkSLe1ZYTTAliLRoQtSCcr5twN1bTTMjOHrPL9bN96y/kA6htoGQwQezyjM1lU2HEOLHnz1gVbNldmQlbIuQ8Av5MBqZhu1ouHhDLNUc/d0G0VNbPn9iz0RETM3FolFr7ExH3k9YyM0RTHleXpP78lg+hyHPKWW1N4h8OaXIC2FouHBd04d2VJm9cf7nn38Gf1rRoZWY+68mP5AahAgaR9vq8RdQFne92fQsjt5vzaEyz/qwcL7oIpNqnj2oPqFfZ9qPG2O+C3OM5ppSk9S6b/BB9YVjqvls+02dQoh/WVdDOJQV1Zv7XARx+YRsXL18A7UVJzD56ySh7bDyy+dwf/g7RgEHeY5h8HsmsVji5K+S8a1vOqb5pGL8vxNEPCVguM9FFWnuyfMTeyaJuPJYhjw/6atEUCbvkUBqL42I48XmDbZvarb9wG1xLDWiI3vPIj54D2Z9UmKnDUlNyBGA8n9owPol9bhSb99pTi0NF2424PG4Ye63kpkC0LdguWrleFAhRNio5bHHEDIF4vm08aoy1Z7jFEL8y9IcUlZ8ZWVvrX1WfK4vtqfsMBouXcfCkVmazS0CaIZPGpLmbxZDGUrz61CSU4u10WWYPyxLAEyCRYIudUmxAJFhUi7WJ+zE6hXbhAbIdBNey8fmiPP5q3YKmZRNsLUXiOiQ7vWHhWDa1D5qe547UX0F4f222WlEjiBE+GyNbsD+4mtua3XfFEW57zg1BeCz3DDVfNMh1NQyxjL0lnmeZ62Fhr6IrtI+J7dTCPFFkhdswpDGpZVbCzq2cjlSfppPipifpmLTAQx9O8Kq/djGVR4TCgTQzk0Hcb7+Ctjfib6jnYUHcfroJZw4eE5MX0H5vG/wnw0oyd0DrjUfPasAh/acFvfs2nRIaIA0B7MituN8fQMOVZ8RcuiTunimAdtz91m1Kz63LTUin2cXY9RHUaAvpj2B4+jZB8rPIHLgbiuIqBkRQtSCaHIxJHxKE655BB/53PLTB9DF6OueNmQKwFPmOar5RrPkQWyid6QJvbR6mvv5weWIYoeAmqr8Tq5ClxA6UnsGwe81+U2Ulb619jlKPma2haQcca/FJKR2Q2iUbdiPq1duYI1xByb3ShJmFkf3R80owPnTV4TvQppmA7uGCwjdvnEHVdsPIWFeEab0ScacAasE+JZPykbD5RuoKDyI7wdnilkCOPh2fdJOsShjeliJVUNrSxDRIZ0VuU3zR3ZVCFrj+t4tZ2AIqBSmGdckkxAyzzqN8uTrAj7OJkHT+k6vr/nOPQc1fRxpY1XzrmvOItfzTWv1iTiLJyYRU1kYUZ5nqLxfnlee89a+0R8f5C61y49bP/8k8sntaTyMfgjd7HxJcttv6xJCtPdZGQmG1oKOrVw59w8dntGz8zU9m9rN/OFZQnsqyakR90h/EQFBrSczcqvI7ORFmwRkJISYxnUJO0QvccblxneoKj0ktB6lP4oyR/WIEuc57QmP5fu3BYg4leuQtyIETG0/Zkc73rmuHsZBZVjhX461cwifGzhZdVeT41lrWvKO7XbPJOO8OzGDwEpm+4yeJQktHyulAQ6/TvrGMuezhI0I++HXCcHgNYYCQhI+sUPQhZuMr+EZzSDmLL7BB5PL7Lt5HL9zwzIpmrN7ba9xArOYgZod0jL/XUKIEWt3HkXwu22nDREAK1eUiMKaML9QE4R4T0a4BTLLJqzDsL81wYGQICA4Pce9H+9hR+FeAaVBjZoQV3ZdMCLLeg/jhv4rVmhBx+rOImzUOqwYv9668Zim3aWzVzHqQ0vLWVuBSAzTWGw/Clx+0I4W0kdEf8/pWu/CR5nOl1dNcs9sMPqh7ob9BP3mkzWNE8IHWCq8hIC3Kj9NlYRvMGZ3Nt5YN68JnkY/vJg5A8FlmfiqOBa+m2Lxz/wwPBI3VMTpVhiBF3MWuKfx2QKCx8r0cF+0fPVD0dmDdkDexXXKOD+3mhxH5yJ8MdTBzJXK72W7rwlC1BTCJ63XBANZGVsSEiDG6XmgJpSbukuTT4gQ2rCqSmTmt4Fpqs50woX+n5ryY6AWpPQJzfBtuofxOOqcZhr9P4xPrUe51R++APqH2LLG+Mr08pij7zkViDdHzN9PWpBtQWvN46yDpaJ3rmZNwdAHaYd32lW8K/d+xD+3JuDZ9HEWAEgNJKqfd7QQox+GbYpGbcN5mDkbAP1ZrNCGPpi304yD1y5hRFEkpm5Lwe7LpzGoKFLM55N7er+43qJJ1wgdmZ7YIXg8fgReTA0V6VX7NivdneSNWlD0ALe1ID5bE4QYcd+uk22mDbEST/VJFsMRWPFDP4pxOV8RISTnvf5hRKaYBlYJBvqMOB7u9s07qCg6CGpB0hwjmGwhNMUnWUxfu3fXcSwdaxazMnJmRuW2YkIORn8S0wxAymcOe9voNQj5vbwUvf64CKmLXQ9WVStUnf3cC6unav9zO1mO+dK9HxF5ZCdCimPRfXOk2F41z265ryiyn3i/zJM18CtNRc21i/ht+jgL3BohtOlE42oi4b2wrDIbhA9nNvQKhDiPdH6YNU2Tt6YguW4rmF7bsnHn55/EO4opZx1pPbbnjX7o76Drg61822PNEOKNEdNy7Sq3stJ5c59Q2Z63F7du3BEVjz4fwokwkRuHUEgthNqTYcp63Lv3E1aFlwjtScZjyInXloSYhXa1JrIUw96OcAohOrkvn7uKI3tPi+4CbKHjM6xbN2Mzf5CjtPfrugwBr4a1GEYcosH0Xjl/za7Q2H7UB/E472AZfkl/Dyu7bQWxPWa8lNE4dUNbC46AgcHFkkC2z7A9NvoL6Oy8cgZdYgYi73QdppatRhfKVUIooi8ejR2E5VV5iKOG5y0IhfdC0Tlt4wR3Xj0v3lGzUzoyCI/FDkbtWdcDqdXKplsQOrb/LMZ/Zun056jSees8Hb4LRqzBuZNXwClnw0LXYeIXiQj9JEZoNNRqxvwrDtP7pGDS14kCjmwFO3noAvie3/mmY/THMY3gisKEzxOxq/iQ8ONM7ZMszjvShJgGQmrr+lphvpmm5wttbOT79P9Eib5TM/1XYvy/462dHJ2lm2Zf4Gueg0gMVH1mKXJTdukAUpmwTRbsr7IXuqUNjSlNw6XblulrpQy10AIhm6WYbSHj6tjgI6BDEDyXMhrjS9NRcuG4ZSL58N7C3Co9XYfXzTMxvDgOGfU16GGe41UIEYBq6VOeO3PzKvy2Jrpeh02ZXqMfZmxzPaeV8jnKfbcgxBtZEahVULtwVvG8cY0govlz8uAFAaJiczXivy9C9LcbxLbGtAO7Sg4gem6e0FBE/O8KcP5UA+oqTyJ65gYsHmnGsjHZ2LZ+Hy6caoBoVn/b4rSWjmlbc4zvTg1r7qAMHN13VvQTyli+VYCQslaGlaBq+xFwDTKpiblKL00zT0HU+5nFmDsgQ5iSyo+n7zfvXMc/8W/pzNXqSDb4YP6efJcaUYshRO0soq+ATk59LX6oysWiPQU4eecmnmwEDX1C+y+fwtLKtSAcn0oMsQC1DTWhY1cvYNLONe61EJoC8UL6BJzTqFWqlVm3IUSfyg/DsgSIXFU8b1yXGlF5/gExgPXU0Ytgi9Xx/efEceXmw1gY3AQDVnaCq7r0uADI0X3nRFi386RY+YLy5HtR2zHHlWJ/ZT0mf23RjuQ1hozLqW75jPrDF3GwmoNoz4n4G1buFquIaIUQ5XkCIt8XlmJQV4MYwKv2AfVzzUG0eHeOpdVHq1lmChSVvvL8EQGj6/fugj4R5dZiCBn98VTGZDGZfA/zbPQwz0W3VVOESbZs93qh7RBCVp8QV4OlyUhtw4sQoiakTBf3mV6apVw4cTAd4e60iEX2wyPR/UFTuCXl0G0I8WEc0R76kX2rkLICe3OfMGBl51ipsPFmsdEpzGNpcimfx/hcZogAIZAY8pgQUMajTJ6f1jel2XllHMriMyiDz+ZzGZ/3ugMgKdMdENEM83t+KbIi7FeHaMlH7+z3djXPcq8yGXzwWvp4AaO4g9uRdbIaWadqrdv8mo3uyVOaKtyP8BXmlsXH09sCGEMf/DtvKUov1QstifM5m9UG5Yb3xqqjuxvne26BSUitr2ajNU0ifSerwfRaNS9XS2HbpsvohzHF8S0CEMuiRxDijWvjduCb7pY5mGUFa+2QlZ5QkJszEKjFVXs/ZzJkfK2yZHxXoRYQsTWMy00TtNQ+Ozs4vJk+mmVPs0Og1CZsK4/aMeOyEsrJ0hTN2aJpW+0eredMgULLED4eqWnwebGDMakiS4S8pqqJGP3s79X6XNt4amlimpWal+09jo5NgXglbWyLzDD5zT2GECsGHbYEQlv4h1xV7PvtuisQsTUspEeMcLLLj6WHzU0vZ/mRVrdFmAqa/UOOKpu3zrOiSwBJmQQRoceQ1xhHXlOGavcqr7f1vikQTyaMwPb6fV75OXoMIRYANhfP7r+qzZrt7zfQuHpfRyBip0T6gSq3aGtSdVYZH+Rrk0uStfuH2roi36/PE50SByJmj/ZR8q7KYIsgROHVZcdE8zen0HBV6fTrUXZ5ROd4wCtNzfe+Ly6F33NhWBlmGYLi6gPq1x1rR+zp/9Kab3UQeQt4kf3wC1MQQjapLxTgaVlsMYT44PLCAwj9sO0c1Z0NZoPeNCDw1TAQQP4vhmHFpPVeHeTpaeHoDPeduX4Fz6aPt/R41tJi5q0K29nkMO8ig/CFgwnQWlJWvAIhvgAnxg/9OFbMatjZINEW6eF0Jb7PLcWysTmil3hLPqp+b3PtqOr0QTybPNreJ9PZQNFa6SGATAFCqyTUvV2+vAYhvti6+HJLi5lumtmZXc5AxiWNuP0wNBMNF9t/zmhvF7KOII8geipppKUjo64RqTvA1SDWCKDnM6agNQDEsuFVCNEGz4rcjpAPonWNqHH1Vmfw4TU2/xNA1IB0ADXXYLwNr+IT1XiGq6wa/bWNMVOrlA/SOakBZUzBIZWpT7z1fbwKIflS2fEVVh+R3nxv74yWYCKARn0QjeUTdQDJstPaYcWZAxbTjHPp6BqRY40oMgi/iOqPl1pRA5LfulUgROH0EXHQKEe/6yCyB5FYEeSjGCTN34SrV7SvoCo/nB56rjXRNGPlEn2ItI4ze6A0oCD8MqqfcEK3lgmmLL+tBiE+hK1mU7+yjMmiySE1gAc5JJCpAYV+HCdMV05Vovwg+r7ncHEn71i5XjbPEpXNrZ7VnR1GpkA8EjMIAzcaWs0HZPudWhVCfNjB6npM652CbzgNxgMOIgGg7pEY9894FGXu0eHjZFoO24LaGsfn791Fn9wleEjOnPggm2dMe2Q//Ca6vxin1hr57Uhmq0OID2bP6phZGzD6wxgBogfNPGN6JYC/C0gXYHb0QfTzbaMJKfPZWJWHx2IHWYZPPIggigzC/4nshycSR2J1bdvPX94mEOIHZ8sZ//7UAmiOyUrZ2U2zJvMrVizI2HBZ9/8oAdBR9ktP7cN/Z0zGf0YPeHCa8YX2E4SHogfgE/NcnLp2uV208zaDkCxsNM8Wh5o7vVYk4UPITuuTiu153hnsJ/NRD72vMdE845QaTVqRzfpfncUf1Aif/xvVH79LGA5qgu1ZntocQkys1Iomfp6IUT2iO5WJJuHDtck4lIVLRuvaj/eB0ZqVhlrRkxlTLKPwCZ7OYqI1woeO+EdjBgp/2P7r7aP9KL9fu0BIvgArZ/qyYkz4LFGYaKLjXhtMG9saJqCED2WP7hGLsHHrdN9POzueZTnzNEzZtwX/nTYWv44eaAHR/QojBXy4OCEBu/GYZXksT/PGm/e1K4RkQi6ebhAaAzUHVmL6i8R2HwBJwoeaD+GzeJQZtRUn2lW9lfmqhy3XwGiiLS4344nkEDwUM8jSuY99i+4HIKnAh2DtaOWiQ0BIZgr9RTRfqBmF9IgWS9xI7YiVvTU0GE9kSvAwpDlJeFLzIXxoasr06GHLIdBR8pBOW/pOnkwbi9/EDBStSZbOjpambdXJyNrDhyTAYxnx/h/RA/Bo7GCh+XRE+Mhv26EgJF+KmhFX9ZgVtFJoF6zohFF7AYmwUYIn5KMYjOoejUlfJglzkvCU766HnQc8jr4lm7HZmvS7+GEWU40zI0rtqD00JKnxNDa1U2N7In4YBhUYOpTZ5Sg/OySE5MtSq9hTegyJCwox7vN4DO/WuAAizbXGvjcSEAw90WrU7lHK5D7hN+I9E4a/bRKteobJ67FlXQ0aLrles0qmRQ87H5z2XruEudtX4dcpofhPkz9+ERmE/6WEkdRKvKkRSZkyjOovnvkfpgD8V2Qguq2ahrDKdTh59dJ982Ps0BBSVlyuDUYgpS8rwdxBqxHyfrSAkvQdWbUk6U/yNGyEW/B7kRj5XqR4Dlfk4BpmXDyRq7Iq30vf73xw8eSblp+oFZX/07Xz8KvYIfhlI5T+txybJqHR0tAUIEzB/4jsJ8D3q4QR4DPjaopAKHry7u19z30DIWVGUUO6UN8goLQ2rgzzg7Mw/vMEyxQi70RiRDeT21vwO5HgNvZf8Zg3aLXQvqjt8DkEoPL5+r4OHmdlgFpIyckaAaW+OUvw64QR+FVUEH4VGSjAQa3pP7mvyadcqwAAAOtJREFUdTP5i3spg1rXsIJwAR2C79y9u/d92bwvIaRWAAgmmkeERl3VCbc33kctR3cs64BRK18tPUdYEE4Ehycb7+0MwFHLx04DIbXE6ed0oOhloOOXAR1C93mHOr2SdfxKpn8j599Ih5AOofvep6BXcueVvKPnjw4hHUI6hPQy0K5lQIeQXgDbtQB29L+0/n6tr2XpENIhpENILwPtWgZ0COkFsF0LoK5ptL6m0dHzWIeQDiEdQnoZaNcyoENIL4DtWgA7+l9af7/W19R0COkQ0iGkl4F2LQM6hPQC2K4FUNc0Wl/T6Oh5/P8B1U+6/7U4hjEAAAAASUVORK5CYII=;fontSize=17;" vertex="1" parent="PWt_-XY5z9876F4vLIQb-62">
          <mxGeometry x="127.43" y="261" width="175.15" height="80" as="geometry" />
        </mxCell>
        <mxCell id="PWt_-XY5z9876F4vLIQb-67" style="edgeStyle=orthogonalEdgeStyle;rounded=0;orthogonalLoop=1;jettySize=auto;html=1;entryX=0;entryY=0.5;entryDx=0;entryDy=0;startArrow=classic;startFill=1;" edge="1" parent="1" source="PWt_-XY5z9876F4vLIQb-66" target="PWt_-XY5z9876F4vLIQb-62">
          <mxGeometry relative="1" as="geometry" />
        </mxCell>
        <mxCell id="PWt_-XY5z9876F4vLIQb-66" value="&lt;font style=&quot;font-size: 17px&quot;&gt;Developers&lt;br&gt;(12i PT)&lt;br&gt;&lt;/font&gt;" style="shape=image;html=1;verticalAlign=top;verticalLabelPosition=bottom;labelBackgroundColor=#ffffff;imageAspect=0;aspect=fixed;image=https://cdn3.iconfinder.com/data/icons/developerkit/png/Users.png" vertex="1" parent="1">
          <mxGeometry x="3596" y="157" width="128" height="128" as="geometry" />
        </mxCell>
        <mxCell id="PWt_-XY5z9876F4vLIQb-71" style="edgeStyle=orthogonalEdgeStyle;rounded=0;orthogonalLoop=1;jettySize=auto;html=1;entryX=0;entryY=0.5;entryDx=0;entryDy=0;fontSize=17;startArrow=classic;startFill=1;" edge="1" parent="1" source="PWt_-XY5z9876F4vLIQb-70" target="PWt_-XY5z9876F4vLIQb-26">
          <mxGeometry relative="1" as="geometry" />
        </mxCell>
        <mxCell id="PWt_-XY5z9876F4vLIQb-70" value="&lt;span&gt;Users&lt;br&gt;(8AB PT)&lt;br&gt;&lt;/span&gt;" style="pointerEvents=1;shadow=0;dashed=0;html=1;strokeColor=none;labelPosition=center;verticalLabelPosition=bottom;verticalAlign=top;outlineConnect=0;align=center;shape=mxgraph.office.users.users;fillColor=#2072B8;labelBackgroundColor=none;fontSize=17;" vertex="1" parent="1">
          <mxGeometry x="3603" y="601" width="114" height="110" as="geometry" />
        </mxCell>
        <mxCell id="PWt_-XY5z9876F4vLIQb-79" style="edgeStyle=orthogonalEdgeStyle;rounded=0;orthogonalLoop=1;jettySize=auto;html=1;exitX=0.5;exitY=1;exitDx=0;exitDy=0;fontSize=17;fontColor=#0000CC;startArrow=none;startFill=0;strokeColor=#000000;dashed=1;" edge="1" parent="1" source="PWt_-XY5z9876F4vLIQb-10" target="PWt_-XY5z9876F4vLIQb-5">
          <mxGeometry relative="1" as="geometry" />
        </mxCell>
        <mxCell id="PWt_-XY5z9876F4vLIQb-10" value="&lt;font style=&quot;font-size: 17px&quot; color=&quot;#000000&quot;&gt;Developer&lt;/font&gt;" style="aspect=fixed;perimeter=ellipsePerimeter;html=1;align=center;shadow=0;dashed=0;fontColor=#4277BB;labelBackgroundColor=#ffffff;fontSize=12;spacingTop=3;image;image=img/lib/ibm/blockchain/blockchain_developer.svg;fillColor=#666600;" vertex="1" parent="1">
          <mxGeometry x="4620" y="157" width="116" height="116" as="geometry" />
        </mxCell>
        <mxCell id="PWt_-XY5z9876F4vLIQb-56" value="&lt;font style=&quot;font-size: 17px&quot;&gt;Database&lt;/font&gt;" style="verticalLabelPosition=bottom;html=1;verticalAlign=top;align=center;strokeColor=none;fillColor=#00BEF2;shape=mxgraph.azure.database;fontSize=18;" vertex="1" parent="1">
          <mxGeometry x="4380" y="176" width="132.75" height="90" as="geometry" />
        </mxCell>
        <mxCell id="PWt_-XY5z9876F4vLIQb-88" value="" style="shape=image;html=1;verticalAlign=top;verticalLabelPosition=bottom;labelBackgroundColor=#ffffff;imageAspect=0;aspect=fixed;image=https://cdn4.iconfinder.com/data/icons/miu/24/business-telephone-office-outline-stroke-128.png;fontSize=17;fontColor=#0000CC;" vertex="1" parent="1">
          <mxGeometry x="4608" y="20" width="128" height="128" as="geometry" />
        </mxCell>
        <mxCell id="PWt_-XY5z9876F4vLIQb-89" value="" style="strokeColor=#666666;html=1;labelPosition=right;align=left;spacingLeft=15;shadow=0;dashed=0;outlineConnect=0;shape=mxgraph.rack.f5.arx_1000;labelBackgroundColor=#0000CC;fontSize=17;fontColor=#0000CC;" vertex="1" parent="1">
          <mxGeometry x="4360" y="64" width="168" height="40" as="geometry" />
        </mxCell>
        <mxCell id="PWt_-XY5z9876F4vLIQb-91" style="edgeStyle=none;rounded=0;orthogonalLoop=1;jettySize=auto;html=1;fontSize=17;fontColor=#0000CC;startArrow=none;startFill=0;strokeColor=#000000;" edge="1" parent="1">
          <mxGeometry relative="1" as="geometry">
            <mxPoint x="4608" y="83.29000000000005" as="targetPoint" />
            <mxPoint x="4532" y="83.34" as="sourcePoint" />
          </mxGeometry>
        </mxCell>
        <mxCell id="PWt_-XY5z9876F4vLIQb-92" value="IVR&lt;br&gt;(VA500)" style="text;html=1;strokeColor=none;fillColor=none;align=center;verticalAlign=middle;whiteSpace=wrap;rounded=0;labelBackgroundColor=none;fontSize=17;" vertex="1" parent="1">
          <mxGeometry x="4424" y="120" width="40" height="20" as="geometry" />
        </mxCell>
      </root>
    </mxGraphModel>
  </diagram>
</mxfile>
